<ttFont>
    <TTGlyph name="A" xMin="66" yMin="7" xMax="1256" yMax="1419">
      <contour>
        <pt x="584" y="574" on="1"/>
        <pt x="737" y="574" on="1"/>
        <pt x="832" y="574" on="0"/>
        <pt x="832" y="602" on="1"/>
        <pt x="832" y="608" on="1"/>
        <pt x="832" y="721" on="0"/>
        <pt x="701" y="1062" on="1"/>
        <pt x="676" y="1127" on="0"/>
        <pt x="667" y="1127" on="1"/>
        <pt x="663" y="1127" on="0"/>
        <pt x="633" y="1058" on="1"/>
        <pt x="479" y="699" on="0"/>
        <pt x="479" y="600" on="1"/>
        <pt x="479" y="574" on="0"/>
      </contour>
      <contour>
        <pt x="1256" y="60" on="1"/>
        <pt x="1256" y="7" on="0"/>
        <pt x="1060" y="7" on="0"/>
        <pt x="1016" y="68" on="1"/>
        <pt x="989" y="106" on="0"/>
        <pt x="918" y="321" on="0"/>
        <pt x="900" y="342" on="1"/>
        <pt x="870" y="376" on="0"/>
        <pt x="746" y="376" on="1"/>
        <pt x="494" y="376" on="0"/>
        <pt x="426" y="341" on="1"/>
        <pt x="389" y="322" on="0"/>
        <pt x="305" y="86" on="0"/>
        <pt x="285" y="61" on="1"/>
        <pt x="247" y="14" on="0"/>
        <pt x="66" y="14" on="0"/>
        <pt x="66" y="98" on="0"/>
        <pt x="430" y="1190" on="0"/>
        <pt x="438" y="1207" on="1"/>
        <pt x="515" y="1365" on="0"/>
        <pt x="546" y="1392" on="1"/>
        <pt x="578" y="1419" on="0"/>
        <pt x="666" y="1419" on="1"/>
        <pt x="754" y="1418" on="0"/>
        <pt x="783" y="1396" on="1"/>
        <pt x="854" y="1341" on="0"/>
        <pt x="1127" y="541" on="0"/>
        <pt x="1173" y="350" on="0"/>
        <pt x="1256" y="78" on="0"/>
      </contour>
    </TTGlyph>
    <TTGlyph name="AE" xMin="135" yMin="35" xMax="1672" yMax="1378">
      <contour>
        <pt x="543" y="615" on="1"/>
        <pt x="543" y="613" on="1"/>
        <pt x="543" y="612" on="0"/>
        <pt x="552" y="612" on="0"/>
        <pt x="576" y="619" on="1"/>
        <pt x="611" y="629" on="1"/>
        <pt x="617" y="629" on="0"/>
        <pt x="713" y="592" on="0"/>
        <pt x="765" y="592" on="1"/>
        <pt x="792" y="591" on="1"/>
        <pt x="807" y="589" on="1"/>
        <pt x="817" y="589" on="0"/>
        <pt x="817" y="610" on="1"/>
        <pt x="811" y="656" on="1"/>
        <pt x="799" y="713" on="1"/>
        <pt x="799" y="763" on="0"/>
        <pt x="829" y="964" on="0"/>
        <pt x="832" y="994" on="1"/>
        <pt x="835" y="1024" on="1"/>
        <pt x="860" y="1154" on="1"/>
        <pt x="861" y="1160" on="1"/>
        <pt x="861" y="1168" on="0"/>
        <pt x="854" y="1168" on="1"/>
        <pt x="793" y="1168" on="0"/>
        <pt x="749" y="1094" on="1"/>
        <pt x="674" y="969" on="0"/>
        <pt x="674" y="873" on="1"/>
        <pt x="671" y="840" on="1"/>
        <pt x="671" y="794" on="0"/>
        <pt x="543" y="631" on="0"/>
      </contour>
      <contour>
        <pt x="1664" y="1334" on="0"/>
        <pt x="1664" y="1222" on="0"/>
        <pt x="1565" y="1188" on="0"/>
        <pt x="1219" y="1179" on="0"/>
        <pt x="1187" y="1160" on="1"/>
        <pt x="1139" y="1131" on="0"/>
        <pt x="1139" y="969" on="1"/>
        <pt x="1139" y="876" on="0"/>
        <pt x="1246" y="828" on="0"/>
        <pt x="1484" y="828" on="1"/>
        <pt x="1566" y="828" on="0"/>
        <pt x="1604" y="787" on="0"/>
        <pt x="1604" y="702" on="1"/>
        <pt x="1604" y="648" on="0"/>
        <pt x="1550" y="634" on="1"/>
        <pt x="1532" y="629" on="0"/>
        <pt x="1276" y="619" on="0"/>
        <pt x="1220" y="595" on="1"/>
        <pt x="1145" y="562" on="0"/>
        <pt x="1145" y="466" on="1"/>
        <pt x="1145" y="301" on="0"/>
        <pt x="1184" y="263" on="1"/>
        <pt x="1210" y="238" on="0"/>
        <pt x="1539" y="238" on="0"/>
        <pt x="1634" y="203" on="1"/>
        <pt x="1672" y="189" on="0"/>
        <pt x="1672" y="155" on="1"/>
        <pt x="1672" y="129" on="1"/>
        <pt x="1672" y="61" on="0"/>
        <pt x="1603" y="45" on="1"/>
        <pt x="1560" y="35" on="0"/>
        <pt x="1403" y="35" on="1"/>
        <pt x="1362" y="35" on="1"/>
        <pt x="1066" y="35" on="0"/>
        <pt x="946" y="114" on="1"/>
        <pt x="902" y="143" on="0"/>
        <pt x="857" y="352" on="0"/>
        <pt x="806" y="401" on="0"/>
        <pt x="744" y="401" on="1"/>
        <pt x="575" y="401" on="0"/>
        <pt x="504" y="345" on="1"/>
        <pt x="466" y="315" on="0"/>
        <pt x="347" y="121" on="0"/>
        <pt x="341" y="114" on="1"/>
        <pt x="286" y="51" on="0"/>
        <pt x="135" y="51" on="0"/>
        <pt x="135" y="86" on="1"/>
        <pt x="135" y="129" on="0"/>
        <pt x="170" y="224" on="1"/>
        <pt x="370" y="766" on="0"/>
        <pt x="412" y="862" on="1"/>
        <pt x="503" y="1073" on="0"/>
        <pt x="616" y="1225" on="1"/>
        <pt x="690" y="1324" on="0"/>
        <pt x="883" y="1372" on="0"/>
        <pt x="1128" y="1372" on="1"/>
        <pt x="1208" y="1374" on="1"/>
        <pt x="1288" y="1376" on="0"/>
        <pt x="1328" y="1376" on="1"/>
        <pt x="1408" y="1378" on="1"/>
        <pt x="1488" y="1378" on="1"/>
        <pt x="1598" y="1378" on="0"/>
      </contour>
    </TTGlyph>
    <TTGlyph name="Aacute" xMin="35" yMin="24" xMax="1244" yMax="1885">
      <contour>
        <pt x="813" y="619" on="1"/>
        <pt x="813" y="631" on="1"/>
        <pt x="813" y="654" on="0"/>
        <pt x="730" y="964" on="0"/>
        <pt x="639" y="1161" on="0"/>
        <pt x="637" y="1161" on="1"/>
        <pt x="628" y="1161" on="0"/>
        <pt x="605" y="1096" on="1"/>
        <pt x="452" y="668" on="0"/>
        <pt x="452" y="628" on="1"/>
        <pt x="452" y="622" on="1"/>
        <pt x="452" y="596" on="0"/>
        <pt x="527" y="596" on="1"/>
        <pt x="617" y="596" on="1"/>
        <pt x="625" y="597" on="1"/>
        <pt x="762" y="600" on="1"/>
        <pt x="770" y="601" on="0"/>
        <pt x="777" y="601" on="1"/>
        <pt x="813" y="601" on="0"/>
      </contour>
      <contour>
        <pt x="534" y="1551" on="1"/>
        <pt x="482" y="1551" on="0"/>
        <pt x="482" y="1594" on="1"/>
        <pt x="482" y="1605" on="1"/>
        <pt x="482" y="1660" on="0"/>
        <pt x="664" y="1822" on="1"/>
        <pt x="735" y="1885" on="0"/>
        <pt x="822" y="1885" on="1"/>
        <pt x="840" y="1885" on="1"/>
        <pt x="871" y="1885" on="0"/>
        <pt x="921" y="1842" on="0"/>
        <pt x="921" y="1831" on="1"/>
        <pt x="921" y="1814" on="1"/>
        <pt x="921" y="1755" on="0"/>
        <pt x="725" y="1618" on="1"/>
        <pt x="632" y="1553" on="0"/>
        <pt x="564" y="1553" on="1"/>
        <pt x="552" y="1551" on="1"/>
      </contour>
      <contour>
        <pt x="1244" y="79" on="1"/>
        <pt x="1244" y="24" on="0"/>
        <pt x="1152" y="24" on="1"/>
        <pt x="1128" y="24" on="1"/>
        <pt x="1036" y="24" on="0"/>
        <pt x="993" y="82" on="1"/>
        <pt x="969" y="115" on="0"/>
        <pt x="891" y="344" on="0"/>
        <pt x="840" y="384" on="0"/>
        <pt x="426" y="384" on="0"/>
        <pt x="397" y="359" on="1"/>
        <pt x="381" y="345" on="0"/>
        <pt x="296" y="100" on="0"/>
        <pt x="277" y="77" on="1"/>
        <pt x="235" y="24" on="0"/>
        <pt x="139" y="24" on="1"/>
        <pt x="114" y="24" on="1"/>
        <pt x="35" y="24" on="0"/>
        <pt x="35" y="66" on="1"/>
        <pt x="35" y="67" on="0"/>
        <pt x="335" y="1095" on="0"/>
        <pt x="470" y="1392" on="0"/>
        <pt x="538" y="1442" on="0"/>
        <pt x="649" y="1442" on="1"/>
        <pt x="675" y="1442" on="1"/>
        <pt x="751" y="1442" on="0"/>
        <pt x="827" y="1368" on="0"/>
        <pt x="894" y="1210" on="1"/>
        <pt x="904" y="1186" on="0"/>
        <pt x="1244" y="99" on="0"/>
      </contour>
    </TTGlyph>
    <TTGlyph name="Acircumflex" xMin="37" yMin="17" xMax="1249" yMax="1882">
      <contour>
        <pt x="458" y="615" on="1"/>
        <pt x="458" y="603" on="1"/>
        <pt x="458" y="580" on="0"/>
        <pt x="535" y="580" on="1"/>
        <pt x="738" y="580" on="1"/>
        <pt x="818" y="580" on="0"/>
        <pt x="818" y="601" on="1"/>
        <pt x="818" y="614" on="1"/>
        <pt x="818" y="664" on="0"/>
        <pt x="670" y="1078" on="1"/>
        <pt x="648" y="1139" on="0"/>
        <pt x="638" y="1139" on="1"/>
        <pt x="635" y="1139" on="0"/>
        <pt x="607" y="1074" on="1"/>
        <pt x="458" y="726" on="0"/>
      </contour>
      <contour>
        <pt x="967" y="1599" on="1"/>
        <pt x="967" y="1584" on="1"/>
        <pt x="967" y="1552" on="0"/>
        <pt x="872" y="1552" on="1"/>
        <pt x="810" y="1552" on="0"/>
        <pt x="717" y="1645" on="1"/>
        <pt x="691" y="1669" on="0"/>
        <pt x="651" y="1709" on="0"/>
        <pt x="646" y="1709" on="0"/>
        <pt x="541" y="1612" on="1"/>
        <pt x="473" y="1549" on="0"/>
        <pt x="325" y="1549" on="0"/>
        <pt x="325" y="1593" on="1"/>
        <pt x="325" y="1615" on="0"/>
        <pt x="347" y="1646" on="1"/>
        <pt x="422" y="1751" on="0"/>
        <pt x="519" y="1833" on="1"/>
        <pt x="577" y="1882" on="0"/>
        <pt x="719" y="1882" on="0"/>
        <pt x="764" y="1844" on="1"/>
        <pt x="967" y="1672" on="0"/>
      </contour>
      <contour>
        <pt x="1249" y="72" on="1"/>
        <pt x="1249" y="17" on="0"/>
        <pt x="1039" y="17" on="0"/>
        <pt x="997" y="74" on="1"/>
        <pt x="968" y="113" on="0"/>
        <pt x="897" y="336" on="0"/>
        <pt x="847" y="378" on="0"/>
        <pt x="430" y="378" on="0"/>
        <pt x="379" y="337" on="0"/>
        <pt x="304" y="105" on="0"/>
        <pt x="280" y="74" on="1"/>
        <pt x="237" y="18" on="0"/>
        <pt x="37" y="18" on="0"/>
        <pt x="37" y="57" on="1"/>
        <pt x="37" y="59" on="0"/>
        <pt x="334" y="1078" on="0"/>
        <pt x="471" y="1379" on="0"/>
        <pt x="538" y="1434" on="0"/>
        <pt x="752" y="1434" on="0"/>
        <pt x="825" y="1364" on="0"/>
        <pt x="885" y="1224" on="1"/>
        <pt x="895" y="1200" on="0"/>
        <pt x="1249" y="92" on="0"/>
      </contour>
    </TTGlyph>
    <TTGlyph name="Adieresis" xMin="30" yMin="19" xMax="1239" yMax="1812">
      <contour>
        <pt x="446" y="622" on="1"/>
        <pt x="446" y="610" on="1"/>
        <pt x="446" y="591" on="0"/>
        <pt x="529" y="591" on="1"/>
        <pt x="717" y="591" on="1"/>
        <pt x="805" y="591" on="0"/>
        <pt x="805" y="613" on="1"/>
        <pt x="805" y="625" on="1"/>
        <pt x="805" y="641" on="0"/>
        <pt x="722" y="951" on="0"/>
        <pt x="628" y="1155" on="0"/>
        <pt x="623" y="1155" on="0"/>
        <pt x="595" y="1090" on="1"/>
        <pt x="446" y="742" on="0"/>
      </contour>
      <contour>
        <pt x="312" y="1671" on="1"/>
        <pt x="312" y="1706" on="1"/>
        <pt x="312" y="1770" on="0"/>
        <pt x="330" y="1788" on="1"/>
        <pt x="350" y="1808" on="0"/>
        <pt x="392" y="1808" on="1"/>
        <pt x="439" y="1812" on="1"/>
        <pt x="444" y="1812" on="1"/>
        <pt x="448" y="1811" on="1"/>
        <pt x="490" y="1808" on="1"/>
        <pt x="502" y="1805" on="0"/>
        <pt x="506" y="1805" on="1"/>
        <pt x="552" y="1805" on="0"/>
        <pt x="552" y="1748" on="1"/>
        <pt x="555" y="1735" on="1"/>
        <pt x="557" y="1708" on="1"/>
        <pt x="557" y="1699" on="1"/>
        <pt x="558" y="1686" on="1"/>
        <pt x="557" y="1682" on="1"/>
        <pt x="557" y="1673" on="1"/>
        <pt x="554" y="1642" on="1"/>
        <pt x="553" y="1637" on="0"/>
        <pt x="553" y="1634" on="1"/>
        <pt x="553" y="1575" on="0"/>
        <pt x="498" y="1575" on="1"/>
        <pt x="478" y="1570" on="0"/>
        <pt x="469" y="1570" on="1"/>
        <pt x="448" y="1568" on="1"/>
        <pt x="408" y="1568" on="1"/>
        <pt x="359" y="1575" on="1"/>
        <pt x="312" y="1575" on="0"/>
      </contour>
      <contour>
        <pt x="959" y="1692" on="1"/>
        <pt x="959" y="1665" on="1"/>
        <pt x="958" y="1661" on="1"/>
        <pt x="958" y="1647" on="1"/>
        <pt x="955" y="1627" on="0"/>
        <pt x="955" y="1625" on="1"/>
        <pt x="955" y="1562" on="0"/>
        <pt x="896" y="1562" on="1"/>
        <pt x="880" y="1558" on="0"/>
        <pt x="876" y="1558" on="1"/>
        <pt x="850" y="1556" on="1"/>
        <pt x="815" y="1556" on="1"/>
        <pt x="760" y="1556" on="0"/>
        <pt x="721" y="1588" on="0"/>
        <pt x="721" y="1625" on="1"/>
        <pt x="720" y="1629" on="1"/>
        <pt x="719" y="1634" on="1"/>
        <pt x="716" y="1674" on="1"/>
        <pt x="716" y="1687" on="1"/>
        <pt x="717" y="1692" on="1"/>
        <pt x="720" y="1727" on="1"/>
        <pt x="721" y="1732" on="0"/>
        <pt x="721" y="1736" on="1"/>
        <pt x="721" y="1795" on="0"/>
        <pt x="779" y="1795" on="1"/>
        <pt x="795" y="1799" on="0"/>
        <pt x="799" y="1799" on="1"/>
        <pt x="825" y="1801" on="1"/>
        <pt x="864" y="1801" on="1"/>
        <pt x="897" y="1797" on="1"/>
        <pt x="959" y="1797" on="0"/>
      </contour>
      <contour>
        <pt x="1239" y="74" on="1"/>
        <pt x="1239" y="19" on="0"/>
        <pt x="1032" y="19" on="0"/>
        <pt x="989" y="77" on="1"/>
        <pt x="963" y="112" on="0"/>
        <pt x="885" y="340" on="0"/>
        <pt x="833" y="379" on="0"/>
        <pt x="421" y="379" on="0"/>
        <pt x="392" y="354" on="1"/>
        <pt x="376" y="340" on="0"/>
        <pt x="290" y="95" on="0"/>
        <pt x="273" y="73" on="1"/>
        <pt x="230" y="19" on="0"/>
        <pt x="110" y="19" on="1"/>
        <pt x="30" y="19" on="0"/>
        <pt x="30" y="61" on="1"/>
        <pt x="30" y="84" on="0"/>
        <pt x="376" y="1192" on="0"/>
        <pt x="398" y="1240" on="1"/>
        <pt x="465" y="1387" on="0"/>
        <pt x="533" y="1437" on="0"/>
        <pt x="644" y="1437" on="1"/>
        <pt x="670" y="1437" on="1"/>
        <pt x="746" y="1437" on="0"/>
        <pt x="820" y="1367" on="0"/>
        <pt x="955" y="1049" on="0"/>
        <pt x="1239" y="75" on="0"/>
      </contour>
    </TTGlyph>
    <TTGlyph name="Agrave" xMin="37" yMin="20" xMax="1249" yMax="1891">
      <contour>
        <pt x="458" y="618" on="1"/>
        <pt x="458" y="606" on="1"/>
        <pt x="458" y="583" on="0"/>
        <pt x="535" y="583" on="1"/>
        <pt x="738" y="583" on="1"/>
        <pt x="818" y="583" on="0"/>
        <pt x="818" y="604" on="1"/>
        <pt x="818" y="617" on="1"/>
        <pt x="818" y="667" on="0"/>
        <pt x="670" y="1081" on="1"/>
        <pt x="648" y="1142" on="0"/>
        <pt x="638" y="1142" on="1"/>
        <pt x="635" y="1142" on="0"/>
        <pt x="607" y="1077" on="1"/>
        <pt x="458" y="729" on="0"/>
      </contour>
      <contour>
        <pt x="372" y="1816" on="1"/>
        <pt x="372" y="1833" on="1"/>
        <pt x="372" y="1845" on="0"/>
        <pt x="424" y="1891" on="0"/>
        <pt x="460" y="1891" on="1"/>
        <pt x="465" y="1890" on="1"/>
        <pt x="471" y="1890" on="1"/>
        <pt x="558" y="1890" on="0"/>
        <pt x="638" y="1828" on="1"/>
        <pt x="813" y="1692" on="0"/>
        <pt x="813" y="1605" on="1"/>
        <pt x="813" y="1553" on="0"/>
        <pt x="760" y="1553" on="1"/>
        <pt x="743" y="1553" on="1"/>
        <pt x="656" y="1553" on="0"/>
        <pt x="556" y="1623" on="1"/>
        <pt x="372" y="1752" on="0"/>
      </contour>
      <contour>
        <pt x="1249" y="75" on="1"/>
        <pt x="1249" y="20" on="0"/>
        <pt x="1039" y="20" on="0"/>
        <pt x="997" y="77" on="1"/>
        <pt x="968" y="116" on="0"/>
        <pt x="897" y="339" on="0"/>
        <pt x="847" y="381" on="0"/>
        <pt x="430" y="381" on="0"/>
        <pt x="379" y="340" on="0"/>
        <pt x="304" y="108" on="0"/>
        <pt x="280" y="77" on="1"/>
        <pt x="237" y="21" on="0"/>
        <pt x="37" y="21" on="0"/>
        <pt x="37" y="60" on="1"/>
        <pt x="37" y="62" on="0"/>
        <pt x="334" y="1081" on="0"/>
        <pt x="471" y="1382" on="0"/>
        <pt x="538" y="1437" on="0"/>
        <pt x="752" y="1437" on="0"/>
        <pt x="825" y="1367" on="0"/>
        <pt x="885" y="1227" on="1"/>
        <pt x="895" y="1203" on="0"/>
        <pt x="1249" y="95" on="0"/>
      </contour>
    </TTGlyph>
    <TTGlyph name="Aring" xMin="47" yMin="69" xMax="1285" yMax="2016">
      <contour>
        <pt x="565" y="1806" on="1"/>
        <pt x="565" y="1799" on="1"/>
        <pt x="570" y="1767" on="1"/>
        <pt x="570" y="1707" on="0"/>
        <pt x="636" y="1707" on="1"/>
        <pt x="655" y="1704" on="1"/>
        <pt x="679" y="1704" on="1"/>
        <pt x="704" y="1704" on="0"/>
        <pt x="756" y="1745" on="0"/>
        <pt x="756" y="1771" on="1"/>
        <pt x="758" y="1777" on="0"/>
        <pt x="758" y="1780" on="1"/>
        <pt x="760" y="1797" on="1"/>
        <pt x="760" y="1807" on="1"/>
        <pt x="760" y="1840" on="0"/>
        <pt x="716" y="1895" on="0"/>
        <pt x="692" y="1895" on="1"/>
        <pt x="686" y="1897" on="0"/>
        <pt x="683" y="1897" on="1"/>
        <pt x="670" y="1899" on="1"/>
        <pt x="650" y="1899" on="1"/>
        <pt x="628" y="1895" on="1"/>
        <pt x="612" y="1895" on="0"/>
        <pt x="565" y="1848" on="0"/>
      </contour>
      <contour>
        <pt x="793" y="644" on="0"/>
        <pt x="853" y="644" on="0"/>
        <pt x="853" y="663" on="1"/>
        <pt x="853" y="676" on="1"/>
        <pt x="849" y="704" on="0"/>
        <pt x="849" y="717" on="0"/>
        <pt x="841" y="745" on="0"/>
        <pt x="831" y="786" on="0"/>
        <pt x="824" y="811" on="0"/>
        <pt x="817" y="840" on="1"/>
        <pt x="784" y="980" on="0"/>
        <pt x="669" y="1209" on="0"/>
        <pt x="667" y="1209" on="1"/>
        <pt x="663" y="1209" on="1"/>
        <pt x="662" y="1209" on="0"/>
        <pt x="563" y="1024" on="0"/>
        <pt x="547" y="974" on="1"/>
        <pt x="474" y="740" on="0"/>
        <pt x="474" y="675" on="1"/>
        <pt x="474" y="669" on="1"/>
        <pt x="474" y="643" on="0"/>
        <pt x="534" y="643" on="1"/>
        <pt x="550" y="641" on="1"/>
        <pt x="574" y="640" on="1"/>
        <pt x="761" y="640" on="1"/>
      </contour>
      <contour>
        <pt x="700" y="2014" on="1"/>
        <pt x="773" y="2014" on="0"/>
        <pt x="885" y="1890" on="0"/>
        <pt x="885" y="1816" on="1"/>
        <pt x="885" y="1787" on="1"/>
        <pt x="885" y="1703" on="0"/>
        <pt x="759" y="1588" on="0"/>
        <pt x="662" y="1588" on="1"/>
        <pt x="655" y="1589" on="1"/>
        <pt x="566" y="1589" on="0"/>
        <pt x="441" y="1701" on="0"/>
        <pt x="441" y="1781" on="1"/>
        <pt x="441" y="1824" on="1"/>
        <pt x="441" y="1903" on="0"/>
        <pt x="565" y="2014" on="0"/>
        <pt x="634" y="2014" on="1"/>
        <pt x="649" y="2016" on="1"/>
        <pt x="678" y="2016" on="1"/>
        <pt x="692" y="2014" on="0"/>
      </contour>
      <contour>
        <pt x="1285" y="107" on="1"/>
        <pt x="1285" y="69" on="0"/>
        <pt x="1079" y="69" on="0"/>
        <pt x="1033" y="127" on="1"/>
        <pt x="1007" y="160" on="0"/>
        <pt x="927" y="395" on="0"/>
        <pt x="909" y="410" on="1"/>
        <pt x="877" y="437" on="0"/>
        <pt x="464" y="437" on="0"/>
        <pt x="400" y="397" on="0"/>
        <pt x="318" y="156" on="0"/>
        <pt x="243" y="70" on="0"/>
        <pt x="47" y="70" on="0"/>
        <pt x="47" y="122" on="1"/>
        <pt x="47" y="148" on="0"/>
        <pt x="375" y="1243" on="0"/>
        <pt x="404" y="1307" on="1"/>
        <pt x="459" y="1431" on="0"/>
        <pt x="520" y="1478" on="1"/>
        <pt x="552" y="1503" on="0"/>
        <pt x="690" y="1503" on="1"/>
        <pt x="716" y="1502" on="1"/>
        <pt x="786" y="1502" on="0"/>
        <pt x="823" y="1467" on="1"/>
        <pt x="884" y="1410" on="0"/>
        <pt x="1006" y="1115" on="0"/>
        <pt x="1285" y="137" on="0"/>
      </contour>
    </TTGlyph>
    <TTGlyph name="Atilde" xMin="40" yMin="20" xMax="1259" yMax="1831">
      <contour>
        <pt x="831" y="614" on="1"/>
        <pt x="831" y="633" on="1"/>
        <pt x="830" y="668" on="0"/>
        <pt x="654" y="1164" on="0"/>
        <pt x="644" y="1164" on="0"/>
        <pt x="590" y="1046" on="1"/>
        <pt x="536" y="929" on="0"/>
        <pt x="462" y="633" on="0"/>
        <pt x="462" y="629" on="1"/>
        <pt x="462" y="623" on="1"/>
        <pt x="462" y="594" on="0"/>
        <pt x="620" y="594" on="1"/>
        <pt x="746" y="594" on="1"/>
        <pt x="831" y="594" on="0"/>
      </contour>
      <contour>
        <pt x="1009" y="1747" on="1"/>
        <pt x="1009" y="1729" on="1"/>
        <pt x="1009" y="1661" on="0"/>
        <pt x="904" y="1564" on="0"/>
        <pt x="828" y="1564" on="1"/>
        <pt x="819" y="1564" on="1"/>
        <pt x="773" y="1564" on="0"/>
        <pt x="539" y="1655" on="0"/>
        <pt x="477" y="1655" on="0"/>
        <pt x="390" y="1587" on="0"/>
        <pt x="290" y="1587" on="0"/>
        <pt x="290" y="1645" on="1"/>
        <pt x="290" y="1654" on="1"/>
        <pt x="290" y="1734" on="0"/>
        <pt x="403" y="1831" on="0"/>
        <pt x="471" y="1831" on="1"/>
        <pt x="480" y="1830" on="1"/>
        <pt x="489" y="1830" on="1"/>
        <pt x="535" y="1830" on="0"/>
        <pt x="761" y="1742" on="0"/>
        <pt x="826" y="1742" on="0"/>
        <pt x="909" y="1806" on="0"/>
        <pt x="1009" y="1806" on="0"/>
      </contour>
      <contour>
        <pt x="1259" y="73" on="1"/>
        <pt x="1259" y="20" on="0"/>
        <pt x="1165" y="20" on="1"/>
        <pt x="1141" y="20" on="1"/>
        <pt x="1051" y="20" on="0"/>
        <pt x="1007" y="79" on="1"/>
        <pt x="979" y="116" on="0"/>
        <pt x="903" y="342" on="0"/>
        <pt x="850" y="380" on="0"/>
        <pt x="436" y="380" on="0"/>
        <pt x="386" y="340" on="0"/>
        <pt x="306" y="103" on="0"/>
        <pt x="283" y="75" on="1"/>
        <pt x="239" y="20" on="0"/>
        <pt x="121" y="20" on="1"/>
        <pt x="40" y="20" on="0"/>
        <pt x="40" y="61" on="1"/>
        <pt x="40" y="77" on="0"/>
        <pt x="370" y="1155" on="0"/>
        <pt x="477" y="1391" on="0"/>
        <pt x="550" y="1443" on="0"/>
        <pt x="660" y="1443" on="1"/>
        <pt x="685" y="1442" on="1"/>
        <pt x="710" y="1442" on="1"/>
        <pt x="762" y="1442" on="0"/>
        <pt x="833" y="1373" on="0"/>
        <pt x="932" y="1155" on="0"/>
        <pt x="1259" y="88" on="0"/>
      </contour>
    </TTGlyph>
    <TTGlyph name="B" xMin="128" yMin="-2" xMax="1152" yMax="1427">
      <contour>
        <pt x="451" y="840" on="1"/>
        <pt x="581" y="840" on="1"/>
        <pt x="836" y="840" on="0"/>
        <pt x="836" y="1019" on="1"/>
        <pt x="836" y="1052" on="1"/>
        <pt x="836" y="1223" on="0"/>
        <pt x="592" y="1223" on="1"/>
        <pt x="515" y="1223" on="1"/>
        <pt x="428" y="1223" on="0"/>
        <pt x="390" y="1206" on="0"/>
        <pt x="390" y="1156" on="1"/>
        <pt x="388" y="1135" on="1"/>
        <pt x="388" y="938" on="1"/>
        <pt x="392" y="895" on="1"/>
        <pt x="392" y="840" on="0"/>
      </contour>
      <contour>
        <pt x="489" y="204" on="1"/>
        <pt x="629" y="204" on="1"/>
        <pt x="763" y="204" on="0"/>
        <pt x="892" y="311" on="0"/>
        <pt x="892" y="404" on="1"/>
        <pt x="892" y="441" on="1"/>
        <pt x="892" y="530" on="0"/>
        <pt x="772" y="640" on="0"/>
        <pt x="684" y="640" on="1"/>
        <pt x="666" y="642" on="0"/>
        <pt x="656" y="642" on="1"/>
        <pt x="611" y="644" on="1"/>
        <pt x="491" y="644" on="1"/>
        <pt x="393" y="644" on="0"/>
        <pt x="393" y="593" on="1"/>
        <pt x="391" y="577" on="0"/>
        <pt x="391" y="569" on="1"/>
        <pt x="389" y="553" on="1"/>
        <pt x="388" y="528" on="1"/>
        <pt x="388" y="312" on="1"/>
        <pt x="392" y="263" on="1"/>
        <pt x="392" y="226" on="0"/>
        <pt x="424" y="204" on="0"/>
      </contour>
      <contour>
        <pt x="1152" y="400" on="1"/>
        <pt x="1152" y="-2" on="0"/>
        <pt x="615" y="-2" on="1"/>
        <pt x="302" y="-2" on="1"/>
        <pt x="152" y="-2" on="0"/>
        <pt x="138" y="53" on="1"/>
        <pt x="131" y="80" on="0"/>
        <pt x="131" y="477" on="1"/>
        <pt x="131" y="1086" on="1"/>
        <pt x="130" y="1157" on="1"/>
        <pt x="130" y="1228" on="1"/>
        <pt x="128" y="1297" on="1"/>
        <pt x="128" y="1398" on="0"/>
        <pt x="181" y="1415" on="1"/>
        <pt x="218" y="1427" on="0"/>
        <pt x="459" y="1427" on="1"/>
        <pt x="604" y="1427" on="1"/>
        <pt x="1090" y="1427" on="0"/>
        <pt x="1090" y="1061" on="1"/>
        <pt x="1090" y="906" on="0"/>
        <pt x="976" y="806" on="1"/>
        <pt x="928" y="764" on="0"/>
        <pt x="928" y="751" on="0"/>
        <pt x="995" y="714" on="0"/>
        <pt x="1067" y="658" on="0"/>
        <pt x="1152" y="518" on="0"/>
      </contour>
    </TTGlyph>
    <TTGlyph name="C" xMin="104" yMin="-16" xMax="1171" yMax="1424">
      <contour>
        <pt x="370" y="658" on="1"/>
        <pt x="370" y="554" on="0"/>
        <pt x="394" y="462" on="1"/>
        <pt x="461" y="206" on="0"/>
        <pt x="727" y="206" on="1"/>
        <pt x="818" y="206" on="0"/>
        <pt x="1042" y="295" on="0"/>
        <pt x="1125" y="295" on="0"/>
        <pt x="1171" y="241" on="0"/>
        <pt x="1171" y="206" on="1"/>
        <pt x="1171" y="127" on="0"/>
        <pt x="1010" y="48" on="1"/>
        <pt x="879" y="-16" on="0"/>
        <pt x="719" y="-16" on="1"/>
        <pt x="688" y="-16" on="1"/>
        <pt x="539" y="-16" on="0"/>
        <pt x="424" y="37" on="1"/>
        <pt x="205" y="138" on="0"/>
        <pt x="143" y="367" on="1"/>
        <pt x="104" y="512" on="0"/>
        <pt x="104" y="688" on="1"/>
        <pt x="104" y="1042" on="0"/>
        <pt x="257" y="1228" on="1"/>
        <pt x="326" y="1312" on="0"/>
        <pt x="583" y="1424" on="0"/>
        <pt x="705" y="1424" on="1"/>
        <pt x="735" y="1424" on="1"/>
        <pt x="900" y="1424" on="0"/>
        <pt x="1088" y="1332" on="0"/>
        <pt x="1133" y="1272" on="1"/>
        <pt x="1150" y="1249" on="0"/>
        <pt x="1150" y="1151" on="0"/>
        <pt x="1092" y="1093" on="0"/>
        <pt x="1007" y="1093" on="0"/>
        <pt x="757" y="1190" on="0"/>
        <pt x="597" y="1190" on="0"/>
        <pt x="470" y="1120" on="0"/>
        <pt x="437" y="1065" on="1"/>
        <pt x="370" y="955" on="0"/>
      </contour>
    </TTGlyph>
    <TTGlyph name="Ccedilla" xMin="77" yMin="-474" xMax="1178" yMax="1460">
      <contour>
        <pt x="383" y="908" on="0"/>
        <pt x="383" y="443" on="0"/>
        <pt x="465" y="307" on="1"/>
        <pt x="483" y="278" on="0"/>
        <pt x="590" y="213" on="0"/>
        <pt x="698" y="213" on="0"/>
        <pt x="1017" y="354" on="0"/>
        <pt x="1098" y="354" on="1"/>
        <pt x="1150" y="354" on="0"/>
        <pt x="1171" y="309" on="1"/>
        <pt x="1178" y="294" on="0"/>
        <pt x="1178" y="244" on="1"/>
        <pt x="1178" y="139" on="0"/>
        <pt x="866" y="-41" on="0"/>
        <pt x="721" y="-41" on="1"/>
        <pt x="689" y="-41" on="1"/>
        <pt x="547" y="-41" on="0"/>
        <pt x="388" y="37" on="1"/>
        <pt x="299" y="81" on="0"/>
        <pt x="152" y="260" on="0"/>
        <pt x="126" y="347" on="1"/>
        <pt x="77" y="513" on="0"/>
        <pt x="77" y="666" on="1"/>
        <pt x="77" y="736" on="1"/>
        <pt x="77" y="1102" on="0"/>
        <pt x="234" y="1274" on="1"/>
        <pt x="320" y="1369" on="0"/>
        <pt x="553" y="1460" on="0"/>
        <pt x="677" y="1460" on="1"/>
        <pt x="709" y="1460" on="1"/>
        <pt x="892" y="1460" on="0"/>
        <pt x="1104" y="1328" on="0"/>
        <pt x="1170" y="1254" on="0"/>
        <pt x="1170" y="1132" on="0"/>
        <pt x="1134" y="1085" on="0"/>
        <pt x="1023" y="1085" on="0"/>
        <pt x="736" y="1201" on="0"/>
        <pt x="585" y="1201" on="0"/>
        <pt x="545" y="1178" on="1"/>
        <pt x="453" y="1125" on="0"/>
        <pt x="423" y="1032" on="1"/>
      </contour>
      <contour>
        <pt x="644" y="-474" on="1"/>
        <pt x="609" y="-474" on="1"/>
        <pt x="493" y="-474" on="0"/>
        <pt x="493" y="-392" on="1"/>
        <pt x="493" y="-386" on="1"/>
        <pt x="493" y="-345" on="0"/>
        <pt x="625" y="-345" on="1"/>
        <pt x="678" y="-345" on="0"/>
        <pt x="678" y="-295" on="1"/>
        <pt x="678" y="-252" on="0"/>
        <pt x="590" y="-182" on="0"/>
        <pt x="590" y="-95" on="0"/>
        <pt x="619" y="-63" on="1"/>
        <pt x="632" y="-49" on="0"/>
        <pt x="677" y="-49" on="1"/>
        <pt x="694" y="-48" on="1"/>
        <pt x="743" y="-48" on="0"/>
        <pt x="835" y="-175" on="1"/>
        <pt x="863" y="-214" on="0"/>
        <pt x="863" y="-264" on="1"/>
        <pt x="863" y="-289" on="1"/>
        <pt x="863" y="-365" on="0"/>
        <pt x="815" y="-409" on="1"/>
        <pt x="744" y="-474" on="0"/>
      </contour>
    </TTGlyph>
    <TTGlyph name="D" xMin="130" yMin="-6" xMax="1237" yMax="1424">
      <contour>
        <pt x="974" y="683" on="1"/>
        <pt x="974" y="731" on="1"/>
        <pt x="974" y="987" on="0"/>
        <pt x="787" y="1216" on="0"/>
        <pt x="594" y="1216" on="1"/>
        <pt x="520" y="1216" on="1"/>
        <pt x="436" y="1216" on="0"/>
        <pt x="392" y="1189" on="0"/>
        <pt x="392" y="1124" on="1"/>
        <pt x="390" y="1097" on="1"/>
        <pt x="388" y="1070" on="0"/>
        <pt x="388" y="1041" on="1"/>
        <pt x="388" y="691" on="1"/>
        <pt x="388" y="283" on="0"/>
        <pt x="397" y="249" on="1"/>
        <pt x="409" y="202" on="0"/>
        <pt x="542" y="202" on="1"/>
        <pt x="556" y="203" on="1"/>
        <pt x="679" y="204" on="0"/>
        <pt x="753" y="230" on="1"/>
        <pt x="898" y="282" on="0"/>
        <pt x="942" y="450" on="1"/>
        <pt x="974" y="573" on="0"/>
      </contour>
      <contour>
        <pt x="1237" y="742" on="1"/>
        <pt x="1237" y="692" on="1"/>
        <pt x="1237" y="330" on="0"/>
        <pt x="911" y="-6" on="0"/>
        <pt x="554" y="-6" on="1"/>
        <pt x="415" y="-6" on="1"/>
        <pt x="165" y="-6" on="0"/>
        <pt x="145" y="30" on="1"/>
        <pt x="132" y="54" on="0"/>
        <pt x="132" y="466" on="1"/>
        <pt x="132" y="1140" on="1"/>
        <pt x="131" y="1163" on="1"/>
        <pt x="131" y="1208" on="1"/>
        <pt x="130" y="1298" on="1"/>
        <pt x="130" y="1321" on="1"/>
        <pt x="130" y="1396" on="0"/>
        <pt x="181" y="1413" on="1"/>
        <pt x="215" y="1424" on="0"/>
        <pt x="426" y="1424" on="1"/>
        <pt x="590" y="1424" on="1"/>
        <pt x="1073" y="1424" on="0"/>
        <pt x="1190" y="1061" on="1"/>
        <pt x="1237" y="917" on="0"/>
      </contour>
    </TTGlyph>
    <TTGlyph name="E" xMin="145" yMin="-8" xMax="1041" yMax="1410">
      <contour>
        <pt x="1028" y="1309" on="1"/>
        <pt x="1028" y="1192" on="0"/>
        <pt x="860" y="1192" on="1"/>
        <pt x="801" y="1194" on="1"/>
        <pt x="740" y="1192" on="1"/>
        <pt x="644" y="1192" on="1"/>
        <pt x="496" y="1192" on="0"/>
        <pt x="466" y="1167" on="1"/>
        <pt x="420" y="1128" on="0"/>
        <pt x="420" y="930" on="1"/>
        <pt x="420" y="871" on="0"/>
        <pt x="518" y="836" on="0"/>
        <pt x="887" y="836" on="0"/>
        <pt x="928" y="802" on="0"/>
        <pt x="928" y="658" on="0"/>
        <pt x="881" y="643" on="1"/>
        <pt x="857" y="635" on="0"/>
        <pt x="486" y="635" on="0"/>
        <pt x="399" y="568" on="0"/>
        <pt x="399" y="260" on="0"/>
        <pt x="500" y="202" on="0"/>
        <pt x="944" y="202" on="0"/>
        <pt x="1041" y="160" on="0"/>
        <pt x="1041" y="87" on="1"/>
        <pt x="1041" y="25" on="0"/>
        <pt x="958" y="11" on="1"/>
        <pt x="846" y="-8" on="0"/>
        <pt x="579" y="-8" on="1"/>
        <pt x="473" y="-8" on="1"/>
        <pt x="258" y="-8" on="0"/>
        <pt x="207" y="21" on="1"/>
        <pt x="145" y="56" on="0"/>
        <pt x="145" y="257" on="1"/>
        <pt x="145" y="435" on="1"/>
        <pt x="145" y="608" on="0"/>
        <pt x="171" y="972" on="0"/>
        <pt x="171" y="1331" on="0"/>
        <pt x="209" y="1365" on="1"/>
        <pt x="259" y="1410" on="0"/>
        <pt x="455" y="1410" on="1"/>
        <pt x="657" y="1410" on="1"/>
        <pt x="690" y="1409" on="1"/>
        <pt x="821" y="1410" on="1"/>
        <pt x="938" y="1410" on="0"/>
        <pt x="1028" y="1370" on="0"/>
      </contour>
    </TTGlyph>
    <TTGlyph name="Eacute" xMin="151" yMin="61" xMax="1030" yMax="1853">
      <contour>
        <pt x="522" y="1488" on="1"/>
        <pt x="508" y="1488" on="1"/>
        <pt x="487" y="1488" on="0"/>
        <pt x="439" y="1530" on="0"/>
        <pt x="439" y="1553" on="1"/>
        <pt x="439" y="1579" on="1"/>
        <pt x="439" y="1629" on="0"/>
        <pt x="630" y="1793" on="1"/>
        <pt x="698" y="1851" on="0"/>
        <pt x="763" y="1851" on="1"/>
        <pt x="777" y="1853" on="1"/>
        <pt x="784" y="1853" on="1"/>
        <pt x="866" y="1853" on="0"/>
        <pt x="866" y="1815" on="1"/>
        <pt x="866" y="1810" on="1"/>
        <pt x="866" y="1746" on="0"/>
        <pt x="628" y="1534" on="1"/>
        <pt x="576" y="1488" on="0"/>
      </contour>
      <contour>
        <pt x="1030" y="225" on="0"/>
        <pt x="1030" y="113" on="0"/>
        <pt x="984" y="61" on="0"/>
        <pt x="908" y="61" on="1"/>
        <pt x="397" y="61" on="1"/>
        <pt x="227" y="61" on="0"/>
        <pt x="151" y="135" on="0"/>
        <pt x="151" y="233" on="1"/>
        <pt x="151" y="401" on="1"/>
        <pt x="152" y="435" on="1"/>
        <pt x="152" y="606" on="1"/>
        <pt x="153" y="640" on="1"/>
        <pt x="153" y="744" on="0"/>
        <pt x="153" y="847" on="1"/>
        <pt x="154" y="916" on="1"/>
        <pt x="154" y="1120" on="1"/>
        <pt x="154" y="1155" on="0"/>
        <pt x="153" y="1188" on="1"/>
        <pt x="151" y="1254" on="1"/>
        <pt x="151" y="1386" on="0"/>
        <pt x="261" y="1433" on="0"/>
        <pt x="694" y="1433" on="1"/>
        <pt x="900" y="1434" on="1"/>
        <pt x="968" y="1434" on="0"/>
        <pt x="989" y="1420" on="1"/>
        <pt x="1025" y="1396" on="0"/>
        <pt x="1025" y="1264" on="0"/>
        <pt x="954" y="1245" on="1"/>
        <pt x="899" y="1230" on="0"/>
        <pt x="469" y="1230" on="0"/>
        <pt x="421" y="1167" on="0"/>
        <pt x="421" y="1017" on="1"/>
        <pt x="421" y="917" on="0"/>
        <pt x="531" y="872" on="0"/>
        <pt x="895" y="872" on="0"/>
        <pt x="936" y="844" on="0"/>
        <pt x="936" y="748" on="1"/>
        <pt x="936" y="692" on="0"/>
        <pt x="901" y="675" on="1"/>
        <pt x="880" y="665" on="0"/>
        <pt x="497" y="665" on="0"/>
        <pt x="416" y="611" on="0"/>
        <pt x="416" y="319" on="0"/>
        <pt x="441" y="298" on="1"/>
        <pt x="477" y="268" on="0"/>
        <pt x="648" y="268" on="1"/>
        <pt x="845" y="264" on="1"/>
        <pt x="950" y="264" on="0"/>
      </contour>
    </TTGlyph>
    <TTGlyph name="Ecircumflex" xMin="136" yMin="3" xMax="1046" yMax="1871">
      <contour>
        <pt x="592" y="1871" on="1"/>
        <pt x="609" y="1871" on="1"/>
        <pt x="673" y="1871" on="0"/>
        <pt x="718" y="1829" on="1"/>
        <pt x="916" y="1646" on="0"/>
        <pt x="916" y="1583" on="1"/>
        <pt x="916" y="1576" on="1"/>
        <pt x="916" y="1542" on="0"/>
        <pt x="824" y="1542" on="1"/>
        <pt x="757" y="1542" on="0"/>
        <pt x="654" y="1645" on="1"/>
        <pt x="601" y="1698" on="0"/>
        <pt x="599" y="1698" on="1"/>
        <pt x="586" y="1698" on="0"/>
        <pt x="428" y="1540" on="0"/>
        <pt x="366" y="1540" on="1"/>
        <pt x="349" y="1540" on="1"/>
        <pt x="275" y="1540" on="0"/>
        <pt x="275" y="1574" on="1"/>
        <pt x="275" y="1589" on="1"/>
        <pt x="275" y="1644" on="0"/>
        <pt x="467" y="1821" on="1"/>
        <pt x="521" y="1871" on="0"/>
      </contour>
      <contour>
        <pt x="1046" y="117" on="1"/>
        <pt x="1046" y="89" on="1"/>
        <pt x="1046" y="45" on="0"/>
        <pt x="981" y="3" on="0"/>
        <pt x="889" y="3" on="1"/>
        <pt x="397" y="3" on="1"/>
        <pt x="261" y="3" on="0"/>
        <pt x="204" y="25" on="1"/>
        <pt x="172" y="38" on="0"/>
        <pt x="140" y="126" on="0"/>
        <pt x="140" y="468" on="1"/>
        <pt x="140" y="1023" on="1"/>
        <pt x="139" y="1093" on="1"/>
        <pt x="139" y="1129" on="0"/>
        <pt x="138" y="1163" on="1"/>
        <pt x="136" y="1231" on="1"/>
        <pt x="136" y="1368" on="0"/>
        <pt x="232" y="1417" on="0"/>
        <pt x="657" y="1417" on="1"/>
        <pt x="904" y="1418" on="1"/>
        <pt x="990" y="1418" on="0"/>
        <pt x="1035" y="1366" on="0"/>
        <pt x="1035" y="1245" on="0"/>
        <pt x="964" y="1221" on="1"/>
        <pt x="916" y="1205" on="0"/>
        <pt x="456" y="1205" on="0"/>
        <pt x="403" y="1142" on="0"/>
        <pt x="403" y="883" on="0"/>
        <pt x="506" y="837" on="0"/>
        <pt x="896" y="837" on="0"/>
        <pt x="941" y="813" on="0"/>
        <pt x="941" y="651" on="0"/>
        <pt x="909" y="634" on="1"/>
        <pt x="890" y="624" on="0"/>
        <pt x="492" y="624" on="0"/>
        <pt x="404" y="574" on="0"/>
        <pt x="404" y="271" on="0"/>
        <pt x="428" y="250" on="1"/>
        <pt x="464" y="218" on="0"/>
        <pt x="642" y="218" on="1"/>
        <pt x="848" y="215" on="1"/>
        <pt x="963" y="215" on="0"/>
        <pt x="1046" y="175" on="0"/>
      </contour>
    </TTGlyph>
    <TTGlyph name="Edieresis" xMin="135" yMin="8" xMax="1045" yMax="1804">
      <contour>
        <pt x="506" y="1625" on="1"/>
        <pt x="506" y="1563" on="0"/>
        <pt x="435" y="1563" on="1"/>
        <pt x="427" y="1561" on="0"/>
        <pt x="422" y="1561" on="1"/>
        <pt x="401" y="1559" on="1"/>
        <pt x="361" y="1559" on="1"/>
        <pt x="357" y="1560" on="1"/>
        <pt x="348" y="1560" on="1"/>
        <pt x="332" y="1563" on="1"/>
        <pt x="269" y="1563" on="0"/>
        <pt x="269" y="1627" on="1"/>
        <pt x="268" y="1632" on="1"/>
        <pt x="267" y="1636" on="1"/>
        <pt x="264" y="1671" on="1"/>
        <pt x="264" y="1694" on="1"/>
        <pt x="265" y="1698" on="1"/>
        <pt x="268" y="1729" on="1"/>
        <pt x="269" y="1734" on="0"/>
        <pt x="269" y="1737" on="1"/>
        <pt x="269" y="1798" on="0"/>
        <pt x="332" y="1798" on="1"/>
        <pt x="340" y="1800" on="0"/>
        <pt x="344" y="1800" on="1"/>
        <pt x="348" y="1801" on="1"/>
        <pt x="353" y="1802" on="1"/>
        <pt x="387" y="1804" on="1"/>
        <pt x="401" y="1804" on="1"/>
        <pt x="405" y="1803" on="1"/>
        <pt x="439" y="1800" on="1"/>
        <pt x="443" y="1799" on="0"/>
        <pt x="447" y="1799" on="1"/>
        <pt x="504" y="1799" on="0"/>
        <pt x="504" y="1744" on="1"/>
        <pt x="509" y="1718" on="1"/>
        <pt x="509" y="1709" on="1"/>
        <pt x="511" y="1682" on="1"/>
        <pt x="511" y="1673" on="1"/>
        <pt x="510" y="1669" on="1"/>
        <pt x="507" y="1634" on="1"/>
        <pt x="506" y="1629" on="0"/>
      </contour>
      <contour>
        <pt x="676" y="1658" on="1"/>
        <pt x="676" y="1703" on="1"/>
        <pt x="676" y="1798" on="0"/>
        <pt x="744" y="1798" on="1"/>
        <pt x="752" y="1800" on="0"/>
        <pt x="756" y="1800" on="1"/>
        <pt x="761" y="1801" on="1"/>
        <pt x="765" y="1802" on="1"/>
        <pt x="799" y="1804" on="1"/>
        <pt x="813" y="1804" on="1"/>
        <pt x="817" y="1803" on="1"/>
        <pt x="851" y="1800" on="1"/>
        <pt x="855" y="1799" on="0"/>
        <pt x="859" y="1799" on="1"/>
        <pt x="922" y="1799" on="0"/>
        <pt x="922" y="1704" on="1"/>
        <pt x="922" y="1659" on="1"/>
        <pt x="921" y="1655" on="1"/>
        <pt x="921" y="1646" on="1"/>
        <pt x="916" y="1626" on="0"/>
        <pt x="916" y="1616" on="1"/>
        <pt x="916" y="1566" on="0"/>
        <pt x="862" y="1566" on="1"/>
        <pt x="846" y="1562" on="0"/>
        <pt x="842" y="1562" on="1"/>
        <pt x="812" y="1559" on="1"/>
        <pt x="772" y="1559" on="1"/>
        <pt x="768" y="1560" on="1"/>
        <pt x="759" y="1560" on="1"/>
        <pt x="743" y="1563" on="1"/>
        <pt x="676" y="1563" on="0"/>
      </contour>
      <contour>
        <pt x="1045" y="123" on="1"/>
        <pt x="1045" y="95" on="1"/>
        <pt x="1045" y="50" on="0"/>
        <pt x="978" y="8" on="0"/>
        <pt x="853" y="8" on="1"/>
        <pt x="818" y="9" on="1"/>
        <pt x="641" y="9" on="1"/>
        <pt x="219" y="9" on="0"/>
        <pt x="138" y="80" on="0"/>
        <pt x="138" y="183" on="1"/>
        <pt x="138" y="235" on="0"/>
        <pt x="138" y="287" on="1"/>
        <pt x="139" y="357" on="1"/>
        <pt x="139" y="1029" on="1"/>
        <pt x="138" y="1099" on="1"/>
        <pt x="138" y="1134" on="0"/>
        <pt x="137" y="1168" on="1"/>
        <pt x="135" y="1237" on="1"/>
        <pt x="135" y="1373" on="0"/>
        <pt x="229" y="1423" on="0"/>
        <pt x="480" y="1423" on="1"/>
        <pt x="937" y="1423" on="1"/>
        <pt x="991" y="1423" on="0"/>
        <pt x="1034" y="1371" on="0"/>
        <pt x="1034" y="1249" on="0"/>
        <pt x="963" y="1227" on="1"/>
        <pt x="908" y="1210" on="0"/>
        <pt x="479" y="1210" on="0"/>
        <pt x="447" y="1192" on="1"/>
        <pt x="402" y="1167" on="0"/>
        <pt x="402" y="903" on="0"/>
        <pt x="471" y="843" on="0"/>
        <pt x="893" y="843" on="0"/>
        <pt x="940" y="817" on="0"/>
        <pt x="940" y="657" on="0"/>
        <pt x="908" y="640" on="1"/>
        <pt x="890" y="630" on="0"/>
        <pt x="464" y="630" on="0"/>
        <pt x="403" y="560" on="0"/>
        <pt x="403" y="278" on="0"/>
        <pt x="427" y="256" on="1"/>
        <pt x="462" y="224" on="0"/>
        <pt x="641" y="224" on="1"/>
        <pt x="847" y="221" on="1"/>
        <pt x="962" y="221" on="0"/>
        <pt x="1045" y="181" on="0"/>
      </contour>
    </TTGlyph>
    <TTGlyph name="Egrave" xMin="137" yMin="5" xMax="1047" yMax="1877">
      <contour>
        <pt x="776" y="1595" on="1"/>
        <pt x="776" y="1584" on="1"/>
        <pt x="776" y="1540" on="0"/>
        <pt x="715" y="1540" on="1"/>
        <pt x="709" y="1540" on="1"/>
        <pt x="703" y="1541" on="1"/>
        <pt x="618" y="1541" on="0"/>
        <pt x="401" y="1694" on="0"/>
        <pt x="335" y="1767" on="0"/>
        <pt x="335" y="1811" on="1"/>
        <pt x="334" y="1817" on="1"/>
        <pt x="334" y="1833" on="0"/>
        <pt x="390" y="1877" on="0"/>
        <pt x="420" y="1877" on="1"/>
        <pt x="437" y="1877" on="1"/>
        <pt x="539" y="1877" on="0"/>
        <pt x="603" y="1813" on="1"/>
        <pt x="776" y="1640" on="0"/>
      </contour>
      <contour>
        <pt x="1047" y="177" on="0"/>
        <pt x="1047" y="48" on="0"/>
        <pt x="981" y="5" on="0"/>
        <pt x="889" y="5" on="1"/>
        <pt x="397" y="5" on="1"/>
        <pt x="261" y="5" on="0"/>
        <pt x="205" y="27" on="1"/>
        <pt x="170" y="41" on="0"/>
        <pt x="140" y="132" on="0"/>
        <pt x="140" y="481" on="1"/>
        <pt x="140" y="1095" on="1"/>
        <pt x="138" y="1199" on="1"/>
        <pt x="137" y="1233" on="1"/>
        <pt x="137" y="1370" on="0"/>
        <pt x="232" y="1419" on="0"/>
        <pt x="658" y="1419" on="1"/>
        <pt x="904" y="1420" on="1"/>
        <pt x="973" y="1420" on="0"/>
        <pt x="997" y="1406" on="1"/>
        <pt x="1036" y="1383" on="0"/>
        <pt x="1036" y="1246" on="0"/>
        <pt x="965" y="1223" on="1"/>
        <pt x="916" y="1207" on="0"/>
        <pt x="456" y="1207" on="0"/>
        <pt x="404" y="1145" on="0"/>
        <pt x="404" y="988" on="1"/>
        <pt x="404" y="884" on="0"/>
        <pt x="507" y="839" on="0"/>
        <pt x="895" y="839" on="0"/>
        <pt x="941" y="814" on="0"/>
        <pt x="941" y="653" on="0"/>
        <pt x="909" y="636" on="1"/>
        <pt x="890" y="626" on="0"/>
        <pt x="492" y="626" on="0"/>
        <pt x="404" y="576" on="0"/>
        <pt x="404" y="274" on="0"/>
        <pt x="465" y="220" on="0"/>
        <pt x="678" y="220" on="1"/>
        <pt x="848" y="217" on="1"/>
        <pt x="962" y="217" on="0"/>
      </contour>
    </TTGlyph>
    <TTGlyph name="Eth" xMin="26" yMin="-3" xMax="1277" yMax="1417">
      <contour>
        <pt x="536" y="210" on="1"/>
        <pt x="620" y="210" on="1"/>
        <pt x="818" y="210" on="0"/>
        <pt x="915" y="322" on="1"/>
        <pt x="1013" y="434" on="0"/>
        <pt x="1013" y="695" on="1"/>
        <pt x="1013" y="732" on="1"/>
        <pt x="1013" y="1105" on="0"/>
        <pt x="779" y="1184" on="1"/>
        <pt x="716" y="1205" on="0"/>
        <pt x="593" y="1205" on="1"/>
        <pt x="510" y="1205" on="1"/>
        <pt x="435" y="1205" on="0"/>
        <pt x="435" y="1129" on="1"/>
        <pt x="435" y="897" on="1"/>
        <pt x="435" y="838" on="0"/>
        <pt x="478" y="822" on="1"/>
        <pt x="505" y="812" on="0"/>
        <pt x="654" y="812" on="0"/>
        <pt x="681" y="775" on="0"/>
        <pt x="681" y="654" on="0"/>
        <pt x="636" y="628" on="0"/>
        <pt x="565" y="628" on="1"/>
        <pt x="435" y="628" on="0"/>
        <pt x="435" y="525" on="1"/>
        <pt x="435" y="293" on="1"/>
        <pt x="435" y="242" on="0"/>
        <pt x="473" y="210" on="0"/>
      </contour>
      <contour>
        <pt x="1277" y="679" on="1"/>
        <pt x="1277" y="517" on="0"/>
        <pt x="1186" y="252" on="0"/>
        <pt x="1106" y="166" on="1"/>
        <pt x="949" y="-3" on="0"/>
        <pt x="610" y="-3" on="1"/>
        <pt x="608" y="-3" on="0"/>
        <pt x="606" y="-3" on="1"/>
        <pt x="458" y="-3" on="1"/>
        <pt x="434" y="-2" on="1"/>
        <pt x="206" y="-2" on="0"/>
        <pt x="179" y="44" on="0"/>
        <pt x="179" y="584" on="0"/>
        <pt x="165" y="620" on="0"/>
        <pt x="59" y="632" on="0"/>
        <pt x="51" y="637" on="1"/>
        <pt x="26" y="654" on="0"/>
        <pt x="26" y="712" on="1"/>
        <pt x="26" y="735" on="1"/>
        <pt x="26" y="788" on="0"/>
        <pt x="57" y="806" on="1"/>
        <pt x="62" y="809" on="0"/>
        <pt x="157" y="828" on="0"/>
        <pt x="179" y="862" on="0"/>
        <pt x="179" y="980" on="1"/>
        <pt x="179" y="1145" on="1"/>
        <pt x="177" y="1192" on="1"/>
        <pt x="176" y="1262" on="1"/>
        <pt x="176" y="1388" on="0"/>
        <pt x="235" y="1417" on="0"/>
        <pt x="489" y="1417" on="1"/>
        <pt x="612" y="1417" on="1"/>
        <pt x="1277" y="1417" on="0"/>
        <pt x="1277" y="732" on="1"/>
      </contour>
    </TTGlyph>
    <TTGlyph name="Euro" xMin="88" yMin="-8" xMax="1137" yMax="1392">
      <contour>
        <pt x="481" y="725" on="0"/>
        <pt x="481" y="619" on="0"/>
        <pt x="867" y="619" on="0"/>
        <pt x="867" y="553" on="1"/>
        <pt x="867" y="479" on="0"/>
        <pt x="723" y="443" on="1"/>
        <pt x="634" y="420" on="0"/>
        <pt x="580" y="389" on="0"/>
        <pt x="580" y="346" on="1"/>
        <pt x="580" y="289" on="0"/>
        <pt x="677" y="250" on="1"/>
        <pt x="722" y="232" on="0"/>
        <pt x="889" y="232" on="0"/>
        <pt x="1033" y="249" on="0"/>
        <pt x="1081" y="249" on="0"/>
        <pt x="1137" y="204" on="0"/>
        <pt x="1137" y="174" on="1"/>
        <pt x="1137" y="102" on="0"/>
        <pt x="940" y="-8" on="0"/>
        <pt x="791" y="-8" on="1"/>
        <pt x="751" y="-8" on="1"/>
        <pt x="548" y="-8" on="0"/>
        <pt x="400" y="118" on="1"/>
        <pt x="338" y="171" on="0"/>
        <pt x="270" y="297" on="1"/>
        <pt x="226" y="378" on="0"/>
        <pt x="120" y="459" on="1"/>
        <pt x="88" y="483" on="0"/>
        <pt x="88" y="587" on="0"/>
        <pt x="133" y="608" on="1"/>
        <pt x="214" y="646" on="0"/>
        <pt x="214" y="680" on="1"/>
        <pt x="214" y="734" on="0"/>
        <pt x="167" y="749" on="1"/>
        <pt x="92" y="773" on="0"/>
        <pt x="92" y="863" on="0"/>
        <pt x="133" y="905" on="1"/>
        <pt x="157" y="925" on="1"/>
        <pt x="210" y="959" on="1"/>
        <pt x="243" y="987" on="0"/>
        <pt x="268" y="1040" on="1"/>
        <pt x="338" y="1191" on="0"/>
        <pt x="408" y="1254" on="1"/>
        <pt x="562" y="1392" on="0"/>
        <pt x="1025" y="1392" on="0"/>
        <pt x="1115" y="1274" on="1"/>
        <pt x="1135" y="1248" on="0"/>
        <pt x="1135" y="1230" on="1"/>
        <pt x="1135" y="1181" on="0"/>
        <pt x="1066" y="1123" on="0"/>
        <pt x="994" y="1123" on="1"/>
        <pt x="985" y="1123" on="0"/>
        <pt x="824" y="1145" on="0"/>
        <pt x="689" y="1145" on="0"/>
        <pt x="586" y="1064" on="0"/>
        <pt x="586" y="1011" on="1"/>
        <pt x="586" y="975" on="0"/>
        <pt x="896" y="899" on="0"/>
        <pt x="896" y="794" on="0"/>
        <pt x="795" y="751" on="0"/>
        <pt x="543" y="751" on="0"/>
        <pt x="524" y="743" on="1"/>
      </contour>
    </TTGlyph>
    <TTGlyph name="F" xMin="157" yMin="16" xMax="1024" yMax="1411">
      <contour>
        <pt x="290" y="16" on="1"/>
        <pt x="266" y="16" on="1"/>
        <pt x="185" y="16" on="0"/>
        <pt x="168" y="57" on="1"/>
        <pt x="158" y="81" on="0"/>
        <pt x="158" y="298" on="1"/>
        <pt x="157" y="353" on="1"/>
        <pt x="158" y="381" on="1"/>
        <pt x="159" y="435" on="1"/>
        <pt x="167" y="651" on="0"/>
        <pt x="167" y="712" on="1"/>
        <pt x="169" y="767" on="1"/>
        <pt x="173" y="987" on="1"/>
        <pt x="173" y="1328" on="0"/>
        <pt x="199" y="1354" on="1"/>
        <pt x="212" y="1367" on="0"/>
        <pt x="259" y="1375" on="1"/>
        <pt x="475" y="1411" on="0"/>
        <pt x="885" y="1411" on="1"/>
        <pt x="941" y="1411" on="1"/>
        <pt x="1024" y="1411" on="0"/>
        <pt x="1024" y="1244" on="0"/>
        <pt x="952" y="1218" on="1"/>
        <pt x="910" y="1203" on="0"/>
        <pt x="498" y="1203" on="0"/>
        <pt x="431" y="1145" on="0"/>
        <pt x="431" y="870" on="0"/>
        <pt x="456" y="854" on="1"/>
        <pt x="499" y="827" on="0"/>
        <pt x="866" y="827" on="0"/>
        <pt x="931" y="783" on="0"/>
        <pt x="931" y="662" on="0"/>
        <pt x="858" y="623" on="0"/>
        <pt x="500" y="597" on="0"/>
        <pt x="466" y="551" on="1"/>
        <pt x="418" y="486" on="0"/>
        <pt x="401" y="203" on="1"/>
        <pt x="396" y="110" on="0"/>
        <pt x="386" y="82" on="1"/>
        <pt x="363" y="16" on="0"/>
      </contour>
    </TTGlyph>
    <TTGlyph name="G" xMin="106" yMin="-24" xMax="1192" yMax="1433">
      <contour>
        <pt x="962" y="401" on="1"/>
        <pt x="962" y="452" on="0"/>
        <pt x="780" y="564" on="0"/>
        <pt x="780" y="631" on="1"/>
        <pt x="780" y="646" on="0"/>
        <pt x="799" y="662" on="1"/>
        <pt x="839" y="696" on="0"/>
        <pt x="1111" y="696" on="0"/>
        <pt x="1192" y="597" on="0"/>
        <pt x="1192" y="386" on="1"/>
        <pt x="1192" y="312" on="1"/>
        <pt x="1192" y="108" on="0"/>
        <pt x="979" y="-24" on="0"/>
        <pt x="738" y="-24" on="1"/>
        <pt x="701" y="-24" on="1"/>
        <pt x="584" y="-24" on="0"/>
        <pt x="336" y="84" on="0"/>
        <pt x="188" y="269" on="0"/>
        <pt x="106" y="546" on="0"/>
        <pt x="106" y="702" on="1"/>
        <pt x="106" y="742" on="1"/>
        <pt x="106" y="1063" on="0"/>
        <pt x="266" y="1236" on="1"/>
        <pt x="449" y="1433" on="0"/>
        <pt x="734" y="1433" on="1"/>
        <pt x="773" y="1433" on="1"/>
        <pt x="937" y="1433" on="0"/>
        <pt x="1172" y="1304" on="0"/>
        <pt x="1172" y="1229" on="1"/>
        <pt x="1172" y="1186" on="0"/>
        <pt x="1124" y="1133" on="0"/>
        <pt x="1060" y="1133" on="0"/>
        <pt x="831" y="1198" on="0"/>
        <pt x="754" y="1198" on="1"/>
        <pt x="578" y="1198" on="0"/>
        <pt x="364" y="966" on="0"/>
        <pt x="364" y="757" on="1"/>
        <pt x="364" y="627" on="0"/>
        <pt x="418" y="402" on="0"/>
        <pt x="510" y="280" on="0"/>
        <pt x="678" y="216" on="0"/>
        <pt x="867" y="216" on="0"/>
        <pt x="962" y="331" on="0"/>
      </contour>
    </TTGlyph>
    <TTGlyph name="H" xMin="151" yMin="-1" xMax="1217" yMax="1407">
      <contour>
        <pt x="1216" y="58" on="1"/>
        <pt x="1216" y="-1" on="0"/>
        <pt x="1126" y="-1" on="1"/>
        <pt x="1006" y="-1" on="0"/>
        <pt x="979" y="74" on="1"/>
        <pt x="965" y="113" on="0"/>
        <pt x="965" y="578" on="0"/>
        <pt x="918" y="609" on="1"/>
        <pt x="888" y="629" on="0"/>
        <pt x="463" y="629" on="0"/>
        <pt x="432" y="584" on="1"/>
        <pt x="409" y="551" on="0"/>
        <pt x="409" y="136" on="0"/>
        <pt x="367" y="15" on="0"/>
        <pt x="173" y="15" on="0"/>
        <pt x="162" y="56" on="1"/>
        <pt x="158" y="71" on="0"/>
        <pt x="158" y="238" on="1"/>
        <pt x="155" y="459" on="1"/>
        <pt x="160" y="754" on="1"/>
        <pt x="156" y="1038" on="1"/>
        <pt x="153" y="1208" on="1"/>
        <pt x="152" y="1272" on="1"/>
        <pt x="151" y="1303" on="1"/>
        <pt x="151" y="1334" on="1"/>
        <pt x="151" y="1391" on="0"/>
        <pt x="267" y="1391" on="1"/>
        <pt x="348" y="1391" on="0"/>
        <pt x="374" y="1324" on="1"/>
        <pt x="388" y="1290" on="0"/>
        <pt x="402" y="967" on="0"/>
        <pt x="403" y="959" on="1"/>
        <pt x="415" y="884" on="0"/>
        <pt x="498" y="824" on="0"/>
        <pt x="786" y="824" on="1"/>
        <pt x="919" y="824" on="0"/>
        <pt x="959" y="929" on="0"/>
        <pt x="959" y="1317" on="0"/>
        <pt x="1015" y="1407" on="0"/>
        <pt x="1126" y="1407" on="1"/>
        <pt x="1189" y="1407" on="0"/>
        <pt x="1213" y="1346" on="0"/>
        <pt x="1213" y="1124" on="1"/>
        <pt x="1213" y="752" on="1"/>
        <pt x="1214" y="716" on="1"/>
        <pt x="1217" y="643" on="1"/>
        <pt x="1216" y="606" on="1"/>
        <pt x="1212" y="494" on="0"/>
        <pt x="1212" y="346" on="1"/>
        <pt x="1214" y="199" on="1"/>
        <pt x="1216" y="127" on="1"/>
      </contour>
    </TTGlyph>
    <TTGlyph name="I" xMin="153" yMin="-6" xMax="497" yMax="1416">
      <contour>
        <pt x="358" y="-6" on="1"/>
        <pt x="303" y="-6" on="1"/>
        <pt x="218" y="-6" on="0"/>
        <pt x="154" y="49" on="0"/>
        <pt x="154" y="148" on="1"/>
        <pt x="154" y="175" on="0"/>
        <pt x="201" y="352" on="0"/>
        <pt x="201" y="421" on="1"/>
        <pt x="204" y="531" on="1"/>
        <pt x="204" y="737" on="1"/>
        <pt x="204" y="975" on="0"/>
        <pt x="198" y="1078" on="0"/>
        <pt x="153" y="1229" on="0"/>
        <pt x="153" y="1264" on="1"/>
        <pt x="153" y="1281" on="1"/>
        <pt x="153" y="1361" on="0"/>
        <pt x="220" y="1416" on="0"/>
        <pt x="328" y="1416" on="1"/>
        <pt x="383" y="1416" on="1"/>
        <pt x="447" y="1416" on="0"/>
        <pt x="495" y="1355" on="0"/>
        <pt x="495" y="1243" on="0"/>
        <pt x="456" y="1082" on="0"/>
        <pt x="456" y="1002" on="1"/>
        <pt x="456" y="735" on="1"/>
        <pt x="457" y="680" on="1"/>
        <pt x="457" y="350" on="0"/>
        <pt x="497" y="181" on="0"/>
        <pt x="497" y="135" on="1"/>
        <pt x="497" y="118" on="1"/>
        <pt x="497" y="34" on="0"/>
        <pt x="432" y="-6" on="0"/>
      </contour>
    </TTGlyph>
    <TTGlyph name="Iacute" xMin="142" yMin="64" xMax="565" yMax="1868">
      <contour>
        <pt x="208" y="1495" on="1"/>
        <pt x="188" y="1495" on="1"/>
        <pt x="149" y="1495" on="0"/>
        <pt x="149" y="1531" on="1"/>
        <pt x="149" y="1542" on="1"/>
        <pt x="149" y="1632" on="0"/>
        <pt x="324" y="1788" on="1"/>
        <pt x="414" y="1868" on="0"/>
        <pt x="491" y="1868" on="1"/>
        <pt x="496" y="1868" on="1"/>
        <pt x="565" y="1868" on="0"/>
        <pt x="565" y="1817" on="1"/>
        <pt x="565" y="1800" on="1"/>
        <pt x="565" y="1747" on="0"/>
        <pt x="377" y="1578" on="1"/>
        <pt x="285" y="1495" on="0"/>
      </contour>
      <contour>
        <pt x="142" y="208" on="1"/>
        <pt x="142" y="243" on="1"/>
        <pt x="142" y="258" on="0"/>
        <pt x="154" y="306" on="1"/>
        <pt x="180" y="409" on="0"/>
        <pt x="180" y="475" on="1"/>
        <pt x="180" y="597" on="1"/>
        <pt x="181" y="633" on="1"/>
        <pt x="181" y="1077" on="1"/>
        <pt x="174" y="1153" on="0"/>
        <pt x="147" y="1248" on="0"/>
        <pt x="147" y="1407" on="0"/>
        <pt x="185" y="1429" on="1"/>
        <pt x="209" y="1443" on="0"/>
        <pt x="283" y="1443" on="1"/>
        <pt x="355" y="1443" on="1"/>
        <pt x="426" y="1443" on="0"/>
        <pt x="481" y="1391" on="0"/>
        <pt x="481" y="1315" on="1"/>
        <pt x="481" y="1280" on="1"/>
        <pt x="481" y="1248" on="0"/>
        <pt x="444" y="1095" on="0"/>
        <pt x="444" y="1033" on="1"/>
        <pt x="443" y="998" on="1"/>
        <pt x="443" y="855" on="1"/>
        <pt x="442" y="820" on="1"/>
        <pt x="442" y="695" on="1"/>
        <pt x="441" y="659" on="1"/>
        <pt x="441" y="588" on="1"/>
        <pt x="441" y="446" on="0"/>
        <pt x="446" y="360" on="0"/>
        <pt x="478" y="253" on="0"/>
        <pt x="478" y="98" on="0"/>
        <pt x="415" y="64" on="0"/>
        <pt x="343" y="64" on="1"/>
        <pt x="271" y="64" on="1"/>
        <pt x="200" y="64" on="0"/>
        <pt x="179" y="83" on="1"/>
        <pt x="142" y="116" on="0"/>
      </contour>
    </TTGlyph>
    <TTGlyph name="Icircumflex" xMin="18" yMin="88" xMax="614" yMax="1847">
      <contour>
        <pt x="18" y="1524" on="1"/>
        <pt x="18" y="1541" on="1"/>
        <pt x="18" y="1594" on="0"/>
        <pt x="195" y="1786" on="1"/>
        <pt x="251" y="1847" on="0"/>
        <pt x="381" y="1847" on="0"/>
        <pt x="426" y="1802" on="1"/>
        <pt x="614" y="1614" on="0"/>
        <pt x="614" y="1544" on="1"/>
        <pt x="614" y="1528" on="1"/>
        <pt x="614" y="1483" on="0"/>
        <pt x="511" y="1483" on="1"/>
        <pt x="457" y="1483" on="0"/>
        <pt x="360" y="1565" on="1"/>
        <pt x="348" y="1575" on="0"/>
        <pt x="338" y="1586" on="1"/>
        <pt x="318" y="1608" on="1"/>
        <pt x="316" y="1608" on="0"/>
        <pt x="289" y="1581" on="1"/>
        <pt x="188" y="1480" on="0"/>
        <pt x="113" y="1480" on="1"/>
        <pt x="105" y="1480" on="1"/>
        <pt x="18" y="1480" on="0"/>
      </contour>
      <contour>
        <pt x="364" y="88" on="1"/>
        <pt x="259" y="88" on="1"/>
        <pt x="196" y="88" on="0"/>
        <pt x="149" y="153" on="0"/>
        <pt x="149" y="258" on="1"/>
        <pt x="149" y="277" on="0"/>
        <pt x="178" y="408" on="0"/>
        <pt x="178" y="454" on="1"/>
        <pt x="178" y="517" on="1"/>
        <pt x="177" y="551" on="1"/>
        <pt x="177" y="586" on="1"/>
        <pt x="176" y="621" on="1"/>
        <pt x="176" y="796" on="1"/>
        <pt x="177" y="831" on="1"/>
        <pt x="177" y="866" on="1"/>
        <pt x="178" y="902" on="1"/>
        <pt x="178" y="937" on="1"/>
        <pt x="179" y="972" on="1"/>
        <pt x="179" y="1043" on="1"/>
        <pt x="179" y="1111" on="0"/>
        <pt x="147" y="1266" on="0"/>
        <pt x="147" y="1288" on="1"/>
        <pt x="147" y="1322" on="1"/>
        <pt x="147" y="1405" on="0"/>
        <pt x="185" y="1427" on="1"/>
        <pt x="209" y="1441" on="0"/>
        <pt x="283" y="1441" on="1"/>
        <pt x="354" y="1441" on="1"/>
        <pt x="426" y="1441" on="0"/>
        <pt x="446" y="1422" on="1"/>
        <pt x="480" y="1390" on="0"/>
        <pt x="480" y="1295" on="1"/>
        <pt x="480" y="1278" on="1"/>
        <pt x="480" y="1256" on="0"/>
        <pt x="448" y="1100" on="0"/>
        <pt x="448" y="1048" on="1"/>
        <pt x="448" y="962" on="1"/>
        <pt x="449" y="927" on="1"/>
        <pt x="449" y="909" on="0"/>
        <pt x="449" y="891" on="1"/>
        <pt x="450" y="856" on="1"/>
        <pt x="450" y="821" on="1"/>
        <pt x="451" y="786" on="1"/>
        <pt x="451" y="768" on="0"/>
        <pt x="451" y="750" on="1"/>
        <pt x="452" y="715" on="1"/>
        <pt x="452" y="697" on="0"/>
        <pt x="452" y="679" on="1"/>
        <pt x="450" y="610" on="1"/>
        <pt x="450" y="575" on="1"/>
        <pt x="448" y="506" on="1"/>
        <pt x="448" y="450" on="1"/>
        <pt x="448" y="382" on="0"/>
        <pt x="464" y="325" on="1"/>
        <pt x="480" y="269" on="0"/>
        <pt x="480" y="233" on="1"/>
        <pt x="480" y="183" on="1"/>
        <pt x="480" y="135" on="0"/>
        <pt x="433" y="88" on="0"/>
      </contour>
    </TTGlyph>
    <TTGlyph name="Idieresis" xMin="10" yMin="87" xMax="621" yMax="1802">
      <contour>
        <pt x="15" y="1694" on="1"/>
        <pt x="15" y="1737" on="0"/>
        <pt x="38" y="1753" on="1"/>
        <pt x="83" y="1785" on="0"/>
        <pt x="110" y="1785" on="1"/>
        <pt x="136" y="1785" on="1"/>
        <pt x="183" y="1785" on="0"/>
        <pt x="226" y="1724" on="0"/>
        <pt x="226" y="1683" on="1"/>
        <pt x="228" y="1673" on="1"/>
        <pt x="228" y="1668" on="0"/>
        <pt x="228" y="1663" on="1"/>
        <pt x="230" y="1638" on="1"/>
        <pt x="230" y="1617" on="1"/>
        <pt x="229" y="1612" on="1"/>
        <pt x="226" y="1577" on="1"/>
        <pt x="225" y="1572" on="0"/>
        <pt x="225" y="1568" on="1"/>
        <pt x="225" y="1525" on="0"/>
        <pt x="201" y="1508" on="1"/>
        <pt x="156" y="1476" on="0"/>
        <pt x="119" y="1476" on="1"/>
        <pt x="113" y="1476" on="1"/>
        <pt x="14" y="1476" on="0"/>
        <pt x="14" y="1578" on="1"/>
        <pt x="12" y="1588" on="0"/>
        <pt x="12" y="1593" on="1"/>
        <pt x="10" y="1619" on="1"/>
        <pt x="10" y="1644" on="1"/>
        <pt x="11" y="1649" on="1"/>
        <pt x="14" y="1684" on="1"/>
        <pt x="15" y="1689" on="0"/>
      </contour>
      <contour>
        <pt x="502" y="1557" on="1"/>
        <pt x="484" y="1557" on="1"/>
        <pt x="480" y="1558" on="1"/>
        <pt x="447" y="1561" on="1"/>
        <pt x="443" y="1562" on="0"/>
        <pt x="439" y="1562" on="1"/>
        <pt x="380" y="1562" on="0"/>
        <pt x="380" y="1627" on="1"/>
        <pt x="378" y="1635" on="1"/>
        <pt x="375" y="1665" on="1"/>
        <pt x="375" y="1697" on="1"/>
        <pt x="376" y="1701" on="1"/>
        <pt x="379" y="1727" on="1"/>
        <pt x="380" y="1731" on="0"/>
        <pt x="380" y="1735" on="1"/>
        <pt x="380" y="1797" on="0"/>
        <pt x="447" y="1797" on="1"/>
        <pt x="455" y="1799" on="1"/>
        <pt x="485" y="1802" on="1"/>
        <pt x="520" y="1802" on="1"/>
        <pt x="553" y="1798" on="1"/>
        <pt x="617" y="1798" on="0"/>
        <pt x="617" y="1724" on="1"/>
        <pt x="620" y="1707" on="1"/>
        <pt x="620" y="1698" on="1"/>
        <pt x="621" y="1685" on="1"/>
        <pt x="621" y="1667" on="1"/>
        <pt x="619" y="1645" on="1"/>
        <pt x="615" y="1620" on="1"/>
        <pt x="615" y="1557" on="0"/>
      </contour>
      <contour>
        <pt x="489" y="236" on="1"/>
        <pt x="489" y="186" on="1"/>
        <pt x="489" y="125" on="0"/>
        <pt x="426" y="87" on="0"/>
        <pt x="319" y="87" on="1"/>
        <pt x="302" y="87" on="1"/>
        <pt x="212" y="87" on="0"/>
        <pt x="192" y="105" on="1"/>
        <pt x="158" y="135" on="0"/>
        <pt x="158" y="247" on="1"/>
        <pt x="158" y="280" on="0"/>
        <pt x="192" y="416" on="0"/>
        <pt x="192" y="536" on="1"/>
        <pt x="192" y="1034" on="1"/>
        <pt x="191" y="1068" on="1"/>
        <pt x="191" y="1116" on="0"/>
        <pt x="157" y="1252" on="0"/>
        <pt x="157" y="1294" on="1"/>
        <pt x="157" y="1311" on="1"/>
        <pt x="158" y="1328" on="1"/>
        <pt x="158" y="1405" on="0"/>
        <pt x="222" y="1444" on="0"/>
        <pt x="311" y="1444" on="1"/>
        <pt x="363" y="1444" on="1"/>
        <pt x="445" y="1444" on="0"/>
        <pt x="487" y="1378" on="0"/>
        <pt x="487" y="1255" on="0"/>
        <pt x="460" y="1149" on="0"/>
        <pt x="453" y="1022" on="0"/>
        <pt x="453" y="816" on="1"/>
        <pt x="453" y="478" on="1"/>
        <pt x="453" y="415" on="0"/>
        <pt x="489" y="276" on="0"/>
      </contour>
    </TTGlyph>
    <TTGlyph name="Igrave" xMin="65" yMin="92" xMax="475" yMax="1864">
      <contour>
        <pt x="135" y="1864" on="1"/>
        <pt x="149" y="1864" on="1"/>
        <pt x="224" y="1864" on="0"/>
        <pt x="300" y="1779" on="1"/>
        <pt x="470" y="1588" on="0"/>
        <pt x="470" y="1525" on="1"/>
        <pt x="470" y="1519" on="1"/>
        <pt x="470" y="1464" on="0"/>
        <pt x="421" y="1464" on="1"/>
        <pt x="416" y="1464" on="1"/>
        <pt x="411" y="1465" on="1"/>
        <pt x="334" y="1465" on="0"/>
        <pt x="239" y="1560" on="1"/>
        <pt x="65" y="1734" on="0"/>
        <pt x="65" y="1785" on="1"/>
        <pt x="65" y="1791" on="1"/>
        <pt x="65" y="1819" on="0"/>
        <pt x="116" y="1864" on="0"/>
      </contour>
      <contour>
        <pt x="339" y="92" on="1"/>
        <pt x="269" y="92" on="1"/>
        <pt x="189" y="92" on="0"/>
        <pt x="140" y="161" on="0"/>
        <pt x="140" y="269" on="1"/>
        <pt x="140" y="286" on="0"/>
        <pt x="174" y="422" on="0"/>
        <pt x="174" y="476" on="1"/>
        <pt x="174" y="601" on="1"/>
        <pt x="173" y="636" on="1"/>
        <pt x="173" y="671" on="0"/>
        <pt x="173" y="706" on="1"/>
        <pt x="172" y="741" on="1"/>
        <pt x="172" y="776" on="1"/>
        <pt x="172" y="1009" on="0"/>
        <pt x="164" y="1143" on="0"/>
        <pt x="132" y="1275" on="0"/>
        <pt x="132" y="1300" on="1"/>
        <pt x="132" y="1333" on="1"/>
        <pt x="132" y="1413" on="0"/>
        <pt x="171" y="1436" on="1"/>
        <pt x="195" y="1450" on="0"/>
        <pt x="286" y="1450" on="1"/>
        <pt x="321" y="1450" on="1"/>
        <pt x="411" y="1450" on="0"/>
        <pt x="431" y="1431" on="1"/>
        <pt x="466" y="1398" on="0"/>
        <pt x="466" y="1290" on="1"/>
        <pt x="466" y="1257" on="0"/>
        <pt x="431" y="1117" on="0"/>
        <pt x="431" y="1064" on="1"/>
        <pt x="431" y="941" on="1"/>
        <pt x="432" y="906" on="1"/>
        <pt x="432" y="801" on="1"/>
        <pt x="433" y="765" on="1"/>
        <pt x="433" y="515" on="0"/>
        <pt x="441" y="390" on="0"/>
        <pt x="475" y="269" on="0"/>
        <pt x="475" y="142" on="0"/>
        <pt x="425" y="92" on="0"/>
      </contour>
    </TTGlyph>
    <TTGlyph name="J" xMin="46" yMin="-73" xMax="792" yMax="1416">
      <contour>
        <pt x="345" y="-73" on="1"/>
        <pt x="323" y="-73" on="1"/>
        <pt x="215" y="-73" on="0"/>
        <pt x="46" y="24" on="0"/>
        <pt x="46" y="99" on="1"/>
        <pt x="46" y="118" on="1"/>
        <pt x="46" y="167" on="0"/>
        <pt x="94" y="203" on="1"/>
        <pt x="115" y="219" on="0"/>
        <pt x="168" y="219" on="1"/>
        <pt x="291" y="192" on="1"/>
        <pt x="346" y="192" on="0"/>
        <pt x="441" y="275" on="0"/>
        <pt x="469" y="349" on="1"/>
        <pt x="528" y="503" on="0"/>
        <pt x="528" y="835" on="1"/>
        <pt x="528" y="989" on="0"/>
        <pt x="475" y="1269" on="0"/>
        <pt x="475" y="1354" on="0"/>
        <pt x="552" y="1416" on="0"/>
        <pt x="723" y="1416" on="0"/>
        <pt x="748" y="1373" on="1"/>
        <pt x="792" y="1296" on="0"/>
        <pt x="792" y="1191" on="1"/>
        <pt x="792" y="1169" on="1"/>
        <pt x="779" y="955" on="1"/>
        <pt x="779" y="797" on="1"/>
        <pt x="780" y="729" on="1"/>
        <pt x="780" y="406" on="0"/>
        <pt x="762" y="304" on="1"/>
        <pt x="719" y="67" on="0"/>
        <pt x="552" y="-22" on="1"/>
        <pt x="458" y="-73" on="0"/>
      </contour>
    </TTGlyph>
    <TTGlyph name="K" xMin="152" yMin="-6" xMax="1194" yMax="1407">
      <contour>
        <pt x="208" y="1397" on="0"/>
        <pt x="339" y="1397" on="0"/>
        <pt x="396" y="1325" on="0"/>
        <pt x="396" y="1194" on="1"/>
        <pt x="396" y="918" on="0"/>
        <pt x="419" y="871" on="1"/>
        <pt x="430" y="849" on="0"/>
        <pt x="445" y="849" on="1"/>
        <pt x="494" y="849" on="0"/>
        <pt x="843" y="1314" on="0"/>
        <pt x="885" y="1350" on="1"/>
        <pt x="951" y="1407" on="0"/>
        <pt x="1069" y="1407" on="1"/>
        <pt x="1140" y="1407" on="0"/>
        <pt x="1140" y="1368" on="1"/>
        <pt x="1140" y="1337" on="0"/>
        <pt x="735" y="810" on="0"/>
        <pt x="735" y="776" on="0"/>
        <pt x="979" y="384" on="0"/>
        <pt x="1017" y="327" on="1"/>
        <pt x="1076" y="238" on="1"/>
        <pt x="1194" y="56" on="0"/>
        <pt x="1194" y="40" on="1"/>
        <pt x="1194" y="-6" on="0"/>
        <pt x="987" y="-6" on="0"/>
        <pt x="926" y="52" on="1"/>
        <pt x="893" y="84" on="0"/>
        <pt x="666" y="442" on="0"/>
        <pt x="632" y="485" on="1"/>
        <pt x="550" y="589" on="0"/>
        <pt x="453" y="589" on="0"/>
        <pt x="420" y="477" on="1"/>
        <pt x="407" y="432" on="0"/>
        <pt x="407" y="101" on="0"/>
        <pt x="381" y="45" on="1"/>
        <pt x="360" y="1" on="0"/>
        <pt x="183" y="1" on="0"/>
        <pt x="166" y="53" on="1"/>
        <pt x="159" y="75" on="0"/>
        <pt x="159" y="350" on="1"/>
        <pt x="159" y="661" on="1"/>
        <pt x="158" y="733" on="1"/>
        <pt x="158" y="908" on="1"/>
        <pt x="152" y="1269" on="1"/>
        <pt x="152" y="1350" on="0"/>
      </contour>
    </TTGlyph>
    <TTGlyph name="L" xMin="146" yMin="-12" xMax="1045" yMax="1415">
      <contour>
        <pt x="146" y="1314" on="0"/>
        <pt x="146" y="1385" on="0"/>
        <pt x="174" y="1415" on="0"/>
        <pt x="370" y="1415" on="0"/>
        <pt x="386" y="1354" on="1"/>
        <pt x="407" y="1276" on="0"/>
        <pt x="407" y="314" on="0"/>
        <pt x="443" y="250" on="1"/>
        <pt x="463" y="215" on="0"/>
        <pt x="591" y="199" on="0"/>
        <pt x="981" y="199" on="0"/>
        <pt x="1004" y="187" on="1"/>
        <pt x="1045" y="166" on="0"/>
        <pt x="1045" y="86" on="1"/>
        <pt x="1045" y="64" on="1"/>
        <pt x="1045" y="20" on="0"/>
        <pt x="1015" y="-12" on="0"/>
        <pt x="949" y="-12" on="1"/>
        <pt x="811" y="-12" on="1"/>
        <pt x="788" y="-11" on="1"/>
        <pt x="719" y="-11" on="1"/>
        <pt x="603" y="-9" on="1"/>
        <pt x="310" y="-9" on="0"/>
        <pt x="204" y="6" on="0"/>
        <pt x="155" y="88" on="0"/>
        <pt x="155" y="736" on="1"/>
        <pt x="152" y="871" on="1"/>
        <pt x="152" y="904" on="0"/>
        <pt x="152" y="937" on="1"/>
        <pt x="151" y="981" on="1"/>
        <pt x="151" y="1091" on="1"/>
        <pt x="152" y="1135" on="1"/>
        <pt x="152" y="1157" on="0"/>
        <pt x="152" y="1179" on="1"/>
        <pt x="149" y="1246" on="1"/>
      </contour>
    </TTGlyph>
    <TTGlyph name="Lslash" xMin="48" yMin="-8" xMax="1065" yMax="1405">
      <contour>
        <pt x="98" y="475" on="1"/>
        <pt x="48" y="475" on="0"/>
        <pt x="48" y="572" on="1"/>
        <pt x="48" y="626" on="0"/>
        <pt x="94" y="673" on="1"/>
        <pt x="170" y="751" on="0"/>
        <pt x="181" y="785" on="1"/>
        <pt x="204" y="854" on="0"/>
        <pt x="204" y="990" on="1"/>
        <pt x="204" y="1180" on="1"/>
        <pt x="206" y="1233" on="1"/>
        <pt x="207" y="1260" on="0"/>
        <pt x="207" y="1308" on="1"/>
        <pt x="208" y="1404" on="0"/>
        <pt x="316" y="1404" on="1"/>
        <pt x="317" y="1405" on="1"/>
        <pt x="424" y="1405" on="0"/>
        <pt x="446" y="1341" on="1"/>
        <pt x="458" y="1307" on="0"/>
        <pt x="458" y="1076" on="1"/>
        <pt x="458" y="930" on="0"/>
        <pt x="497" y="930" on="1"/>
        <pt x="524" y="930" on="0"/>
        <pt x="636" y="970" on="0"/>
        <pt x="657" y="970" on="1"/>
        <pt x="715" y="970" on="0"/>
        <pt x="715" y="826" on="0"/>
        <pt x="683" y="787" on="1"/>
        <pt x="670" y="772" on="0"/>
        <pt x="530" y="673" on="0"/>
        <pt x="508" y="631" on="1"/>
        <pt x="466" y="549" on="0"/>
        <pt x="466" y="360" on="1"/>
        <pt x="466" y="267" on="0"/>
        <pt x="578" y="211" on="0"/>
        <pt x="989" y="211" on="0"/>
        <pt x="1017" y="192" on="1"/>
        <pt x="1065" y="160" on="0"/>
        <pt x="1065" y="-8" on="0"/>
        <pt x="892" y="-8" on="1"/>
        <pt x="784" y="-8" on="1"/>
        <pt x="756" y="-7" on="1"/>
        <pt x="620" y="-7" on="1"/>
        <pt x="296" y="-7" on="0"/>
        <pt x="213" y="41" on="0"/>
        <pt x="205" y="112" on="1"/>
        <pt x="204" y="120" on="0"/>
        <pt x="204" y="408" on="0"/>
        <pt x="184" y="481" on="0"/>
        <pt x="154" y="481" on="1"/>
        <pt x="126" y="475" on="0"/>
      </contour>
    </TTGlyph>
    <TTGlyph name="M" xMin="156" yMin="17" xMax="1505" yMax="1381">
      <contour>
        <pt x="319" y="1381" on="1"/>
        <pt x="427" y="1381" on="0"/>
        <pt x="508" y="1266" on="1"/>
        <pt x="561" y="1191" on="0"/>
        <pt x="683" y="938" on="1"/>
        <pt x="822" y="641" on="1"/>
        <pt x="842" y="609" on="1"/>
        <pt x="857" y="609" on="0"/>
        <pt x="1000" y="922" on="1"/>
        <pt x="1142" y="1234" on="0"/>
        <pt x="1170" y="1278" on="1"/>
        <pt x="1229" y="1372" on="0"/>
        <pt x="1356" y="1372" on="1"/>
        <pt x="1376" y="1372" on="0"/>
        <pt x="1466" y="1316" on="0"/>
        <pt x="1505" y="1186" on="0"/>
        <pt x="1505" y="988" on="1"/>
        <pt x="1505" y="739" on="1"/>
        <pt x="1502" y="591" on="1"/>
        <pt x="1501" y="494" on="1"/>
        <pt x="1501" y="397" on="1"/>
        <pt x="1502" y="349" on="1"/>
        <pt x="1502" y="254" on="1"/>
        <pt x="1505" y="118" on="1"/>
        <pt x="1505" y="76" on="0"/>
        <pt x="1460" y="17" on="0"/>
        <pt x="1371" y="17" on="0"/>
        <pt x="1304" y="76" on="0"/>
        <pt x="1273" y="164" on="0"/>
        <pt x="1273" y="434" on="1"/>
        <pt x="1271" y="533" on="1"/>
        <pt x="1270" y="583" on="0"/>
        <pt x="1270" y="632" on="1"/>
        <pt x="1270" y="916" on="0"/>
        <pt x="1224" y="916" on="0"/>
        <pt x="971" y="337" on="0"/>
        <pt x="947" y="297" on="1"/>
        <pt x="910" y="235" on="0"/>
        <pt x="774" y="235" on="0"/>
        <pt x="736" y="283" on="1"/>
        <pt x="717" y="308" on="0"/>
        <pt x="450" y="908" on="0"/>
        <pt x="404" y="908" on="0"/>
        <pt x="382" y="612" on="1"/>
        <pt x="374" y="500" on="0"/>
        <pt x="368" y="239" on="0"/>
        <pt x="352" y="126" on="0"/>
        <pt x="293" y="41" on="0"/>
        <pt x="205" y="41" on="0"/>
        <pt x="188" y="54" on="1"/>
        <pt x="156" y="78" on="0"/>
        <pt x="156" y="152" on="1"/>
        <pt x="190" y="1063" on="1"/>
        <pt x="189" y="1111" on="1"/>
        <pt x="186" y="1206" on="1"/>
        <pt x="186" y="1279" on="0"/>
        <pt x="211" y="1320" on="1"/>
        <pt x="248" y="1381" on="0"/>
      </contour>
    </TTGlyph>
    <TTGlyph name="N" xMin="162" yMin="12" xMax="1272" yMax="1409">
      <contour>
        <pt x="378" y="700" on="0"/>
        <pt x="378" y="117" on="0"/>
        <pt x="321" y="22" on="0"/>
        <pt x="240" y="22" on="1"/>
        <pt x="200" y="22" on="0"/>
        <pt x="162" y="51" on="0"/>
        <pt x="162" y="95" on="1"/>
        <pt x="162" y="132" on="1"/>
        <pt x="169" y="367" on="1"/>
        <pt x="171" y="421" on="0"/>
        <pt x="171" y="449" on="1"/>
        <pt x="172" y="532" on="1"/>
        <pt x="172" y="813" on="1"/>
        <pt x="173" y="853" on="1"/>
        <pt x="173" y="1053" on="1"/>
        <pt x="173" y="1095" on="0"/>
        <pt x="169" y="1173" on="1"/>
        <pt x="163" y="1288" on="1"/>
        <pt x="163" y="1359" on="0"/>
        <pt x="206" y="1389" on="0"/>
        <pt x="331" y="1389" on="0"/>
        <pt x="422" y="1337" on="0"/>
        <pt x="466" y="1284" on="1"/>
        <pt x="605" y="1116" on="0"/>
        <pt x="1019" y="443" on="0"/>
        <pt x="1034" y="443" on="0"/>
        <pt x="1034" y="1264" on="0"/>
        <pt x="1087" y="1409" on="0"/>
        <pt x="1189" y="1409" on="1"/>
        <pt x="1233" y="1409" on="0"/>
        <pt x="1272" y="1372" on="0"/>
        <pt x="1272" y="1291" on="1"/>
        <pt x="1272" y="1213" on="1"/>
        <pt x="1272" y="1173" on="0"/>
        <pt x="1261" y="883" on="0"/>
        <pt x="1261" y="140" on="0"/>
        <pt x="1247" y="66" on="1"/>
        <pt x="1237" y="12" on="0"/>
        <pt x="1181" y="12" on="1"/>
        <pt x="1145" y="12" on="1"/>
        <pt x="1037" y="12" on="0"/>
        <pt x="962" y="112" on="1"/>
        <pt x="929" y="156" on="0"/>
        <pt x="835" y="306" on="1"/>
        <pt x="772" y="408" on="1"/>
        <pt x="730" y="476" on="0"/>
        <pt x="686" y="544" on="1"/>
        <pt x="415" y="963" on="0"/>
        <pt x="395" y="963" on="1"/>
        <pt x="392" y="934" on="1"/>
      </contour>
    </TTGlyph>
    <TTGlyph name="Nacute" xMin="129" yMin="13" xMax="1226" yMax="1898">
      <contour>
        <pt x="553" y="1544" on="1"/>
        <pt x="490" y="1544" on="0"/>
        <pt x="490" y="1600" on="1"/>
        <pt x="490" y="1612" on="1"/>
        <pt x="490" y="1675" on="0"/>
        <pt x="685" y="1817" on="1"/>
        <pt x="796" y="1898" on="0"/>
        <pt x="869" y="1898" on="1"/>
        <pt x="874" y="1898" on="1"/>
        <pt x="902" y="1898" on="0"/>
        <pt x="972" y="1835" on="0"/>
        <pt x="972" y="1817" on="1"/>
        <pt x="972" y="1800" on="1"/>
        <pt x="972" y="1753" on="0"/>
        <pt x="906" y="1711" on="1"/>
        <pt x="648" y="1547" on="0"/>
        <pt x="583" y="1547" on="1"/>
        <pt x="565" y="1544" on="1"/>
      </contour>
      <contour>
        <pt x="388" y="989" on="0"/>
        <pt x="372" y="989" on="0"/>
        <pt x="372" y="946" on="1"/>
        <pt x="374" y="864" on="1"/>
        <pt x="376" y="782" on="0"/>
        <pt x="376" y="700" on="0"/>
        <pt x="376" y="659" on="1"/>
        <pt x="377" y="537" on="1"/>
        <pt x="377" y="139" on="0"/>
        <pt x="326" y="13" on="0"/>
        <pt x="146" y="13" on="0"/>
        <pt x="135" y="65" on="1"/>
        <pt x="133" y="74" on="0"/>
        <pt x="133" y="406" on="1"/>
        <pt x="133" y="1043" on="1"/>
        <pt x="129" y="1207" on="1"/>
        <pt x="129" y="1247" on="1"/>
        <pt x="129" y="1365" on="0"/>
        <pt x="171" y="1434" on="0"/>
        <pt x="234" y="1434" on="1"/>
        <pt x="364" y="1434" on="0"/>
        <pt x="501" y="1259" on="0"/>
        <pt x="883" y="618" on="0"/>
        <pt x="897" y="593" on="1"/>
        <pt x="957" y="487" on="1"/>
        <pt x="976" y="458" on="1"/>
        <pt x="987" y="458" on="0"/>
        <pt x="987" y="502" on="1"/>
        <pt x="985" y="584" on="1"/>
        <pt x="983" y="666" on="0"/>
        <pt x="983" y="707" on="1"/>
        <pt x="982" y="829" on="1"/>
        <pt x="982" y="1083" on="1"/>
        <pt x="982" y="1275" on="0"/>
        <pt x="1007" y="1383" on="0"/>
        <pt x="1062" y="1434" on="0"/>
        <pt x="1125" y="1434" on="1"/>
        <pt x="1226" y="1434" on="0"/>
        <pt x="1226" y="1371" on="1"/>
        <pt x="1226" y="1289" on="1"/>
        <pt x="1225" y="1248" on="1"/>
        <pt x="1225" y="228" on="1"/>
        <pt x="1226" y="146" on="1"/>
        <pt x="1226" y="64" on="0"/>
        <pt x="1176" y="14" on="0"/>
        <pt x="1112" y="14" on="1"/>
        <pt x="1010" y="14" on="0"/>
        <pt x="897" y="143" on="0"/>
        <pt x="667" y="515" on="1"/>
        <pt x="653" y="537" on="0"/>
        <pt x="602" y="623" on="1"/>
        <pt x="539" y="729" on="1"/>
        <pt x="509" y="779" on="0"/>
        <pt x="477" y="835" on="1"/>
        <pt x="397" y="975" on="1"/>
      </contour>
    </TTGlyph>
    <TTGlyph name="Ntilde" xMin="136" yMin="11" xMax="1254" yMax="1834">
      <contour>
        <pt x="885" y="1562" on="1"/>
        <pt x="858" y="1562" on="1"/>
        <pt x="820" y="1562" on="0"/>
        <pt x="592" y="1656" on="0"/>
        <pt x="521" y="1656" on="0"/>
        <pt x="440" y="1587" on="0"/>
        <pt x="337" y="1587" on="0"/>
        <pt x="337" y="1640" on="1"/>
        <pt x="337" y="1657" on="1"/>
        <pt x="337" y="1727" on="0"/>
        <pt x="452" y="1834" on="0"/>
        <pt x="526" y="1834" on="1"/>
        <pt x="535" y="1833" on="1"/>
        <pt x="573" y="1833" on="0"/>
        <pt x="807" y="1742" on="0"/>
        <pt x="871" y="1742" on="0"/>
        <pt x="962" y="1807" on="0"/>
        <pt x="1005" y="1807" on="1"/>
        <pt x="1056" y="1807" on="0"/>
        <pt x="1056" y="1753" on="1"/>
        <pt x="1056" y="1735" on="1"/>
        <pt x="1056" y="1670" on="0"/>
        <pt x="948" y="1562" on="0"/>
      </contour>
      <contour>
        <pt x="1230" y="24" on="0"/>
        <pt x="1027" y="24" on="0"/>
        <pt x="865" y="223" on="0"/>
        <pt x="398" y="994" on="0"/>
        <pt x="377" y="994" on="0"/>
        <pt x="377" y="912" on="1"/>
        <pt x="379" y="830" on="1"/>
        <pt x="380" y="748" on="1"/>
        <pt x="380" y="543" on="1"/>
        <pt x="380" y="146" on="0"/>
        <pt x="334" y="11" on="0"/>
        <pt x="176" y="11" on="0"/>
        <pt x="153" y="31" on="1"/>
        <pt x="140" y="43" on="0"/>
        <pt x="140" y="218" on="1"/>
        <pt x="141" y="299" on="1"/>
        <pt x="142" y="339" on="1"/>
        <pt x="142" y="995" on="1"/>
        <pt x="140" y="1159" on="1"/>
        <pt x="136" y="1280" on="1"/>
        <pt x="136" y="1320" on="1"/>
        <pt x="136" y="1365" on="0"/>
        <pt x="177" y="1418" on="0"/>
        <pt x="245" y="1418" on="1"/>
        <pt x="372" y="1418" on="0"/>
        <pt x="443" y="1334" on="1"/>
        <pt x="481" y="1289" on="0"/>
        <pt x="728" y="893" on="1"/>
        <pt x="921" y="581" on="1"/>
        <pt x="1000" y="453" on="0"/>
        <pt x="1001" y="453" on="1"/>
        <pt x="1012" y="453" on="0"/>
        <pt x="1012" y="1267" on="0"/>
        <pt x="1037" y="1368" on="0"/>
        <pt x="1092" y="1422" on="0"/>
        <pt x="1224" y="1422" on="0"/>
        <pt x="1254" y="1379" on="0"/>
        <pt x="1254" y="1329" on="1"/>
        <pt x="1254" y="1169" on="1"/>
        <pt x="1253" y="1129" on="1"/>
        <pt x="1252" y="1089" on="0"/>
        <pt x="1252" y="1049" on="1"/>
        <pt x="1251" y="968" on="1"/>
        <pt x="1251" y="599" on="1"/>
        <pt x="1251" y="89" on="0"/>
        <pt x="1245" y="70" on="1"/>
      </contour>
    </TTGlyph>
    <TTGlyph name="O" xMin="79" yMin="-26" xMax="1299" yMax="1433">
      <contour>
        <pt x="336" y="725" on="1"/>
        <pt x="336" y="678" on="1"/>
        <pt x="336" y="442" on="0"/>
        <pt x="413" y="329" on="1"/>
        <pt x="514" y="182" on="0"/>
        <pt x="669" y="182" on="1"/>
        <pt x="716" y="182" on="1"/>
        <pt x="867" y="182" on="0"/>
        <pt x="1042" y="438" on="0"/>
        <pt x="1042" y="666" on="1"/>
        <pt x="1042" y="745" on="1"/>
        <pt x="1042" y="1082" on="0"/>
        <pt x="848" y="1191" on="1"/>
        <pt x="788" y="1225" on="0"/>
        <pt x="709" y="1225" on="1"/>
        <pt x="662" y="1225" on="1"/>
        <pt x="509" y="1225" on="0"/>
        <pt x="336" y="971" on="0"/>
      </contour>
      <contour>
        <pt x="1299" y="748" on="1"/>
        <pt x="1299" y="679" on="1"/>
        <pt x="1299" y="508" on="0"/>
        <pt x="1211" y="231" on="0"/>
        <pt x="1064" y="69" on="0"/>
        <pt x="834" y="-26" on="0"/>
        <pt x="711" y="-26" on="1"/>
        <pt x="687" y="-26" on="1"/>
        <pt x="224" y="-26" on="0"/>
        <pt x="113" y="396" on="1"/>
        <pt x="79" y="526" on="0"/>
        <pt x="79" y="681" on="1"/>
        <pt x="79" y="728" on="1"/>
        <pt x="79" y="884" on="0"/>
        <pt x="159" y="1159" on="0"/>
        <pt x="292" y="1322" on="0"/>
        <pt x="526" y="1433" on="0"/>
        <pt x="667" y="1433" on="1"/>
        <pt x="715" y="1433" on="1"/>
        <pt x="856" y="1433" on="0"/>
        <pt x="1084" y="1325" on="0"/>
        <pt x="1217" y="1167" on="0"/>
        <pt x="1299" y="903" on="0"/>
      </contour>
    </TTGlyph>
    <TTGlyph name="OE" xMin="102" yMin="-7" xMax="1747" yMax="1406">
      <contour>
        <pt x="361" y="603" on="1"/>
        <pt x="361" y="325" on="0"/>
        <pt x="545" y="224" on="1"/>
        <pt x="604" y="192" on="0"/>
        <pt x="674" y="192" on="1"/>
        <pt x="717" y="192" on="1"/>
        <pt x="847" y="192" on="0"/>
        <pt x="878" y="268" on="1"/>
        <pt x="925" y="383" on="0"/>
        <pt x="925" y="723" on="1"/>
        <pt x="926" y="751" on="1"/>
        <pt x="926" y="807" on="1"/>
        <pt x="926" y="1056" on="0"/>
        <pt x="874" y="1143" on="1"/>
        <pt x="835" y="1208" on="0"/>
        <pt x="696" y="1208" on="1"/>
        <pt x="682" y="1208" on="1"/>
        <pt x="668" y="1207" on="1"/>
        <pt x="524" y="1207" on="0"/>
        <pt x="435" y="1082" on="1"/>
        <pt x="361" y="978" on="0"/>
        <pt x="361" y="781" on="1"/>
        <pt x="359" y="752" on="1"/>
        <pt x="358" y="706" on="1"/>
        <pt x="358" y="676" on="1"/>
        <pt x="359" y="661" on="1"/>
        <pt x="360" y="632" on="1"/>
        <pt x="361" y="617" on="0"/>
      </contour>
      <contour>
        <pt x="1747" y="108" on="1"/>
        <pt x="1747" y="39" on="0"/>
        <pt x="1670" y="13" on="1"/>
        <pt x="1626" y="-2" on="0"/>
        <pt x="1450" y="-2" on="1"/>
        <pt x="1370" y="-4" on="1"/>
        <pt x="1289" y="-4" on="1"/>
        <pt x="1191" y="-4" on="0"/>
        <pt x="1026" y="30" on="0"/>
        <pt x="983" y="30" on="0"/>
        <pt x="761" y="-7" on="0"/>
        <pt x="544" y="-7" on="0"/>
        <pt x="436" y="35" on="1"/>
        <pt x="215" y="121" on="0"/>
        <pt x="142" y="365" on="1"/>
        <pt x="102" y="499" on="0"/>
        <pt x="102" y="647" on="1"/>
        <pt x="102" y="733" on="1"/>
        <pt x="102" y="1060" on="0"/>
        <pt x="242" y="1222" on="1"/>
        <pt x="313" y="1304" on="0"/>
        <pt x="539" y="1406" on="0"/>
        <pt x="686" y="1406" on="1"/>
        <pt x="726" y="1406" on="1"/>
        <pt x="765" y="1406" on="0"/>
        <pt x="1016" y="1363" on="0"/>
        <pt x="1045" y="1363" on="0"/>
        <pt x="1142" y="1389" on="0"/>
        <pt x="1245" y="1399" on="0"/>
        <pt x="1629" y="1399" on="0"/>
        <pt x="1739" y="1359" on="0"/>
        <pt x="1739" y="1278" on="1"/>
        <pt x="1739" y="1228" on="0"/>
        <pt x="1624" y="1185" on="0"/>
        <pt x="1263" y="1185" on="0"/>
        <pt x="1186" y="1112" on="0"/>
        <pt x="1186" y="948" on="1"/>
        <pt x="1186" y="876" on="0"/>
        <pt x="1300" y="831" on="0"/>
        <pt x="1462" y="831" on="1"/>
        <pt x="1501" y="832" on="1"/>
        <pt x="1540" y="833" on="0"/>
        <pt x="1576" y="833" on="1"/>
        <pt x="1656" y="833" on="0"/>
        <pt x="1656" y="758" on="1"/>
        <pt x="1656" y="651" on="0"/>
        <pt x="1613" y="635" on="1"/>
        <pt x="1594" y="628" on="0"/>
        <pt x="1276" y="628" on="0"/>
        <pt x="1220" y="581" on="1"/>
        <pt x="1179" y="547" on="0"/>
        <pt x="1179" y="381" on="1"/>
        <pt x="1179" y="272" on="0"/>
        <pt x="1285" y="210" on="0"/>
        <pt x="1604" y="210" on="0"/>
        <pt x="1663" y="188" on="1"/>
        <pt x="1747" y="156" on="0"/>
      </contour>
    </TTGlyph>
    <TTGlyph name="Oacute" xMin="65" yMin="1" xMax="1281" yMax="1885">
      <contour>
        <pt x="335" y="779" on="1"/>
        <pt x="335" y="703" on="1"/>
        <pt x="335" y="475" on="0"/>
        <pt x="503" y="239" on="0"/>
        <pt x="657" y="239" on="1"/>
        <pt x="687" y="239" on="1"/>
        <pt x="853" y="239" on="0"/>
        <pt x="944" y="386" on="1"/>
        <pt x="1009" y="491" on="0"/>
        <pt x="1009" y="701" on="1"/>
        <pt x="1009" y="809" on="1"/>
        <pt x="1009" y="1141" on="0"/>
        <pt x="812" y="1231" on="1"/>
        <pt x="755" y="1257" on="0"/>
        <pt x="673" y="1257" on="1"/>
        <pt x="658" y="1257" on="1"/>
        <pt x="505" y="1257" on="0"/>
        <pt x="335" y="1020" on="0"/>
      </contour>
      <contour>
        <pt x="949" y="1832" on="1"/>
        <pt x="949" y="1815" on="1"/>
        <pt x="949" y="1758" on="0"/>
        <pt x="765" y="1615" on="1"/>
        <pt x="675" y="1545" on="0"/>
        <pt x="576" y="1545" on="1"/>
        <pt x="522" y="1545" on="0"/>
        <pt x="522" y="1583" on="1"/>
        <pt x="522" y="1594" on="1"/>
        <pt x="523" y="1600" on="1"/>
        <pt x="523" y="1652" on="0"/>
        <pt x="692" y="1821" on="1"/>
        <pt x="756" y="1885" on="0"/>
        <pt x="860" y="1885" on="1"/>
        <pt x="865" y="1885" on="1"/>
        <pt x="871" y="1884" on="1"/>
        <pt x="949" y="1884" on="0"/>
      </contour>
      <contour>
        <pt x="1281" y="785" on="1"/>
        <pt x="1281" y="691" on="1"/>
        <pt x="1281" y="541" on="0"/>
        <pt x="1207" y="275" on="0"/>
        <pt x="1075" y="107" on="0"/>
        <pt x="831" y="1" on="0"/>
        <pt x="704" y="1" on="1"/>
        <pt x="656" y="1" on="1"/>
        <pt x="522" y="1" on="0"/>
        <pt x="282" y="99" on="0"/>
        <pt x="137" y="272" on="0"/>
        <pt x="65" y="546" on="0"/>
        <pt x="65" y="702" on="1"/>
        <pt x="65" y="772" on="1"/>
        <pt x="65" y="915" on="0"/>
        <pt x="136" y="1184" on="0"/>
        <pt x="271" y="1357" on="0"/>
        <pt x="515" y="1463" on="0"/>
        <pt x="667" y="1463" on="1"/>
        <pt x="691" y="1463" on="1"/>
        <pt x="825" y="1463" on="0"/>
        <pt x="1065" y="1365" on="0"/>
        <pt x="1199" y="1205" on="0"/>
        <pt x="1281" y="941" on="0"/>
      </contour>
    </TTGlyph>
    <TTGlyph name="Ocircumflex" xMin="66" yMin="-5" xMax="1283" yMax="1882">
      <contour>
        <pt x="338" y="777" on="1"/>
        <pt x="338" y="684" on="1"/>
        <pt x="340" y="654" on="0"/>
        <pt x="340" y="564" on="0"/>
        <pt x="364" y="471" on="1"/>
        <pt x="431" y="212" on="0"/>
        <pt x="671" y="212" on="1"/>
        <pt x="687" y="212" on="1"/>
        <pt x="844" y="212" on="0"/>
        <pt x="1009" y="443" on="0"/>
        <pt x="1009" y="643" on="1"/>
        <pt x="1011" y="673" on="1"/>
        <pt x="1011" y="766" on="1"/>
        <pt x="1011" y="1000" on="0"/>
        <pt x="935" y="1106" on="1"/>
        <pt x="843" y="1237" on="0"/>
        <pt x="694" y="1237" on="1"/>
        <pt x="648" y="1237" on="1"/>
        <pt x="501" y="1237" on="0"/>
        <pt x="411" y="1106" on="1"/>
        <pt x="338" y="999" on="0"/>
      </contour>
      <contour>
        <pt x="996" y="1600" on="1"/>
        <pt x="996" y="1593" on="1"/>
        <pt x="996" y="1559" on="0"/>
        <pt x="905" y="1559" on="1"/>
        <pt x="852" y="1559" on="0"/>
        <pt x="677" y="1707" on="0"/>
        <pt x="674" y="1707" on="0"/>
        <pt x="569" y="1610" on="1"/>
        <pt x="508" y="1554" on="0"/>
        <pt x="444" y="1554" on="1"/>
        <pt x="436" y="1554" on="1"/>
        <pt x="362" y="1554" on="0"/>
        <pt x="362" y="1596" on="1"/>
        <pt x="362" y="1671" on="0"/>
        <pt x="559" y="1838" on="1"/>
        <pt x="611" y="1882" on="0"/>
        <pt x="753" y="1882" on="0"/>
        <pt x="800" y="1842" on="1"/>
        <pt x="996" y="1676" on="0"/>
      </contour>
      <contour>
        <pt x="1283" y="754" on="1"/>
        <pt x="1283" y="707" on="1"/>
        <pt x="1283" y="545" on="0"/>
        <pt x="1214" y="280" on="0"/>
        <pt x="1156" y="204" on="1"/>
        <pt x="1074" y="96" on="0"/>
        <pt x="828" y="-5" on="0"/>
        <pt x="705" y="-5" on="1"/>
        <pt x="657" y="-5" on="1"/>
        <pt x="521" y="-5" on="0"/>
        <pt x="285" y="92" on="0"/>
        <pt x="212" y="179" on="1"/>
        <pt x="66" y="353" on="0"/>
        <pt x="66" y="719" on="1"/>
        <pt x="66" y="742" on="1"/>
        <pt x="66" y="1259" on="0"/>
        <pt x="389" y="1399" on="1"/>
        <pt x="515" y="1454" on="0"/>
        <pt x="645" y="1454" on="1"/>
        <pt x="693" y="1454" on="1"/>
        <pt x="822" y="1454" on="0"/>
        <pt x="1060" y="1362" on="0"/>
        <pt x="1216" y="1177" on="0"/>
        <pt x="1283" y="897" on="0"/>
      </contour>
    </TTGlyph>
    <TTGlyph name="Odieresis" xMin="52" yMin="-7" xMax="1280" yMax="1822">
      <contour>
        <pt x="326" y="764" on="1"/>
        <pt x="326" y="701" on="1"/>
        <pt x="326" y="466" on="0"/>
        <pt x="396" y="356" on="1"/>
        <pt x="489" y="211" on="0"/>
        <pt x="663" y="211" on="1"/>
        <pt x="679" y="211" on="1"/>
        <pt x="836" y="211" on="0"/>
        <pt x="933" y="346" on="1"/>
        <pt x="1006" y="448" on="0"/>
        <pt x="1006" y="707" on="1"/>
        <pt x="1006" y="739" on="1"/>
        <pt x="1006" y="989" on="0"/>
        <pt x="935" y="1101" on="1"/>
        <pt x="892" y="1169" on="0"/>
        <pt x="761" y="1243" on="0"/>
        <pt x="685" y="1243" on="1"/>
        <pt x="638" y="1243" on="1"/>
        <pt x="494" y="1243" on="0"/>
        <pt x="400" y="1111" on="1"/>
        <pt x="326" y="1007" on="0"/>
      </contour>
      <contour>
        <pt x="585" y="1679" on="1"/>
        <pt x="585" y="1621" on="0"/>
        <pt x="548" y="1584" on="0"/>
        <pt x="512" y="1584" on="1"/>
        <pt x="508" y="1583" on="1"/>
        <pt x="503" y="1582" on="1"/>
        <pt x="468" y="1579" on="1"/>
        <pt x="436" y="1579" on="1"/>
        <pt x="414" y="1581" on="1"/>
        <pt x="389" y="1585" on="1"/>
        <pt x="339" y="1585" on="0"/>
        <pt x="339" y="1639" on="1"/>
        <pt x="334" y="1659" on="0"/>
        <pt x="334" y="1664" on="1"/>
        <pt x="332" y="1695" on="1"/>
        <pt x="332" y="1708" on="1"/>
        <pt x="333" y="1713" on="1"/>
        <pt x="333" y="1722" on="1"/>
        <pt x="334" y="1735" on="1"/>
        <pt x="339" y="1764" on="1"/>
        <pt x="339" y="1817" on="0"/>
        <pt x="406" y="1817" on="1"/>
        <pt x="414" y="1819" on="1"/>
        <pt x="450" y="1822" on="1"/>
        <pt x="482" y="1822" on="1"/>
        <pt x="516" y="1818" on="1"/>
        <pt x="581" y="1818" on="0"/>
        <pt x="581" y="1750" on="1"/>
        <pt x="583" y="1740" on="0"/>
        <pt x="583" y="1737" on="1"/>
        <pt x="585" y="1719" on="1"/>
      </contour>
      <contour>
        <pt x="745" y="1704" on="1"/>
        <pt x="749" y="1748" on="1"/>
        <pt x="749" y="1817" on="0"/>
        <pt x="820" y="1817" on="1"/>
        <pt x="828" y="1819" on="1"/>
        <pt x="863" y="1822" on="1"/>
        <pt x="895" y="1822" on="1"/>
        <pt x="930" y="1818" on="1"/>
        <pt x="973" y="1818" on="0"/>
        <pt x="999" y="1757" on="0"/>
        <pt x="999" y="1710" on="1"/>
        <pt x="999" y="1687" on="1"/>
        <pt x="997" y="1666" on="1"/>
        <pt x="993" y="1640" on="1"/>
        <pt x="993" y="1583" on="0"/>
        <pt x="920" y="1583" on="1"/>
        <pt x="912" y="1581" on="0"/>
        <pt x="907" y="1581" on="1"/>
        <pt x="885" y="1579" on="1"/>
        <pt x="849" y="1579" on="1"/>
        <pt x="827" y="1581" on="1"/>
        <pt x="802" y="1585" on="1"/>
        <pt x="749" y="1585" on="0"/>
        <pt x="749" y="1656" on="1"/>
        <pt x="747" y="1665" on="1"/>
        <pt x="747" y="1669" on="0"/>
        <pt x="747" y="1673" on="1"/>
        <pt x="745" y="1700" on="1"/>
      </contour>
      <contour>
        <pt x="625" y="-6" on="1"/>
        <pt x="507" y="-6" on="0"/>
        <pt x="271" y="97" on="0"/>
        <pt x="125" y="263" on="0"/>
        <pt x="52" y="544" on="0"/>
        <pt x="52" y="697" on="1"/>
        <pt x="52" y="767" on="1"/>
        <pt x="52" y="919" on="0"/>
        <pt x="127" y="1188" on="0"/>
        <pt x="272" y="1359" on="0"/>
        <pt x="511" y="1461" on="0"/>
        <pt x="635" y="1461" on="1"/>
        <pt x="683" y="1461" on="1"/>
        <pt x="825" y="1461" on="0"/>
        <pt x="949" y="1407" on="1"/>
        <pt x="1074" y="1353" on="0"/>
        <pt x="1142" y="1266" on="1"/>
        <pt x="1280" y="1090" on="0"/>
        <pt x="1280" y="734" on="1"/>
        <pt x="1279" y="711" on="1"/>
        <pt x="1279" y="356" on="0"/>
        <pt x="1138" y="189" on="1"/>
        <pt x="1066" y="104" on="0"/>
        <pt x="832" y="-7" on="0"/>
        <pt x="673" y="-7" on="1"/>
        <pt x="649" y="-6" on="1"/>
      </contour>
    </TTGlyph>
    <TTGlyph name="Ograve" xMin="65" yMin="7" xMax="1281" yMax="1911">
      <contour>
        <pt x="337" y="790" on="1"/>
        <pt x="337" y="697" on="1"/>
        <pt x="339" y="667" on="0"/>
        <pt x="339" y="652" on="1"/>
        <pt x="339" y="358" on="0"/>
        <pt x="519" y="257" on="1"/>
        <pt x="577" y="224" on="0"/>
        <pt x="655" y="224" on="1"/>
        <pt x="701" y="224" on="1"/>
        <pt x="864" y="224" on="0"/>
        <pt x="952" y="379" on="1"/>
        <pt x="1010" y="482" on="0"/>
        <pt x="1010" y="717" on="1"/>
        <pt x="1010" y="749" on="1"/>
        <pt x="1010" y="1002" on="0"/>
        <pt x="941" y="1110" on="1"/>
        <pt x="850" y="1252" on="0"/>
        <pt x="677" y="1252" on="1"/>
        <pt x="646" y="1252" on="1"/>
        <pt x="498" y="1252" on="0"/>
        <pt x="409" y="1120" on="1"/>
        <pt x="337" y="1014" on="0"/>
      </contour>
      <contour>
        <pt x="404" y="1838" on="1"/>
        <pt x="404" y="1855" on="1"/>
        <pt x="404" y="1869" on="0"/>
        <pt x="458" y="1911" on="0"/>
        <pt x="485" y="1911" on="1"/>
        <pt x="502" y="1911" on="1"/>
        <pt x="599" y="1911" on="0"/>
        <pt x="668" y="1850" on="1"/>
        <pt x="840" y="1697" on="0"/>
        <pt x="840" y="1633" on="1"/>
        <pt x="840" y="1617" on="1"/>
        <pt x="840" y="1576" on="0"/>
        <pt x="783" y="1576" on="1"/>
        <pt x="772" y="1576" on="1"/>
        <pt x="687" y="1576" on="0"/>
        <pt x="587" y="1646" on="1"/>
        <pt x="404" y="1774" on="0"/>
      </contour>
      <contour>
        <pt x="1281" y="791" on="1"/>
        <pt x="1281" y="697" on="1"/>
        <pt x="1281" y="554" on="0"/>
        <pt x="1210" y="282" on="0"/>
        <pt x="1075" y="116" on="0"/>
        <pt x="839" y="7" on="0"/>
        <pt x="704" y="7" on="1"/>
        <pt x="656" y="7" on="1"/>
        <pt x="526" y="7" on="0"/>
        <pt x="291" y="98" on="0"/>
        <pt x="138" y="272" on="0"/>
        <pt x="65" y="552" on="0"/>
        <pt x="65" y="708" on="1"/>
        <pt x="65" y="778" on="1"/>
        <pt x="65" y="921" on="0"/>
        <pt x="135" y="1189" on="0"/>
        <pt x="271" y="1362" on="0"/>
        <pt x="515" y="1468" on="0"/>
        <pt x="643" y="1468" on="1"/>
        <pt x="691" y="1468" on="1"/>
        <pt x="821" y="1468" on="0"/>
        <pt x="940" y="1422" on="1"/>
        <pt x="1160" y="1337" on="0"/>
        <pt x="1235" y="1096" on="1"/>
        <pt x="1281" y="947" on="0"/>
      </contour>
    </TTGlyph>
    <TTGlyph name="Oslash" xMin="79" yMin="-49" xMax="1269" yMax="1465">
      <contour>
        <pt x="348" y="753" on="1"/>
        <pt x="348" y="672" on="1"/>
        <pt x="349" y="660" on="1"/>
        <pt x="350" y="638" on="1"/>
        <pt x="351" y="627" on="0"/>
        <pt x="351" y="616" on="1"/>
        <pt x="351" y="507" on="0"/>
        <pt x="389" y="420" on="1"/>
        <pt x="397" y="402" on="0"/>
        <pt x="402" y="402" on="1"/>
        <pt x="408" y="402" on="1"/>
        <pt x="425" y="402" on="0"/>
        <pt x="534" y="581" on="1"/>
        <pt x="834" y="1072" on="0"/>
        <pt x="834" y="1142" on="1"/>
        <pt x="834" y="1151" on="1"/>
        <pt x="834" y="1169" on="0"/>
        <pt x="811" y="1186" on="1"/>
        <pt x="758" y="1225" on="0"/>
        <pt x="686" y="1225" on="1"/>
        <pt x="652" y="1225" on="1"/>
        <pt x="580" y="1225" on="0"/>
        <pt x="478" y="1168" on="0"/>
        <pt x="426" y="1092" on="1"/>
        <pt x="348" y="979" on="0"/>
      </contour>
      <contour>
        <pt x="1000" y="839" on="1"/>
        <pt x="1000" y="839" on="0"/>
        <pt x="998" y="894" on="1"/>
        <pt x="998" y="1033" on="0"/>
        <pt x="970" y="1033" on="1"/>
        <pt x="962" y="1033" on="0"/>
        <pt x="854" y="847" on="0"/>
        <pt x="842" y="828" on="1"/>
        <pt x="511" y="304" on="0"/>
        <pt x="511" y="181" on="0"/>
        <pt x="611" y="181" on="1"/>
        <pt x="621" y="182" on="1"/>
        <pt x="720" y="182" on="0"/>
        <pt x="788" y="226" on="1"/>
        <pt x="925" y="314" on="0"/>
        <pt x="969" y="508" on="1"/>
        <pt x="1001" y="649" on="0"/>
        <pt x="1001" y="782" on="1"/>
        <pt x="1001" y="827" on="1"/>
      </contour>
      <contour>
        <pt x="274" y="-49" on="1"/>
        <pt x="221" y="-49" on="0"/>
        <pt x="161" y="-4" on="0"/>
        <pt x="161" y="46" on="0"/>
        <pt x="188" y="141" on="0"/>
        <pt x="188" y="205" on="0"/>
        <pt x="121" y="396" on="0"/>
        <pt x="113" y="426" on="1"/>
        <pt x="79" y="549" on="0"/>
        <pt x="79" y="705" on="1"/>
        <pt x="79" y="759" on="1"/>
        <pt x="79" y="906" on="0"/>
        <pt x="160" y="1183" on="0"/>
        <pt x="321" y="1353" on="0"/>
        <pt x="535" y="1439" on="0"/>
        <pt x="781" y="1439" on="0"/>
        <pt x="918" y="1411" on="0"/>
        <pt x="961" y="1411" on="0"/>
        <pt x="1051" y="1465" on="0"/>
        <pt x="1072" y="1465" on="1"/>
        <pt x="1092" y="1465" on="1"/>
        <pt x="1131" y="1465" on="0"/>
        <pt x="1189" y="1423" on="0"/>
        <pt x="1189" y="1380" on="0"/>
        <pt x="1159" y="1265" on="0"/>
        <pt x="1159" y="1254" on="0"/>
        <pt x="1230" y="1016" on="1"/>
        <pt x="1269" y="885" on="0"/>
        <pt x="1269" y="740" on="1"/>
        <pt x="1269" y="659" on="1"/>
        <pt x="1269" y="348" on="0"/>
        <pt x="962" y="-18" on="0"/>
        <pt x="677" y="-18" on="1"/>
        <pt x="436" y="3" on="1"/>
        <pt x="395" y="3" on="0"/>
        <pt x="291" y="-49" on="0"/>
      </contour>
    </TTGlyph>
    <TTGlyph name="Otilde" xMin="72" yMin="-4" xMax="1298" yMax="1825">
      <contour>
        <pt x="342" y="777" on="1"/>
        <pt x="342" y="715" on="1"/>
        <pt x="342" y="484" on="0"/>
        <pt x="415" y="377" on="1"/>
        <pt x="458" y="314" on="0"/>
        <pt x="598" y="235" on="0"/>
        <pt x="685" y="235" on="1"/>
        <pt x="700" y="235" on="1"/>
        <pt x="861" y="235" on="0"/>
        <pt x="956" y="369" on="1"/>
        <pt x="1029" y="471" on="0"/>
        <pt x="1029" y="730" on="1"/>
        <pt x="1029" y="762" on="1"/>
        <pt x="1029" y="1009" on="0"/>
        <pt x="956" y="1116" on="1"/>
        <pt x="912" y="1180" on="0"/>
        <pt x="772" y="1256" on="0"/>
        <pt x="702" y="1256" on="1"/>
        <pt x="656" y="1256" on="1"/>
        <pt x="585" y="1256" on="0"/>
        <pt x="457" y="1183" on="0"/>
        <pt x="416" y="1124" on="1"/>
        <pt x="342" y="1015" on="0"/>
      </contour>
      <contour>
        <pt x="1040" y="1751" on="1"/>
        <pt x="1040" y="1733" on="1"/>
        <pt x="1040" y="1670" on="0"/>
        <pt x="940" y="1570" on="0"/>
        <pt x="861" y="1570" on="1"/>
        <pt x="852" y="1570" on="1"/>
        <pt x="806" y="1570" on="0"/>
        <pt x="578" y="1659" on="0"/>
        <pt x="514" y="1659" on="0"/>
        <pt x="429" y="1587" on="0"/>
        <pt x="327" y="1587" on="0"/>
        <pt x="327" y="1651" on="1"/>
        <pt x="328" y="1660" on="1"/>
        <pt x="328" y="1669" on="1"/>
        <pt x="328" y="1722" on="0"/>
        <pt x="423" y="1825" on="0"/>
        <pt x="497" y="1825" on="1"/>
        <pt x="523" y="1825" on="1"/>
        <pt x="570" y="1825" on="0"/>
        <pt x="791" y="1739" on="0"/>
        <pt x="859" y="1739" on="0"/>
        <pt x="938" y="1806" on="0"/>
        <pt x="1040" y="1806" on="0"/>
      </contour>
      <contour>
        <pt x="1298" y="759" on="1"/>
        <pt x="1298" y="689" on="1"/>
        <pt x="1298" y="521" on="0"/>
        <pt x="1216" y="255" on="0"/>
        <pt x="1077" y="96" on="0"/>
        <pt x="847" y="-4" on="0"/>
        <pt x="716" y="-4" on="1"/>
        <pt x="668" y="-4" on="1"/>
        <pt x="518" y="-4" on="0"/>
        <pt x="400" y="49" on="1"/>
        <pt x="174" y="151" on="0"/>
        <pt x="112" y="390" on="1"/>
        <pt x="72" y="546" on="0"/>
        <pt x="72" y="699" on="1"/>
        <pt x="72" y="769" on="1"/>
        <pt x="72" y="937" on="0"/>
        <pt x="155" y="1205" on="0"/>
        <pt x="301" y="1372" on="0"/>
        <pt x="544" y="1463" on="0"/>
        <pt x="678" y="1463" on="1"/>
        <pt x="703" y="1462" on="1"/>
        <pt x="726" y="1462" on="1"/>
        <pt x="864" y="1462" on="0"/>
        <pt x="1098" y="1348" on="0"/>
        <pt x="1228" y="1183" on="0"/>
        <pt x="1298" y="917" on="0"/>
      </contour>
    </TTGlyph>
    <TTGlyph name="P" xMin="145" yMin="3" xMax="1154" yMax="1420">
      <contour>
        <pt x="420" y="803" on="0"/>
        <pt x="420" y="748" on="0"/>
        <pt x="460" y="728" on="0"/>
        <pt x="511" y="728" on="1"/>
        <pt x="608" y="728" on="1"/>
        <pt x="897" y="728" on="0"/>
        <pt x="897" y="956" on="1"/>
        <pt x="897" y="995" on="1"/>
        <pt x="897" y="1100" on="0"/>
        <pt x="765" y="1220" on="0"/>
        <pt x="635" y="1220" on="1"/>
        <pt x="555" y="1220" on="1"/>
        <pt x="547" y="1219" on="1"/>
        <pt x="530" y="1219" on="1"/>
        <pt x="514" y="1217" on="0"/>
        <pt x="505" y="1217" on="1"/>
        <pt x="444" y="1217" on="0"/>
        <pt x="419" y="1156" on="0"/>
        <pt x="419" y="953" on="1"/>
        <pt x="418" y="935" on="1"/>
        <pt x="418" y="891" on="1"/>
        <pt x="417" y="856" on="1"/>
        <pt x="417" y="830" on="1"/>
      </contour>
      <contour>
        <pt x="678" y="1420" on="1"/>
        <pt x="784" y="1420" on="0"/>
        <pt x="974" y="1361" on="0"/>
        <pt x="1091" y="1259" on="0"/>
        <pt x="1154" y="1097" on="0"/>
        <pt x="1154" y="1013" on="1"/>
        <pt x="1154" y="964" on="1"/>
        <pt x="1154" y="734" on="0"/>
        <pt x="984" y="612" on="1"/>
        <pt x="898" y="550" on="0"/>
        <pt x="717" y="531" on="1"/>
        <pt x="447" y="501" on="0"/>
        <pt x="433" y="483" on="1"/>
        <pt x="397" y="436" on="0"/>
        <pt x="397" y="79" on="0"/>
        <pt x="349" y="3" on="0"/>
        <pt x="182" y="3" on="0"/>
        <pt x="145" y="30" on="0"/>
        <pt x="145" y="106" on="1"/>
        <pt x="145" y="127" on="1"/>
        <pt x="148" y="214" on="1"/>
        <pt x="150" y="258" on="1"/>
        <pt x="152" y="303" on="0"/>
        <pt x="152" y="325" on="1"/>
        <pt x="155" y="415" on="1"/>
        <pt x="157" y="460" on="1"/>
        <pt x="160" y="618" on="1"/>
        <pt x="160" y="663" on="1"/>
        <pt x="161" y="709" on="1"/>
        <pt x="161" y="743" on="0"/>
        <pt x="161" y="777" on="1"/>
        <pt x="163" y="865" on="1"/>
        <pt x="163" y="910" on="1"/>
        <pt x="163" y="1355" on="0"/>
        <pt x="200" y="1415" on="0"/>
        <pt x="383" y="1415" on="1"/>
        <pt x="608" y="1420" on="1"/>
      </contour>
    </TTGlyph>
    <TTGlyph name="Q" xMin="83" yMin="-202" xMax="1302" yMax="1430">
      <contour>
        <pt x="1043" y="696" on="1"/>
        <pt x="1043" y="744" on="1"/>
        <pt x="1043" y="973" on="0"/>
        <pt x="968" y="1081" on="1"/>
        <pt x="874" y="1218" on="0"/>
        <pt x="707" y="1218" on="1"/>
        <pt x="674" y="1218" on="1"/>
        <pt x="515" y="1218" on="0"/>
        <pt x="417" y="1076" on="1"/>
        <pt x="341" y="967" on="0"/>
        <pt x="341" y="739" on="1"/>
        <pt x="341" y="674" on="1"/>
        <pt x="341" y="445" on="0"/>
        <pt x="429" y="310" on="1"/>
        <pt x="455" y="269" on="0"/>
        <pt x="568" y="204" on="0"/>
        <pt x="624" y="204" on="1"/>
        <pt x="666" y="204" on="1"/>
        <pt x="760" y="204" on="0"/>
        <pt x="858" y="272" on="0"/>
        <pt x="971" y="423" on="1"/>
        <pt x="1043" y="519" on="0"/>
      </contour>
      <contour>
        <pt x="1051" y="-202" on="0"/>
        <pt x="870" y="-202" on="0"/>
        <pt x="721" y="-131" on="1"/>
        <pt x="338" y="51" on="0"/>
        <pt x="179" y="215" on="0"/>
        <pt x="83" y="502" on="0"/>
        <pt x="83" y="687" on="1"/>
        <pt x="83" y="741" on="1"/>
        <pt x="83" y="1065" on="0"/>
        <pt x="233" y="1246" on="1"/>
        <pt x="304" y="1330" on="0"/>
        <pt x="540" y="1430" on="0"/>
        <pt x="688" y="1430" on="1"/>
        <pt x="716" y="1430" on="1"/>
        <pt x="858" y="1430" on="0"/>
        <pt x="1094" y="1320" on="0"/>
        <pt x="1167" y="1230" on="1"/>
        <pt x="1302" y="1064" on="0"/>
        <pt x="1302" y="753" on="1"/>
        <pt x="1302" y="699" on="1"/>
        <pt x="1302" y="433" on="0"/>
        <pt x="1179" y="216" on="1"/>
        <pt x="1122" y="116" on="0"/>
        <pt x="1122" y="90" on="1"/>
        <pt x="1167" y="-94" on="1"/>
        <pt x="1167" y="-106" on="0"/>
      </contour>
    </TTGlyph>
    <TTGlyph name="R" xMin="136" yMin="-7" xMax="1165" yMax="1417">
      <contour>
        <pt x="458" y="765" on="1"/>
        <pt x="524" y="765" on="1"/>
        <pt x="533" y="766" on="1"/>
        <pt x="550" y="766" on="1"/>
        <pt x="733" y="766" on="0"/>
        <pt x="873" y="881" on="0"/>
        <pt x="873" y="993" on="1"/>
        <pt x="873" y="1012" on="1"/>
        <pt x="873" y="1116" on="0"/>
        <pt x="742" y="1214" on="0"/>
        <pt x="603" y="1214" on="1"/>
        <pt x="560" y="1214" on="1"/>
        <pt x="552" y="1213" on="1"/>
        <pt x="437" y="1213" on="0"/>
        <pt x="394" y="1189" on="0"/>
        <pt x="394" y="1122" on="1"/>
        <pt x="392" y="1106" on="0"/>
        <pt x="392" y="1093" on="1"/>
        <pt x="392" y="1022" on="1"/>
        <pt x="391" y="996" on="1"/>
        <pt x="391" y="860" on="1"/>
        <pt x="394" y="836" on="0"/>
        <pt x="394" y="821" on="1"/>
        <pt x="394" y="765" on="0"/>
      </contour>
      <contour>
        <pt x="887" y="596" on="1"/>
        <pt x="887" y="590" on="0"/>
        <pt x="929" y="516" on="0"/>
        <pt x="1165" y="56" on="0"/>
        <pt x="1165" y="37" on="1"/>
        <pt x="1165" y="-4" on="0"/>
        <pt x="957" y="-4" on="0"/>
        <pt x="910" y="49" on="1"/>
        <pt x="878" y="85" on="0"/>
        <pt x="694" y="468" on="0"/>
        <pt x="597" y="555" on="0"/>
        <pt x="491" y="555" on="1"/>
        <pt x="420" y="555" on="0"/>
        <pt x="392" y="446" on="0"/>
        <pt x="392" y="58" on="0"/>
        <pt x="338" y="-7" on="0"/>
        <pt x="254" y="-7" on="1"/>
        <pt x="225" y="-7" on="1"/>
        <pt x="165" y="-7" on="0"/>
        <pt x="136" y="30" on="0"/>
        <pt x="136" y="116" on="1"/>
        <pt x="136" y="500" on="1"/>
        <pt x="137" y="530" on="1"/>
        <pt x="137" y="706" on="1"/>
        <pt x="137" y="1328" on="0"/>
        <pt x="166" y="1399" on="0"/>
        <pt x="288" y="1417" on="0"/>
        <pt x="493" y="1417" on="1"/>
        <pt x="612" y="1417" on="1"/>
        <pt x="1003" y="1417" on="0"/>
        <pt x="1097" y="1186" on="1"/>
        <pt x="1125" y="1117" on="0"/>
        <pt x="1125" y="902" on="0"/>
        <pt x="1038" y="738" on="0"/>
        <pt x="887" y="624" on="0"/>
      </contour>
    </TTGlyph>
    <TTGlyph name="S" xMin="107" yMin="-21" xMax="1086" yMax="1429">
      <contour>
        <pt x="107" y="155" on="0"/>
        <pt x="107" y="255" on="0"/>
        <pt x="168" y="314" on="0"/>
        <pt x="209" y="314" on="0"/>
        <pt x="482" y="195" on="0"/>
        <pt x="596" y="195" on="1"/>
        <pt x="832" y="195" on="0"/>
        <pt x="833" y="361" on="1"/>
        <pt x="833" y="461" on="0"/>
        <pt x="752" y="517" on="1"/>
        <pt x="695" y="556" on="0"/>
        <pt x="305" y="705" on="0"/>
        <pt x="132" y="882" on="0"/>
        <pt x="132" y="1029" on="1"/>
        <pt x="132" y="1309" on="0"/>
        <pt x="402" y="1397" on="1"/>
        <pt x="500" y="1429" on="0"/>
        <pt x="604" y="1429" on="1"/>
        <pt x="639" y="1429" on="1"/>
        <pt x="772" y="1429" on="0"/>
        <pt x="1031" y="1318" on="0"/>
        <pt x="1031" y="1243" on="1"/>
        <pt x="1031" y="1200" on="0"/>
        <pt x="990" y="1130" on="0"/>
        <pt x="952" y="1130" on="1"/>
        <pt x="942" y="1130" on="0"/>
        <pt x="797" y="1191" on="1"/>
        <pt x="714" y="1226" on="0"/>
        <pt x="577" y="1226" on="1"/>
        <pt x="495" y="1226" on="0"/>
        <pt x="379" y="1132" on="0"/>
        <pt x="379" y="1071" on="1"/>
        <pt x="379" y="975" on="0"/>
        <pt x="464" y="915" on="1"/>
        <pt x="501" y="889" on="0"/>
        <pt x="880" y="744" on="0"/>
        <pt x="1034" y="604" on="0"/>
        <pt x="1086" y="473" on="0"/>
        <pt x="1086" y="404" on="1"/>
        <pt x="1086" y="370" on="1"/>
        <pt x="1086" y="193" on="0"/>
        <pt x="824" y="-21" on="0"/>
        <pt x="414" y="-21" on="0"/>
        <pt x="187" y="73" on="0"/>
      </contour>
    </TTGlyph>
    <TTGlyph name="Scaron" xMin="89" yMin="21" xMax="1095" yMax="1885">
      <contour>
        <pt x="913" y="1837" on="1"/>
        <pt x="913" y="1822" on="1"/>
        <pt x="913" y="1767" on="0"/>
        <pt x="737" y="1606" on="1"/>
        <pt x="662" y="1537" on="0"/>
        <pt x="592" y="1537" on="1"/>
        <pt x="584" y="1537" on="1"/>
        <pt x="525" y="1537" on="0"/>
        <pt x="484" y="1578" on="1"/>
        <pt x="283" y="1779" on="0"/>
        <pt x="283" y="1842" on="1"/>
        <pt x="283" y="1885" on="0"/>
        <pt x="360" y="1885" on="1"/>
        <pt x="376" y="1885" on="1"/>
        <pt x="438" y="1885" on="0"/>
        <pt x="589" y="1734" on="0"/>
        <pt x="610" y="1734" on="1"/>
        <pt x="612" y="1734" on="0"/>
        <pt x="676" y="1804" on="0"/>
        <pt x="700" y="1826" on="1"/>
        <pt x="763" y="1884" on="0"/>
        <pt x="820" y="1884" on="1"/>
        <pt x="913" y="1884" on="0"/>
      </contour>
      <contour>
        <pt x="603" y="247" on="1"/>
        <pt x="820" y="247" on="0"/>
        <pt x="820" y="415" on="1"/>
        <pt x="820" y="513" on="0"/>
        <pt x="727" y="571" on="1"/>
        <pt x="695" y="591" on="0"/>
        <pt x="279" y="738" on="0"/>
        <pt x="155" y="850" on="0"/>
        <pt x="96" y="974" on="0"/>
        <pt x="96" y="1072" on="1"/>
        <pt x="96" y="1351" on="0"/>
        <pt x="373" y="1436" on="1"/>
        <pt x="475" y="1468" on="0"/>
        <pt x="576" y="1468" on="1"/>
        <pt x="611" y="1468" on="1"/>
        <pt x="809" y="1468" on="0"/>
        <pt x="937" y="1406" on="1"/>
        <pt x="989" y="1381" on="0"/>
        <pt x="1037" y="1325" on="0"/>
        <pt x="1037" y="1228" on="0"/>
        <pt x="984" y="1167" on="0"/>
        <pt x="958" y="1167" on="0"/>
        <pt x="690" y="1246" on="0"/>
        <pt x="485" y="1246" on="0"/>
        <pt x="369" y="1165" on="0"/>
        <pt x="369" y="1109" on="1"/>
        <pt x="369" y="1007" on="0"/>
        <pt x="459" y="952" on="1"/>
        <pt x="470" y="946" on="0"/>
        <pt x="898" y="792" on="0"/>
        <pt x="1032" y="671" on="0"/>
        <pt x="1095" y="548" on="0"/>
        <pt x="1095" y="457" on="1"/>
        <pt x="1095" y="421" on="1"/>
        <pt x="1095" y="339" on="0"/>
        <pt x="1061" y="259" on="1"/>
        <pt x="960" y="21" on="0"/>
        <pt x="577" y="21" on="1"/>
        <pt x="541" y="21" on="1"/>
        <pt x="354" y="21" on="0"/>
        <pt x="217" y="84" on="1"/>
        <pt x="142" y="119" on="0"/>
        <pt x="89" y="189" on="0"/>
        <pt x="89" y="282" on="0"/>
        <pt x="144" y="352" on="0"/>
        <pt x="197" y="352" on="0"/>
        <pt x="303" y="308" on="0"/>
        <pt x="487" y="247" on="0"/>
      </contour>
    </TTGlyph>
    <TTGlyph name="T" xMin="49" yMin="-3" xMax="1128" yMax="1419">
      <contour>
        <pt x="950" y="1419" on="1"/>
        <pt x="1067" y="1419" on="0"/>
        <pt x="1128" y="1390" on="0"/>
        <pt x="1128" y="1258" on="0"/>
        <pt x="1050" y="1207" on="0"/>
        <pt x="767" y="1207" on="0"/>
        <pt x="706" y="1095" on="0"/>
        <pt x="706" y="745" on="1"/>
        <pt x="699" y="295" on="1"/>
        <pt x="699" y="68" on="0"/>
        <pt x="674" y="-3" on="0"/>
        <pt x="576" y="-3" on="1"/>
        <pt x="528" y="-3" on="1"/>
        <pt x="474" y="-3" on="0"/>
        <pt x="447" y="53" on="0"/>
        <pt x="447" y="165" on="1"/>
        <pt x="448" y="190" on="1"/>
        <pt x="449" y="215" on="0"/>
        <pt x="449" y="240" on="1"/>
        <pt x="451" y="289" on="1"/>
        <pt x="458" y="461" on="0"/>
        <pt x="458" y="487" on="1"/>
        <pt x="458" y="539" on="1"/>
        <pt x="459" y="615" on="1"/>
        <pt x="459" y="666" on="1"/>
        <pt x="460" y="691" on="1"/>
        <pt x="460" y="742" on="1"/>
        <pt x="460" y="1083" on="0"/>
        <pt x="436" y="1171" on="0"/>
        <pt x="393" y="1201" on="0"/>
        <pt x="311" y="1201" on="1"/>
        <pt x="169" y="1198" on="1"/>
        <pt x="49" y="1198" on="0"/>
        <pt x="49" y="1306" on="1"/>
        <pt x="49" y="1327" on="1"/>
        <pt x="49" y="1380" on="0"/>
        <pt x="117" y="1408" on="0"/>
        <pt x="242" y="1408" on="1"/>
        <pt x="415" y="1413" on="1"/>
        <pt x="440" y="1414" on="1"/>
        <pt x="465" y="1415" on="0"/>
        <pt x="490" y="1415" on="1"/>
        <pt x="516" y="1416" on="1"/>
        <pt x="542" y="1417" on="0"/>
        <pt x="566" y="1417" on="1"/>
        <pt x="695" y="1419" on="1"/>
      </contour>
    </TTGlyph>
    <TTGlyph name="Thorn" xMin="136" yMin="-29" xMax="1095" yMax="1418">
      <contour>
        <pt x="522" y="473" on="1"/>
        <pt x="591" y="473" on="1"/>
        <pt x="700" y="473" on="0"/>
        <pt x="826" y="611" on="0"/>
        <pt x="826" y="733" on="1"/>
        <pt x="826" y="742" on="1"/>
        <pt x="826" y="844" on="0"/>
        <pt x="711" y="985" on="0"/>
        <pt x="614" y="985" on="1"/>
        <pt x="596" y="987" on="1"/>
        <pt x="561" y="988" on="1"/>
        <pt x="535" y="988" on="1"/>
        <pt x="456" y="988" on="0"/>
        <pt x="406" y="948" on="0"/>
        <pt x="406" y="887" on="1"/>
        <pt x="406" y="561" on="1"/>
        <pt x="406" y="511" on="0"/>
        <pt x="465" y="473" on="0"/>
      </contour>
      <contour>
        <pt x="1095" y="760" on="1"/>
        <pt x="1095" y="735" on="1"/>
        <pt x="1095" y="377" on="0"/>
        <pt x="782" y="294" on="1"/>
        <pt x="709" y="275" on="0"/>
        <pt x="441" y="275" on="0"/>
        <pt x="406" y="243" on="0"/>
        <pt x="406" y="27" on="0"/>
        <pt x="339" y="-29" on="0"/>
        <pt x="149" y="-29" on="0"/>
        <pt x="140" y="32" on="1"/>
        <pt x="138" y="46" on="0"/>
        <pt x="138" y="421" on="1"/>
        <pt x="138" y="1202" on="1"/>
        <pt x="136" y="1310" on="1"/>
        <pt x="136" y="1353" on="1"/>
        <pt x="136" y="1418" on="0"/>
        <pt x="211" y="1418" on="1"/>
        <pt x="276" y="1418" on="1"/>
        <pt x="356" y="1418" on="0"/>
        <pt x="397" y="1362" on="0"/>
        <pt x="407" y="1220" on="0"/>
        <pt x="438" y="1185" on="0"/>
        <pt x="526" y="1185" on="1"/>
        <pt x="639" y="1187" on="1"/>
        <pt x="855" y="1187" on="0"/>
        <pt x="983" y="1063" on="1"/>
        <pt x="1035" y="1013" on="0"/>
        <pt x="1095" y="849" on="0"/>
      </contour>
    </TTGlyph>
    <TTGlyph name="U" xMin="141" yMin="-16" xMax="1231" yMax="1417">
      <contour>
        <pt x="415" y="572" on="1"/>
        <pt x="415" y="381" on="0"/>
        <pt x="555" y="195" on="0"/>
        <pt x="857" y="195" on="0"/>
        <pt x="925" y="317" on="1"/>
        <pt x="980" y="415" on="0"/>
        <pt x="980" y="694" on="1"/>
        <pt x="982" y="765" on="1"/>
        <pt x="985" y="1012" on="1"/>
        <pt x="985" y="1295" on="0"/>
        <pt x="999" y="1345" on="1"/>
        <pt x="1019" y="1417" on="0"/>
        <pt x="1214" y="1417" on="0"/>
        <pt x="1223" y="1378" on="1"/>
        <pt x="1225" y="1369" on="0"/>
        <pt x="1225" y="1101" on="1"/>
        <pt x="1227" y="927" on="1"/>
        <pt x="1227" y="892" on="0"/>
        <pt x="1228" y="858" on="1"/>
        <pt x="1231" y="755" on="1"/>
        <pt x="1231" y="651" on="1"/>
        <pt x="1231" y="446" on="0"/>
        <pt x="1212" y="344" on="1"/>
        <pt x="1171" y="128" on="0"/>
        <pt x="961" y="40" on="1"/>
        <pt x="827" y="-16" on="0"/>
        <pt x="689" y="-16" on="1"/>
        <pt x="651" y="-16" on="1"/>
        <pt x="373" y="-16" on="0"/>
        <pt x="241" y="175" on="1"/>
        <pt x="189" y="250" on="0"/>
        <pt x="158" y="431" on="0"/>
        <pt x="158" y="976" on="0"/>
        <pt x="150" y="1152" on="1"/>
        <pt x="146" y="1215" on="1"/>
        <pt x="141" y="1294" on="0"/>
        <pt x="141" y="1310" on="1"/>
        <pt x="141" y="1342" on="1"/>
        <pt x="141" y="1400" on="0"/>
        <pt x="291" y="1400" on="0"/>
        <pt x="364" y="1368" on="0"/>
        <pt x="378" y="1303" on="1"/>
        <pt x="412" y="1147" on="0"/>
        <pt x="412" y="748" on="1"/>
        <pt x="414" y="678" on="1"/>
        <pt x="415" y="643" on="0"/>
      </contour>
    </TTGlyph>
    <TTGlyph name="Uacute" xMin="121" yMin="-12" xMax="1212" yMax="1881">
      <contour>
        <pt x="587" y="1547" on="1"/>
        <pt x="563" y="1547" on="1"/>
        <pt x="512" y="1547" on="0"/>
        <pt x="512" y="1590" on="1"/>
        <pt x="512" y="1595" on="1"/>
        <pt x="513" y="1601" on="1"/>
        <pt x="513" y="1661" on="0"/>
        <pt x="688" y="1817" on="1"/>
        <pt x="760" y="1881" on="0"/>
        <pt x="860" y="1881" on="1"/>
        <pt x="871" y="1881" on="1"/>
        <pt x="901" y="1881" on="0"/>
        <pt x="953" y="1841" on="0"/>
        <pt x="953" y="1823" on="1"/>
        <pt x="952" y="1817" on="1"/>
        <pt x="952" y="1812" on="1"/>
        <pt x="952" y="1749" on="0"/>
        <pt x="762" y="1616" on="1"/>
        <pt x="663" y="1547" on="0"/>
      </contour>
      <contour>
        <pt x="388" y="1307" on="0"/>
        <pt x="388" y="438" on="0"/>
        <pt x="450" y="280" on="0"/>
        <pt x="569" y="204" on="0"/>
        <pt x="772" y="204" on="0"/>
        <pt x="889" y="287" on="0"/>
        <pt x="951" y="454" on="0"/>
        <pt x="951" y="1302" on="0"/>
        <pt x="984" y="1397" on="0"/>
        <pt x="1056" y="1427" on="0"/>
        <pt x="1187" y="1427" on="0"/>
        <pt x="1212" y="1404" on="0"/>
        <pt x="1212" y="1359" on="1"/>
        <pt x="1212" y="1082" on="1"/>
        <pt x="1211" y="1047" on="1"/>
        <pt x="1211" y="747" on="1"/>
        <pt x="1211" y="498" on="0"/>
        <pt x="1191" y="303" on="0"/>
        <pt x="1149" y="225" on="1"/>
        <pt x="1085" y="107" on="0"/>
        <pt x="847" y="-12" on="0"/>
        <pt x="699" y="-12" on="1"/>
        <pt x="660" y="-12" on="1"/>
        <pt x="328" y="-12" on="0"/>
        <pt x="197" y="205" on="1"/>
        <pt x="144" y="292" on="0"/>
        <pt x="134" y="396" on="1"/>
        <pt x="124" y="502" on="0"/>
        <pt x="124" y="738" on="1"/>
        <pt x="124" y="1060" on="1"/>
        <pt x="122" y="1231" on="1"/>
        <pt x="121" y="1265" on="1"/>
        <pt x="121" y="1333" on="1"/>
        <pt x="121" y="1405" on="0"/>
        <pt x="157" y="1429" on="0"/>
        <pt x="204" y="1429" on="1"/>
        <pt x="238" y="1429" on="1"/>
        <pt x="356" y="1429" on="0"/>
        <pt x="376" y="1353" on="1"/>
      </contour>
    </TTGlyph>
    <TTGlyph name="Ucircumflex" xMin="120" yMin="-19" xMax="1214" yMax="1867">
      <contour>
        <pt x="990" y="1582" on="1"/>
        <pt x="990" y="1575" on="1"/>
        <pt x="990" y="1541" on="0"/>
        <pt x="899" y="1541" on="1"/>
        <pt x="839" y="1541" on="0"/>
        <pt x="774" y="1601" on="1"/>
        <pt x="673" y="1694" on="0"/>
        <pt x="666" y="1694" on="0"/>
        <pt x="560" y="1596" on="1"/>
        <pt x="498" y="1539" on="0"/>
        <pt x="434" y="1539" on="1"/>
        <pt x="425" y="1539" on="1"/>
        <pt x="350" y="1539" on="0"/>
        <pt x="350" y="1572" on="1"/>
        <pt x="350" y="1579" on="1"/>
        <pt x="350" y="1655" on="0"/>
        <pt x="548" y="1823" on="1"/>
        <pt x="600" y="1867" on="0"/>
        <pt x="746" y="1867" on="0"/>
        <pt x="791" y="1826" on="1"/>
        <pt x="990" y="1644" on="0"/>
      </contour>
      <contour>
        <pt x="953" y="451" on="0"/>
        <pt x="953" y="1299" on="0"/>
        <pt x="983" y="1388" on="0"/>
        <pt x="1057" y="1419" on="0"/>
        <pt x="1189" y="1419" on="0"/>
        <pt x="1214" y="1396" on="0"/>
        <pt x="1214" y="1316" on="1"/>
        <pt x="1213" y="1282" on="1"/>
        <pt x="1213" y="902" on="1"/>
        <pt x="1212" y="490" on="0"/>
        <pt x="1200" y="382" on="1"/>
        <pt x="1188" y="276" on="0"/>
        <pt x="1129" y="184" on="1"/>
        <pt x="998" y="-18" on="0"/>
        <pt x="650" y="-19" on="1"/>
        <pt x="302" y="-19" on="0"/>
        <pt x="181" y="226" on="1"/>
        <pt x="138" y="311" on="0"/>
        <pt x="130" y="420" on="1"/>
        <pt x="123" y="518" on="0"/>
        <pt x="123" y="728" on="1"/>
        <pt x="123" y="754" on="0"/>
        <pt x="123" y="782" on="1"/>
        <pt x="123" y="1120" on="1"/>
        <pt x="120" y="1290" on="1"/>
        <pt x="120" y="1371" on="0"/>
        <pt x="126" y="1389" on="1"/>
        <pt x="137" y="1421" on="0"/>
        <pt x="202" y="1421" on="1"/>
        <pt x="236" y="1421" on="1"/>
        <pt x="355" y="1421" on="0"/>
        <pt x="375" y="1346" on="1"/>
        <pt x="387" y="1301" on="0"/>
        <pt x="387" y="437" on="0"/>
        <pt x="417" y="355" on="1"/>
        <pt x="475" y="198" on="0"/>
        <pt x="860" y="198" on="0"/>
        <pt x="921" y="364" on="1"/>
      </contour>
    </TTGlyph>
    <TTGlyph name="Udieresis" xMin="109" yMin="-17" xMax="1211" yMax="1806">
      <contour>
        <pt x="328" y="1696" on="1"/>
        <pt x="331" y="1731" on="1"/>
        <pt x="331" y="1801" on="0"/>
        <pt x="406" y="1801" on="1"/>
        <pt x="414" y="1803" on="1"/>
        <pt x="454" y="1806" on="1"/>
        <pt x="463" y="1806" on="1"/>
        <pt x="468" y="1805" on="1"/>
        <pt x="499" y="1803" on="1"/>
        <pt x="515" y="1799" on="0"/>
        <pt x="524" y="1799" on="1"/>
        <pt x="575" y="1799" on="0"/>
        <pt x="575" y="1741" on="1"/>
        <pt x="578" y="1727" on="0"/>
        <pt x="578" y="1724" on="1"/>
        <pt x="581" y="1698" on="1"/>
        <pt x="581" y="1666" on="1"/>
        <pt x="577" y="1632" on="1"/>
        <pt x="577" y="1561" on="0"/>
        <pt x="463" y="1561" on="1"/>
        <pt x="436" y="1561" on="1"/>
        <pt x="431" y="1562" on="1"/>
        <pt x="401" y="1565" on="1"/>
        <pt x="397" y="1566" on="0"/>
        <pt x="393" y="1566" on="1"/>
        <pt x="331" y="1566" on="0"/>
        <pt x="331" y="1639" on="1"/>
        <pt x="329" y="1647" on="1"/>
        <pt x="329" y="1656" on="1"/>
        <pt x="327" y="1682" on="1"/>
        <pt x="327" y="1691" on="1"/>
      </contour>
      <contour>
        <pt x="989" y="1627" on="1"/>
        <pt x="989" y="1565" on="0"/>
        <pt x="911" y="1565" on="1"/>
        <pt x="894" y="1562" on="1"/>
        <pt x="885" y="1562" on="1"/>
        <pt x="871" y="1561" on="1"/>
        <pt x="848" y="1561" on="1"/>
        <pt x="844" y="1562" on="1"/>
        <pt x="814" y="1565" on="1"/>
        <pt x="809" y="1566" on="0"/>
        <pt x="805" y="1566" on="1"/>
        <pt x="746" y="1566" on="0"/>
        <pt x="746" y="1626" on="1"/>
        <pt x="743" y="1640" on="0"/>
        <pt x="743" y="1643" on="1"/>
        <pt x="740" y="1669" on="1"/>
        <pt x="740" y="1701" on="1"/>
        <pt x="746" y="1744" on="1"/>
        <pt x="746" y="1801" on="0"/>
        <pt x="819" y="1801" on="1"/>
        <pt x="827" y="1803" on="1"/>
        <pt x="867" y="1806" on="1"/>
        <pt x="877" y="1806" on="1"/>
        <pt x="881" y="1805" on="1"/>
        <pt x="912" y="1803" on="1"/>
        <pt x="916" y="1802" on="0"/>
        <pt x="920" y="1802" on="1"/>
        <pt x="941" y="1798" on="1"/>
        <pt x="987" y="1798" on="0"/>
        <pt x="987" y="1745" on="1"/>
        <pt x="991" y="1727" on="0"/>
        <pt x="991" y="1723" on="1"/>
        <pt x="994" y="1697" on="1"/>
        <pt x="994" y="1666" on="1"/>
        <pt x="993" y="1662" on="1"/>
        <pt x="993" y="1653" on="1"/>
        <pt x="989" y="1637" on="0"/>
      </contour>
      <contour>
        <pt x="948" y="450" on="0"/>
        <pt x="948" y="1304" on="0"/>
        <pt x="979" y="1394" on="0"/>
        <pt x="1053" y="1427" on="0"/>
        <pt x="1183" y="1427" on="0"/>
        <pt x="1211" y="1403" on="0"/>
        <pt x="1211" y="1358" on="1"/>
        <pt x="1211" y="1255" on="1"/>
        <pt x="1210" y="1220" on="1"/>
        <pt x="1210" y="943" on="1"/>
        <pt x="1210" y="511" on="0"/>
        <pt x="1205" y="452" on="1"/>
        <pt x="1193" y="310" on="0"/>
        <pt x="1146" y="222" on="1"/>
        <pt x="1019" y="-17" on="0"/>
        <pt x="301" y="-17" on="0"/>
        <pt x="172" y="229" on="1"/>
        <pt x="127" y="314" on="0"/>
        <pt x="112" y="534" on="0"/>
        <pt x="112" y="796" on="1"/>
        <pt x="112" y="1126" on="1"/>
        <pt x="109" y="1331" on="1"/>
        <pt x="109" y="1404" on="0"/>
        <pt x="143" y="1428" on="0"/>
        <pt x="191" y="1428" on="1"/>
        <pt x="225" y="1428" on="1"/>
        <pt x="345" y="1428" on="0"/>
        <pt x="366" y="1354" on="1"/>
        <pt x="378" y="1311" on="0"/>
        <pt x="378" y="442" on="0"/>
        <pt x="408" y="360" on="1"/>
        <pt x="466" y="201" on="0"/>
        <pt x="852" y="201" on="0"/>
        <pt x="916" y="367" on="1"/>
      </contour>
    </TTGlyph>
    <TTGlyph name="Ugrave" xMin="120" yMin="-17" xMax="1214" yMax="1874">
      <contour>
        <pt x="396" y="1807" on="1"/>
        <pt x="396" y="1818" on="1"/>
        <pt x="396" y="1831" on="0"/>
        <pt x="451" y="1874" on="0"/>
        <pt x="484" y="1874" on="1"/>
        <pt x="489" y="1873" on="1"/>
        <pt x="495" y="1873" on="1"/>
        <pt x="584" y="1873" on="0"/>
        <pt x="728" y="1760" on="0"/>
        <pt x="812" y="1653" on="1"/>
        <pt x="835" y="1623" on="0"/>
        <pt x="835" y="1588" on="1"/>
        <pt x="835" y="1582" on="1"/>
        <pt x="835" y="1537" on="0"/>
        <pt x="783" y="1537" on="1"/>
        <pt x="760" y="1537" on="1"/>
        <pt x="736" y="1541" on="0"/>
        <pt x="729" y="1541" on="1"/>
        <pt x="689" y="1541" on="0"/>
        <pt x="470" y="1694" on="1"/>
        <pt x="396" y="1746" on="0"/>
      </contour>
      <contour>
        <pt x="417" y="357" on="1"/>
        <pt x="475" y="199" on="0"/>
        <pt x="859" y="199" on="0"/>
        <pt x="921" y="366" on="1"/>
        <pt x="953" y="452" on="0"/>
        <pt x="953" y="1301" on="0"/>
        <pt x="983" y="1390" on="0"/>
        <pt x="1057" y="1421" on="0"/>
        <pt x="1188" y="1421" on="0"/>
        <pt x="1214" y="1397" on="0"/>
        <pt x="1214" y="1318" on="1"/>
        <pt x="1213" y="1283" on="1"/>
        <pt x="1213" y="904" on="1"/>
        <pt x="1213" y="492" on="0"/>
        <pt x="1191" y="299" on="0"/>
        <pt x="1149" y="220" on="1"/>
        <pt x="1088" y="103" on="0"/>
        <pt x="847" y="-17" on="0"/>
        <pt x="700" y="-17" on="1"/>
        <pt x="661" y="-17" on="1"/>
        <pt x="302" y="-17" on="0"/>
        <pt x="181" y="228" on="1"/>
        <pt x="138" y="314" on="0"/>
        <pt x="123" y="532" on="0"/>
        <pt x="123" y="784" on="1"/>
        <pt x="123" y="1122" on="1"/>
        <pt x="120" y="1292" on="1"/>
        <pt x="120" y="1374" on="0"/>
        <pt x="126" y="1391" on="1"/>
        <pt x="137" y="1423" on="0"/>
        <pt x="203" y="1423" on="1"/>
        <pt x="236" y="1423" on="1"/>
        <pt x="355" y="1423" on="0"/>
        <pt x="375" y="1348" on="1"/>
        <pt x="387" y="1303" on="0"/>
        <pt x="387" y="439" on="0"/>
      </contour>
    </TTGlyph>
    <TTGlyph name="V" xMin="52" yMin="0" xMax="1249" yMax="1415">
      <contour>
        <pt x="1148" y="1415" on="1"/>
        <pt x="1176" y="1415" on="1"/>
        <pt x="1249" y="1415" on="0"/>
        <pt x="1249" y="1374" on="1"/>
        <pt x="1249" y="1352" on="0"/>
        <pt x="1189" y="1147" on="1"/>
        <pt x="1027" y="593" on="0"/>
        <pt x="857" y="180" on="1"/>
        <pt x="804" y="50" on="0"/>
        <pt x="752" y="0" on="0"/>
        <pt x="599" y="0" on="0"/>
        <pt x="532" y="28" on="0"/>
        <pt x="490" y="122" on="0"/>
        <pt x="282" y="735" on="0"/>
        <pt x="52" y="1302" on="0"/>
        <pt x="52" y="1352" on="1"/>
        <pt x="52" y="1396" on="0"/>
        <pt x="156" y="1396" on="1"/>
        <pt x="220" y="1396" on="0"/>
        <pt x="304" y="1350" on="0"/>
        <pt x="352" y="1252" on="1"/>
        <pt x="412" y="1131" on="0"/>
        <pt x="665" y="322" on="0"/>
        <pt x="674" y="322" on="0"/>
        <pt x="869" y="898" on="0"/>
        <pt x="980" y="1276" on="0"/>
        <pt x="1004" y="1329" on="1"/>
        <pt x="1044" y="1415" on="0"/>
      </contour>
    </TTGlyph>
    <TTGlyph name="W" xMin="80" yMin="38" xMax="1766" yMax="1387">
      <contour>
        <pt x="1288" y="443" on="0"/>
        <pt x="1314" y="443" on="0"/>
        <pt x="1494" y="1163" on="0"/>
        <pt x="1568" y="1328" on="0"/>
        <pt x="1646" y="1387" on="0"/>
        <pt x="1713" y="1387" on="1"/>
        <pt x="1766" y="1387" on="0"/>
        <pt x="1766" y="1316" on="1"/>
        <pt x="1766" y="1282" on="0"/>
        <pt x="1679" y="884" on="1"/>
        <pt x="1590" y="477" on="0"/>
        <pt x="1492" y="196" on="1"/>
        <pt x="1437" y="38" on="0"/>
        <pt x="1302" y="38" on="1"/>
        <pt x="1260" y="38" on="0"/>
        <pt x="1228" y="68" on="1"/>
        <pt x="1156" y="134" on="0"/>
        <pt x="942" y="871" on="0"/>
        <pt x="928" y="871" on="1"/>
        <pt x="922" y="871" on="0"/>
        <pt x="743" y="290" on="0"/>
        <pt x="702" y="206" on="1"/>
        <pt x="632" y="63" on="0"/>
        <pt x="562" y="63" on="1"/>
        <pt x="429" y="63" on="0"/>
        <pt x="377" y="212" on="1"/>
        <pt x="318" y="412" on="1"/>
        <pt x="304" y="461" on="0"/>
        <pt x="265" y="603" on="0"/>
        <pt x="208" y="795" on="0"/>
        <pt x="195" y="844" on="1"/>
        <pt x="159" y="981" on="1"/>
        <pt x="141" y="1051" on="0"/>
        <pt x="80" y="1266" on="0"/>
        <pt x="80" y="1371" on="0"/>
        <pt x="146" y="1371" on="1"/>
        <pt x="280" y="1371" on="0"/>
        <pt x="344" y="1216" on="1"/>
        <pt x="380" y="1129" on="0"/>
        <pt x="568" y="436" on="0"/>
        <pt x="584" y="436" on="0"/>
        <pt x="728" y="905" on="0"/>
        <pt x="805" y="1223" on="0"/>
        <pt x="818" y="1246" on="1"/>
        <pt x="851" y="1306" on="0"/>
        <pt x="979" y="1306" on="1"/>
        <pt x="1050" y="1306" on="0"/>
        <pt x="1078" y="1243" on="1"/>
        <pt x="1118" y="1154" on="0"/>
      </contour>
    </TTGlyph>
    <TTGlyph name="X" xMin="81" yMin="1" xMax="1218" yMax="1408">
      <contour>
        <pt x="987" y="1408" on="0"/>
        <pt x="1194" y="1408" on="0"/>
        <pt x="1194" y="1388" on="1"/>
        <pt x="1194" y="1353" on="0"/>
        <pt x="822" y="770" on="0"/>
        <pt x="822" y="670" on="0"/>
        <pt x="1115" y="226" on="1"/>
        <pt x="1218" y="69" on="0"/>
        <pt x="1218" y="61" on="1"/>
        <pt x="1218" y="40" on="1"/>
        <pt x="1218" y="2" on="0"/>
        <pt x="1085" y="2" on="1"/>
        <pt x="1001" y="2" on="0"/>
        <pt x="905" y="98" on="0"/>
        <pt x="639" y="504" on="0"/>
        <pt x="631" y="504" on="0"/>
        <pt x="374" y="101" on="0"/>
        <pt x="364" y="89" on="1"/>
        <pt x="295" y="1" on="0"/>
        <pt x="213" y="1" on="1"/>
        <pt x="81" y="1" on="0"/>
        <pt x="81" y="55" on="1"/>
        <pt x="81" y="74" on="0"/>
        <pt x="462" y="661" on="0"/>
        <pt x="462" y="737" on="1"/>
        <pt x="462" y="771" on="0"/>
        <pt x="101" y="1334" on="0"/>
        <pt x="101" y="1396" on="0"/>
        <pt x="229" y="1396" on="1"/>
        <pt x="326" y="1396" on="0"/>
        <pt x="405" y="1304" on="1"/>
        <pt x="430" y="1275" on="0"/>
        <pt x="648" y="939" on="0"/>
        <pt x="657" y="939" on="1"/>
        <pt x="659" y="939" on="0"/>
        <pt x="907" y="1317" on="0"/>
        <pt x="924" y="1337" on="1"/>
      </contour>
    </TTGlyph>
    <TTGlyph name="Y" xMin="65" yMin="-4" xMax="1191" yMax="1409">
      <contour>
        <pt x="65" y="1337" on="1"/>
        <pt x="65" y="1386" on="0"/>
        <pt x="208" y="1386" on="1"/>
        <pt x="286" y="1386" on="0"/>
        <pt x="340" y="1316" on="1"/>
        <pt x="378" y="1268" on="0"/>
        <pt x="524" y="1029" on="0"/>
        <pt x="561" y="955" on="1"/>
        <pt x="593" y="885" on="1"/>
        <pt x="623" y="823" on="0"/>
        <pt x="627" y="823" on="1"/>
        <pt x="645" y="823" on="0"/>
        <pt x="807" y="1108" on="0"/>
        <pt x="901" y="1300" on="0"/>
        <pt x="929" y="1337" on="1"/>
        <pt x="984" y="1409" on="0"/>
        <pt x="1191" y="1409" on="0"/>
        <pt x="1191" y="1375" on="1"/>
        <pt x="1191" y="1335" on="0"/>
        <pt x="1003" y="981" on="1"/>
        <pt x="977" y="932" on="0"/>
        <pt x="950" y="884" on="1"/>
        <pt x="923" y="836" on="1"/>
        <pt x="793" y="606" on="0"/>
        <pt x="735" y="447" on="0"/>
        <pt x="735" y="254" on="1"/>
        <pt x="733" y="207" on="1"/>
        <pt x="733" y="136" on="1"/>
        <pt x="733" y="46" on="0"/>
        <pt x="699" y="-4" on="0"/>
        <pt x="526" y="-4" on="0"/>
        <pt x="494" y="37" on="0"/>
        <pt x="494" y="130" on="1"/>
        <pt x="508" y="441" on="1"/>
        <pt x="508" y="542" on="0"/>
        <pt x="462" y="632" on="1"/>
        <pt x="371" y="813" on="0"/>
        <pt x="65" y="1328" on="0"/>
      </contour>
    </TTGlyph>
    <TTGlyph name="Yacute" xMin="36" yMin="12" xMax="1182" yMax="1891">
      <contour>
        <pt x="515" y="1552" on="1"/>
        <pt x="498" y="1552" on="1"/>
        <pt x="446" y="1552" on="0"/>
        <pt x="446" y="1596" on="1"/>
        <pt x="446" y="1608" on="1"/>
        <pt x="446" y="1667" on="0"/>
        <pt x="623" y="1824" on="1"/>
        <pt x="698" y="1891" on="0"/>
        <pt x="795" y="1891" on="1"/>
        <pt x="807" y="1891" on="1"/>
        <pt x="837" y="1891" on="0"/>
        <pt x="888" y="1846" on="0"/>
        <pt x="888" y="1835" on="1"/>
        <pt x="888" y="1819" on="1"/>
        <pt x="888" y="1756" on="0"/>
        <pt x="687" y="1615" on="1"/>
        <pt x="597" y="1552" on="0"/>
      </contour>
      <contour>
        <pt x="36" y="1379" on="1"/>
        <pt x="36" y="1427" on="0"/>
        <pt x="139" y="1427" on="1"/>
        <pt x="164" y="1427" on="1"/>
        <pt x="273" y="1427" on="0"/>
        <pt x="330" y="1346" on="1"/>
        <pt x="364" y="1298" on="0"/>
        <pt x="470" y="1081" on="0"/>
        <pt x="614" y="819" on="0"/>
        <pt x="616" y="819" on="1"/>
        <pt x="617" y="819" on="0"/>
        <pt x="694" y="962" on="1"/>
        <pt x="768" y="1104" on="0"/>
        <pt x="816" y="1202" on="1"/>
        <pt x="899" y="1374" on="0"/>
        <pt x="962" y="1406" on="1"/>
        <pt x="1005" y="1427" on="0"/>
        <pt x="1182" y="1427" on="0"/>
        <pt x="1182" y="1398" on="1"/>
        <pt x="1182" y="1379" on="0"/>
        <pt x="780" y="624" on="0"/>
        <pt x="775" y="610" on="1"/>
        <pt x="744" y="527" on="0"/>
        <pt x="744" y="90" on="0"/>
        <pt x="716" y="12" on="0"/>
        <pt x="607" y="12" on="1"/>
        <pt x="581" y="12" on="1"/>
        <pt x="494" y="12" on="0"/>
        <pt x="479" y="46" on="1"/>
        <pt x="471" y="64" on="0"/>
        <pt x="471" y="191" on="1"/>
        <pt x="477" y="452" on="1"/>
        <pt x="477" y="545" on="0"/>
        <pt x="414" y="692" on="0"/>
        <pt x="265" y="936" on="0"/>
        <pt x="235" y="993" on="1"/>
        <pt x="36" y="1375" on="0"/>
      </contour>
    </TTGlyph>
    <TTGlyph name="Ydieresis" xMin="45" yMin="11" xMax="1182" yMax="1808">
      <contour>
        <pt x="417" y="1808" on="1"/>
        <pt x="439" y="1808" on="1"/>
        <pt x="443" y="1807" on="1"/>
        <pt x="476" y="1804" on="1"/>
        <pt x="480" y="1803" on="0"/>
        <pt x="484" y="1803" on="1"/>
        <pt x="542" y="1803" on="0"/>
        <pt x="542" y="1735" on="1"/>
        <pt x="544" y="1727" on="0"/>
        <pt x="544" y="1722" on="1"/>
        <pt x="546" y="1701" on="1"/>
        <pt x="546" y="1671" on="1"/>
        <pt x="546" y="1611" on="0"/>
        <pt x="495" y="1568" on="0"/>
        <pt x="432" y="1568" on="1"/>
        <pt x="406" y="1568" on="1"/>
        <pt x="402" y="1569" on="1"/>
        <pt x="389" y="1569" on="1"/>
        <pt x="371" y="1572" on="0"/>
        <pt x="369" y="1572" on="1"/>
        <pt x="307" y="1572" on="0"/>
        <pt x="307" y="1645" on="1"/>
        <pt x="304" y="1670" on="1"/>
        <pt x="304" y="1709" on="1"/>
        <pt x="308" y="1738" on="1"/>
        <pt x="308" y="1808" on="0"/>
      </contour>
      <contour>
        <pt x="706" y="1691" on="1"/>
        <pt x="710" y="1733" on="1"/>
        <pt x="710" y="1774" on="0"/>
        <pt x="770" y="1808" on="0"/>
        <pt x="832" y="1808" on="1"/>
        <pt x="836" y="1808" on="1"/>
        <pt x="841" y="1807" on="1"/>
        <pt x="877" y="1804" on="1"/>
        <pt x="881" y="1803" on="0"/>
        <pt x="885" y="1803" on="1"/>
        <pt x="944" y="1803" on="0"/>
        <pt x="944" y="1736" on="1"/>
        <pt x="946" y="1726" on="0"/>
        <pt x="946" y="1723" on="1"/>
        <pt x="948" y="1706" on="1"/>
        <pt x="948" y="1667" on="1"/>
        <pt x="948" y="1617" on="0"/>
        <pt x="910" y="1572" on="0"/>
        <pt x="868" y="1572" on="1"/>
        <pt x="860" y="1570" on="0"/>
        <pt x="856" y="1570" on="1"/>
        <pt x="835" y="1568" on="1"/>
        <pt x="801" y="1568" on="1"/>
        <pt x="769" y="1572" on="1"/>
        <pt x="706" y="1572" on="0"/>
        <pt x="706" y="1682" on="1"/>
      </contour>
      <contour>
        <pt x="980" y="1421" on="0"/>
        <pt x="1182" y="1421" on="0"/>
        <pt x="1182" y="1386" on="1"/>
        <pt x="1182" y="1367" on="1"/>
        <pt x="1182" y="1338" on="0"/>
        <pt x="790" y="626" on="0"/>
        <pt x="778" y="600" on="1"/>
        <pt x="720" y="471" on="0"/>
        <pt x="720" y="262" on="1"/>
        <pt x="718" y="215" on="1"/>
        <pt x="718" y="146" on="1"/>
        <pt x="718" y="58" on="0"/>
        <pt x="686" y="11" on="0"/>
        <pt x="601" y="11" on="1"/>
        <pt x="577" y="11" on="1"/>
        <pt x="517" y="11" on="0"/>
        <pt x="477" y="49" on="0"/>
        <pt x="477" y="171" on="0"/>
        <pt x="484" y="292" on="1"/>
        <pt x="490" y="370" on="1"/>
        <pt x="493" y="422" on="0"/>
        <pt x="493" y="448" on="1"/>
        <pt x="493" y="554" on="0"/>
        <pt x="399" y="742" on="0"/>
        <pt x="249" y="1006" on="1"/>
        <pt x="145" y="1178" on="1"/>
        <pt x="124" y="1214" on="0"/>
        <pt x="45" y="1324" on="0"/>
        <pt x="45" y="1347" on="1"/>
        <pt x="45" y="1403" on="0"/>
        <pt x="185" y="1403" on="1"/>
        <pt x="276" y="1403" on="0"/>
        <pt x="334" y="1323" on="1"/>
        <pt x="460" y="1150" on="0"/>
        <pt x="605" y="835" on="0"/>
        <pt x="618" y="835" on="1"/>
        <pt x="625" y="835" on="0"/>
        <pt x="778" y="1090" on="0"/>
        <pt x="891" y="1303" on="0"/>
        <pt x="909" y="1327" on="1"/>
      </contour>
    </TTGlyph>
    <TTGlyph name="Z" xMin="94" yMin="-4" xMax="1116" yMax="1417">
      <contour>
        <pt x="121" y="1259" on="0"/>
        <pt x="121" y="1394" on="0"/>
        <pt x="189" y="1415" on="0"/>
        <pt x="317" y="1415" on="1"/>
        <pt x="383" y="1417" on="1"/>
        <pt x="687" y="1417" on="1"/>
        <pt x="967" y="1417" on="0"/>
        <pt x="1019" y="1412" on="1"/>
        <pt x="1096" y="1405" on="0"/>
        <pt x="1096" y="1356" on="1"/>
        <pt x="1096" y="1260" on="0"/>
        <pt x="1029" y="1148" on="1"/>
        <pt x="994" y="1091" on="0"/>
        <pt x="860" y="891" on="1"/>
        <pt x="439" y="265" on="0"/>
        <pt x="439" y="230" on="1"/>
        <pt x="439" y="203" on="0"/>
        <pt x="664" y="203" on="1"/>
        <pt x="668" y="203" on="0"/>
        <pt x="796" y="207" on="1"/>
        <pt x="860" y="210" on="1"/>
        <pt x="903" y="212" on="0"/>
        <pt x="1043" y="212" on="0"/>
        <pt x="1116" y="175" on="0"/>
        <pt x="1116" y="22" on="0"/>
        <pt x="1033" y="-4" on="0"/>
        <pt x="780" y="-4" on="1"/>
        <pt x="276" y="-4" on="1"/>
        <pt x="144" y="-4" on="0"/>
        <pt x="94" y="25" on="0"/>
        <pt x="94" y="151" on="0"/>
        <pt x="157" y="256" on="1"/>
        <pt x="183" y="300" on="0"/>
        <pt x="301" y="478" on="1"/>
        <pt x="377" y="588" on="1"/>
        <pt x="754" y="1151" on="0"/>
        <pt x="754" y="1210" on="0"/>
        <pt x="506" y="1210" on="1"/>
        <pt x="281" y="1203" on="1"/>
        <pt x="173" y="1203" on="0"/>
      </contour>
    </TTGlyph>
    <TTGlyph name="Zcaron" xMin="82" yMin="6" xMax="1110" yMax="1884">
      <contour>
        <pt x="616" y="1551" on="1"/>
        <pt x="600" y="1551" on="1"/>
        <pt x="546" y="1551" on="0"/>
        <pt x="494" y="1595" on="1"/>
        <pt x="299" y="1760" on="0"/>
        <pt x="299" y="1838" on="1"/>
        <pt x="299" y="1882" on="0"/>
        <pt x="434" y="1882" on="0"/>
        <pt x="504" y="1823" on="1"/>
        <pt x="524" y="1806" on="0"/>
        <pt x="564" y="1766" on="1"/>
        <pt x="606" y="1726" on="0"/>
        <pt x="618" y="1724" on="0"/>
        <pt x="636" y="1742" on="1"/>
        <pt x="691" y="1795" on="1"/>
        <pt x="788" y="1884" on="0"/>
        <pt x="929" y="1884" on="0"/>
        <pt x="929" y="1842" on="1"/>
        <pt x="929" y="1835" on="1"/>
        <pt x="929" y="1798" on="0"/>
        <pt x="743" y="1612" on="1"/>
        <pt x="682" y="1551" on="0"/>
      </contour>
      <contour>
        <pt x="112" y="1274" on="0"/>
        <pt x="112" y="1403" on="0"/>
        <pt x="195" y="1433" on="0"/>
        <pt x="408" y="1433" on="1"/>
        <pt x="678" y="1433" on="1"/>
        <pt x="997" y="1433" on="0"/>
        <pt x="1090" y="1409" on="0"/>
        <pt x="1090" y="1376" on="1"/>
        <pt x="1090" y="1283" on="0"/>
        <pt x="1023" y="1167" on="1"/>
        <pt x="1016" y="1155" on="0"/>
        <pt x="441" y="285" on="0"/>
        <pt x="441" y="259" on="1"/>
        <pt x="441" y="213" on="0"/>
        <pt x="630" y="213" on="1"/>
        <pt x="984" y="224" on="1"/>
        <pt x="1045" y="224" on="0"/>
        <pt x="1068" y="211" on="1"/>
        <pt x="1110" y="187" on="0"/>
        <pt x="1110" y="37" on="0"/>
        <pt x="1023" y="6" on="0"/>
        <pt x="537" y="6" on="1"/>
        <pt x="234" y="6" on="1"/>
        <pt x="132" y="6" on="0"/>
        <pt x="82" y="29" on="0"/>
        <pt x="82" y="147" on="0"/>
        <pt x="154" y="284" on="0"/>
        <pt x="737" y="1158" on="0"/>
        <pt x="737" y="1228" on="0"/>
        <pt x="526" y="1228" on="1"/>
        <pt x="239" y="1219" on="1"/>
        <pt x="161" y="1219" on="0"/>
      </contour>
    </TTGlyph>
    <TTGlyph name="a" xMin="72" yMin="-15" xMax="973" yMax="1044">
      <contour>
        <pt x="330" y="294" on="1"/>
        <pt x="330" y="243" on="0"/>
        <pt x="432" y="175" on="0"/>
        <pt x="491" y="175" on="1"/>
        <pt x="520" y="175" on="1"/>
        <pt x="621" y="175" on="0"/>
        <pt x="678" y="248" on="1"/>
        <pt x="703" y="280" on="0"/>
        <pt x="703" y="378" on="1"/>
        <pt x="704" y="390" on="1"/>
        <pt x="704" y="415" on="1"/>
        <pt x="704" y="478" on="0"/>
        <pt x="637" y="478" on="1"/>
        <pt x="556" y="478" on="1"/>
        <pt x="446" y="478" on="0"/>
        <pt x="328" y="404" on="0"/>
        <pt x="328" y="351" on="1"/>
        <pt x="328" y="314" on="1"/>
        <pt x="330" y="300" on="0"/>
      </contour>
      <contour>
        <pt x="693" y="696" on="1"/>
        <pt x="693" y="843" on="0"/>
        <pt x="508" y="843" on="1"/>
        <pt x="440" y="843" on="0"/>
        <pt x="237" y="791" on="0"/>
        <pt x="183" y="791" on="0"/>
        <pt x="138" y="845" on="0"/>
        <pt x="138" y="886" on="1"/>
        <pt x="138" y="953" on="0"/>
        <pt x="218" y="991" on="1"/>
        <pt x="330" y="1044" on="0"/>
        <pt x="488" y="1044" on="1"/>
        <pt x="513" y="1044" on="1"/>
        <pt x="770" y="1044" on="0"/>
        <pt x="879" y="898" on="1"/>
        <pt x="921" y="842" on="0"/>
        <pt x="947" y="687" on="0"/>
        <pt x="947" y="304" on="0"/>
        <pt x="973" y="150" on="0"/>
        <pt x="973" y="47" on="0"/>
        <pt x="933" y="0" on="0"/>
        <pt x="801" y="0" on="0"/>
        <pt x="751" y="26" on="0"/>
        <pt x="708" y="66" on="0"/>
        <pt x="682" y="66" on="0"/>
        <pt x="478" y="-15" on="0"/>
        <pt x="404" y="-15" on="1"/>
        <pt x="380" y="-15" on="1"/>
        <pt x="236" y="-15" on="0"/>
        <pt x="72" y="160" on="0"/>
        <pt x="72" y="284" on="1"/>
        <pt x="72" y="333" on="1"/>
        <pt x="72" y="392" on="0"/>
        <pt x="104" y="452" on="1"/>
        <pt x="192" y="618" on="0"/>
        <pt x="539" y="632" on="1"/>
        <pt x="659" y="637" on="0"/>
        <pt x="693" y="656" on="0"/>
      </contour>
    </TTGlyph>
    <TTGlyph name="aacute" xMin="63" yMin="6" xMax="966" yMax="1517">
      <contour>
        <pt x="441" y="231" on="1"/>
        <pt x="478" y="231" on="1"/>
        <pt x="572" y="231" on="0"/>
        <pt x="653" y="302" on="1"/>
        <pt x="693" y="337" on="0"/>
        <pt x="693" y="428" on="1"/>
        <pt x="693" y="483" on="1"/>
        <pt x="693" y="524" on="0"/>
        <pt x="638" y="524" on="1"/>
        <pt x="602" y="524" on="1"/>
        <pt x="596" y="523" on="1"/>
        <pt x="572" y="522" on="1"/>
        <pt x="560" y="522" on="1"/>
        <pt x="531" y="519" on="1"/>
        <pt x="507" y="517" on="1"/>
        <pt x="426" y="517" on="0"/>
        <pt x="318" y="423" on="0"/>
        <pt x="318" y="353" on="1"/>
        <pt x="318" y="347" on="1"/>
        <pt x="319" y="341" on="1"/>
        <pt x="319" y="292" on="0"/>
        <pt x="389" y="231" on="0"/>
      </contour>
      <contour>
        <pt x="446" y="1160" on="1"/>
        <pt x="377" y="1160" on="0"/>
        <pt x="377" y="1215" on="1"/>
        <pt x="377" y="1232" on="1"/>
        <pt x="377" y="1260" on="0"/>
        <pt x="405" y="1300" on="1"/>
        <pt x="483" y="1411" on="0"/>
        <pt x="600" y="1515" on="0"/>
        <pt x="666" y="1515" on="1"/>
        <pt x="678" y="1517" on="1"/>
        <pt x="690" y="1517" on="1"/>
        <pt x="730" y="1517" on="0"/>
        <pt x="790" y="1470" on="0"/>
        <pt x="790" y="1444" on="1"/>
        <pt x="789" y="1438" on="1"/>
        <pt x="789" y="1380" on="0"/>
        <pt x="542" y="1161" on="0"/>
        <pt x="468" y="1161" on="1"/>
        <pt x="457" y="1159" on="1"/>
        <pt x="451" y="1160" on="1"/>
      </contour>
      <contour>
        <pt x="216" y="806" on="1"/>
        <pt x="175" y="806" on="0"/>
        <pt x="127" y="866" on="0"/>
        <pt x="127" y="970" on="0"/>
        <pt x="207" y="1006" on="1"/>
        <pt x="320" y="1057" on="0"/>
        <pt x="477" y="1057" on="1"/>
        <pt x="527" y="1057" on="1"/>
        <pt x="530" y="1057" on="0"/>
        <pt x="532" y="1057" on="1"/>
        <pt x="628" y="1057" on="0"/>
        <pt x="722" y="1020" on="1"/>
        <pt x="897" y="952" on="0"/>
        <pt x="927" y="769" on="1"/>
        <pt x="939" y="698" on="0"/>
        <pt x="939" y="381" on="0"/>
        <pt x="945" y="298" on="0"/>
        <pt x="966" y="170" on="0"/>
        <pt x="966" y="130" on="1"/>
        <pt x="966" y="107" on="1"/>
        <pt x="966" y="58" on="0"/>
        <pt x="903" y="22" on="0"/>
        <pt x="787" y="22" on="0"/>
        <pt x="691" y="83" on="0"/>
        <pt x="644" y="83" on="0"/>
        <pt x="549" y="37" on="0"/>
        <pt x="452" y="6" on="0"/>
        <pt x="370" y="6" on="1"/>
        <pt x="224" y="6" on="0"/>
        <pt x="63" y="183" on="0"/>
        <pt x="63" y="328" on="1"/>
        <pt x="63" y="647" on="0"/>
        <pt x="578" y="647" on="1"/>
        <pt x="646" y="647" on="0"/>
        <pt x="682" y="669" on="0"/>
        <pt x="682" y="783" on="0"/>
        <pt x="593" y="857" on="0"/>
        <pt x="448" y="857" on="0"/>
        <pt x="218" y="806" on="0"/>
      </contour>
    </TTGlyph>
    <TTGlyph name="acircumflex" xMin="65" yMin="-3" xMax="967" yMax="1526">
      <contour>
        <pt x="450" y="207" on="1"/>
        <pt x="475" y="207" on="1"/>
        <pt x="542" y="207" on="0"/>
        <pt x="689" y="281" on="0"/>
        <pt x="689" y="332" on="1"/>
        <pt x="692" y="348" on="0"/>
        <pt x="692" y="354" on="1"/>
        <pt x="693" y="359" on="1"/>
        <pt x="694" y="365" on="1"/>
        <pt x="697" y="415" on="1"/>
        <pt x="697" y="438" on="1"/>
        <pt x="697" y="470" on="0"/>
        <pt x="673" y="494" on="0"/>
        <pt x="612" y="494" on="1"/>
        <pt x="540" y="494" on="1"/>
        <pt x="534" y="493" on="1"/>
        <pt x="487" y="490" on="1"/>
        <pt x="481" y="489" on="0"/>
        <pt x="475" y="489" on="1"/>
        <pt x="415" y="489" on="0"/>
        <pt x="319" y="405" on="0"/>
        <pt x="319" y="357" on="1"/>
        <pt x="317" y="345" on="1"/>
        <pt x="317" y="309" on="1"/>
        <pt x="317" y="270" on="0"/>
        <pt x="390" y="207" on="0"/>
      </contour>
      <contour>
        <pt x="217" y="1216" on="1"/>
        <pt x="217" y="1230" on="1"/>
        <pt x="217" y="1285" on="0"/>
        <pt x="404" y="1472" on="1"/>
        <pt x="458" y="1526" on="0"/>
        <pt x="529" y="1526" on="1"/>
        <pt x="537" y="1526" on="1"/>
        <pt x="609" y="1526" on="0"/>
        <pt x="655" y="1476" on="1"/>
        <pt x="845" y="1270" on="0"/>
        <pt x="845" y="1209" on="1"/>
        <pt x="845" y="1202" on="1"/>
        <pt x="845" y="1167" on="0"/>
        <pt x="770" y="1167" on="1"/>
        <pt x="752" y="1167" on="1"/>
        <pt x="693" y="1167" on="0"/>
        <pt x="630" y="1235" on="1"/>
        <pt x="533" y="1340" on="0"/>
        <pt x="532" y="1340" on="1"/>
        <pt x="503" y="1311" on="1"/>
        <pt x="451" y="1257" on="1"/>
        <pt x="438" y="1245" on="0"/>
        <pt x="432" y="1239" on="1"/>
        <pt x="375" y="1182" on="0"/>
        <pt x="217" y="1182" on="0"/>
      </contour>
      <contour>
        <pt x="220" y="800" on="1"/>
        <pt x="130" y="800" on="0"/>
        <pt x="130" y="915" on="1"/>
        <pt x="130" y="964" on="0"/>
        <pt x="208" y="1002" on="1"/>
        <pt x="315" y="1054" on="0"/>
        <pt x="477" y="1054" on="1"/>
        <pt x="503" y="1054" on="1"/>
        <pt x="633" y="1054" on="0"/>
        <pt x="820" y="974" on="0"/>
        <pt x="916" y="849" on="0"/>
        <pt x="941" y="681" on="0"/>
        <pt x="941" y="362" on="0"/>
        <pt x="948" y="281" on="0"/>
        <pt x="967" y="169" on="0"/>
        <pt x="967" y="125" on="1"/>
        <pt x="967" y="102" on="1"/>
        <pt x="967" y="51" on="0"/>
        <pt x="911" y="13" on="0"/>
        <pt x="787" y="13" on="0"/>
        <pt x="688" y="76" on="0"/>
        <pt x="651" y="76" on="0"/>
        <pt x="560" y="32" on="0"/>
        <pt x="462" y="-3" on="0"/>
        <pt x="376" y="-3" on="1"/>
        <pt x="172" y="-3" on="0"/>
        <pt x="97" y="157" on="1"/>
        <pt x="65" y="224" on="0"/>
        <pt x="65" y="292" on="1"/>
        <pt x="65" y="341" on="1"/>
        <pt x="66" y="410" on="0"/>
        <pt x="100" y="468" on="1"/>
        <pt x="204" y="643" on="0"/>
        <pt x="570" y="643" on="1"/>
        <pt x="574" y="643" on="1"/>
        <pt x="638" y="643" on="0"/>
        <pt x="684" y="666" on="0"/>
        <pt x="684" y="701" on="1"/>
        <pt x="684" y="778" on="0"/>
        <pt x="597" y="853" on="0"/>
        <pt x="437" y="853" on="0"/>
        <pt x="225" y="800" on="0"/>
      </contour>
    </TTGlyph>
    <TTGlyph name="acute" xMin="173" yMin="1127" xMax="595" yMax="1480">
      <contour>
        <pt x="247" y="1127" on="1"/>
        <pt x="235" y="1127" on="1"/>
        <pt x="229" y="1128" on="1"/>
        <pt x="173" y="1128" on="0"/>
        <pt x="173" y="1157" on="1"/>
        <pt x="173" y="1179" on="1"/>
        <pt x="173" y="1207" on="0"/>
        <pt x="202" y="1248" on="1"/>
        <pt x="300" y="1387" on="0"/>
        <pt x="404" y="1480" on="0"/>
        <pt x="478" y="1480" on="1"/>
        <pt x="508" y="1480" on="1"/>
        <pt x="518" y="1478" on="0"/>
        <pt x="525" y="1478" on="1"/>
        <pt x="595" y="1478" on="0"/>
        <pt x="595" y="1436" on="1"/>
        <pt x="595" y="1426" on="1"/>
        <pt x="595" y="1390" on="0"/>
        <pt x="409" y="1204" on="1"/>
        <pt x="332" y="1127" on="0"/>
      </contour>
    </TTGlyph>
    <TTGlyph name="adieresis" xMin="59" yMin="2" xMax="963" yMax="1454">
      <contour>
        <pt x="494" y="231" on="1"/>
        <pt x="578" y="231" on="0"/>
        <pt x="637" y="299" on="1"/>
        <pt x="673" y="340" on="0"/>
        <pt x="673" y="426" on="1"/>
        <pt x="674" y="437" on="1"/>
        <pt x="674" y="477" on="1"/>
        <pt x="674" y="521" on="0"/>
        <pt x="630" y="521" on="1"/>
        <pt x="572" y="521" on="1"/>
        <pt x="566" y="520" on="1"/>
        <pt x="508" y="516" on="1"/>
        <pt x="484" y="514" on="1"/>
        <pt x="410" y="514" on="0"/>
        <pt x="308" y="424" on="0"/>
        <pt x="308" y="362" on="1"/>
        <pt x="308" y="337" on="1"/>
        <pt x="308" y="290" on="0"/>
        <pt x="380" y="228" on="0"/>
        <pt x="441" y="228" on="1"/>
        <pt x="459" y="228" on="1"/>
        <pt x="477" y="231" on="0"/>
      </contour>
      <contour>
        <pt x="328" y="1454" on="1"/>
        <pt x="359" y="1454" on="1"/>
        <pt x="453" y="1454" on="0"/>
        <pt x="453" y="1398" on="1"/>
        <pt x="458" y="1378" on="0"/>
        <pt x="458" y="1368" on="1"/>
        <pt x="460" y="1355" on="1"/>
        <pt x="460" y="1346" on="1"/>
        <pt x="461" y="1332" on="1"/>
        <pt x="461" y="1319" on="1"/>
        <pt x="460" y="1315" on="1"/>
        <pt x="457" y="1279" on="1"/>
        <pt x="456" y="1274" on="0"/>
        <pt x="456" y="1271" on="1"/>
        <pt x="456" y="1211" on="0"/>
        <pt x="386" y="1211" on="1"/>
        <pt x="378" y="1209" on="1"/>
        <pt x="339" y="1206" on="1"/>
        <pt x="322" y="1206" on="1"/>
        <pt x="318" y="1207" on="1"/>
        <pt x="284" y="1210" on="1"/>
        <pt x="280" y="1211" on="0"/>
        <pt x="276" y="1211" on="1"/>
        <pt x="220" y="1211" on="0"/>
        <pt x="220" y="1279" on="1"/>
        <pt x="218" y="1287" on="0"/>
        <pt x="218" y="1292" on="1"/>
        <pt x="216" y="1314" on="1"/>
        <pt x="216" y="1350" on="1"/>
        <pt x="220" y="1385" on="1"/>
        <pt x="220" y="1423" on="0"/>
        <pt x="274" y="1454" on="0"/>
      </contour>
      <contour>
        <pt x="594" y="1356" on="1"/>
        <pt x="594" y="1417" on="0"/>
        <pt x="678" y="1417" on="1"/>
        <pt x="683" y="1418" on="1"/>
        <pt x="687" y="1419" on="1"/>
        <pt x="734" y="1422" on="1"/>
        <pt x="789" y="1422" on="0"/>
        <pt x="852" y="1386" on="0"/>
        <pt x="852" y="1313" on="1"/>
        <pt x="852" y="1267" on="1"/>
        <pt x="851" y="1263" on="1"/>
        <pt x="848" y="1237" on="1"/>
        <pt x="847" y="1232" on="0"/>
        <pt x="847" y="1228" on="1"/>
        <pt x="847" y="1170" on="0"/>
        <pt x="752" y="1170" on="1"/>
        <pt x="747" y="1171" on="1"/>
        <pt x="730" y="1171" on="1"/>
        <pt x="725" y="1172" on="1"/>
        <pt x="717" y="1172" on="1"/>
        <pt x="696" y="1175" on="0"/>
        <pt x="695" y="1175" on="1"/>
        <pt x="598" y="1175" on="0"/>
        <pt x="598" y="1266" on="1"/>
        <pt x="594" y="1282" on="0"/>
        <pt x="594" y="1292" on="1"/>
        <pt x="592" y="1313" on="1"/>
        <pt x="592" y="1346" on="1"/>
        <pt x="594" y="1352" on="0"/>
      </contour>
      <contour>
        <pt x="678" y="706" on="1"/>
        <pt x="678" y="852" on="0"/>
        <pt x="495" y="852" on="1"/>
        <pt x="436" y="852" on="0"/>
        <pt x="223" y="802" on="0"/>
        <pt x="172" y="802" on="0"/>
        <pt x="152" y="826" on="1"/>
        <pt x="123" y="862" on="0"/>
        <pt x="123" y="898" on="1"/>
        <pt x="123" y="966" on="0"/>
        <pt x="204" y="1002" on="1"/>
        <pt x="317" y="1053" on="0"/>
        <pt x="473" y="1053" on="1"/>
        <pt x="498" y="1053" on="1"/>
        <pt x="628" y="1053" on="0"/>
        <pt x="816" y="973" on="0"/>
        <pt x="908" y="853" on="0"/>
        <pt x="935" y="696" on="0"/>
        <pt x="935" y="347" on="0"/>
        <pt x="942" y="289" on="0"/>
        <pt x="963" y="164" on="0"/>
        <pt x="963" y="64" on="0"/>
        <pt x="919" y="17" on="0"/>
        <pt x="826" y="17" on="1"/>
        <pt x="783" y="17" on="0"/>
        <pt x="687" y="78" on="0"/>
        <pt x="652" y="78" on="0"/>
        <pt x="464" y="2" on="0"/>
        <pt x="391" y="2" on="1"/>
        <pt x="367" y="2" on="1"/>
        <pt x="220" y="2" on="0"/>
        <pt x="59" y="179" on="0"/>
        <pt x="59" y="323" on="1"/>
        <pt x="59" y="643" on="0"/>
        <pt x="575" y="643" on="1"/>
        <pt x="642" y="643" on="0"/>
        <pt x="678" y="663" on="0"/>
      </contour>
    </TTGlyph>
    <TTGlyph name="ae" xMin="73" yMin="-19" xMax="1548" yMax="1041">
      <contour>
        <pt x="348" y="348" on="1"/>
        <pt x="348" y="306" on="1"/>
        <pt x="348" y="266" on="0"/>
        <pt x="412" y="202" on="0"/>
        <pt x="478" y="202" on="1"/>
        <pt x="507" y="202" on="1"/>
        <pt x="512" y="203" on="1"/>
        <pt x="523" y="203" on="1"/>
        <pt x="546" y="206" on="1"/>
        <pt x="607" y="206" on="0"/>
        <pt x="667" y="266" on="1"/>
        <pt x="700" y="299" on="0"/>
        <pt x="700" y="379" on="1"/>
        <pt x="700" y="430" on="1"/>
        <pt x="700" y="489" on="0"/>
        <pt x="637" y="489" on="1"/>
        <pt x="586" y="489" on="1"/>
        <pt x="472" y="489" on="0"/>
        <pt x="348" y="411" on="0"/>
      </contour>
      <contour>
        <pt x="1283" y="643" on="1"/>
        <pt x="1283" y="643" on="0"/>
        <pt x="1281" y="671" on="1"/>
        <pt x="1281" y="732" on="0"/>
        <pt x="1192" y="821" on="0"/>
        <pt x="1140" y="821" on="1"/>
        <pt x="1128" y="823" on="1"/>
        <pt x="1104" y="824" on="1"/>
        <pt x="1098" y="824" on="1"/>
        <pt x="1092" y="823" on="1"/>
        <pt x="1000" y="823" on="0"/>
        <pt x="903" y="710" on="0"/>
        <pt x="903" y="629" on="1"/>
        <pt x="903" y="608" on="1"/>
        <pt x="903" y="579" on="0"/>
        <pt x="982" y="579" on="1"/>
        <pt x="1098" y="579" on="1"/>
        <pt x="1104" y="580" on="1"/>
        <pt x="1181" y="583" on="1"/>
        <pt x="1233" y="588" on="1"/>
        <pt x="1284" y="588" on="0"/>
        <pt x="1284" y="637" on="1"/>
      </contour>
      <contour>
        <pt x="1335" y="-19" on="0"/>
        <pt x="1061" y="-19" on="0"/>
        <pt x="921" y="24" on="0"/>
        <pt x="780" y="98" on="0"/>
        <pt x="779" y="98" on="1"/>
        <pt x="753" y="98" on="0"/>
        <pt x="651" y="35" on="0"/>
        <pt x="615" y="20" on="1"/>
        <pt x="523" y="-18" on="0"/>
        <pt x="410" y="-18" on="1"/>
        <pt x="245" y="-18" on="0"/>
        <pt x="73" y="150" on="0"/>
        <pt x="73" y="282" on="1"/>
        <pt x="73" y="319" on="1"/>
        <pt x="73" y="465" on="0"/>
        <pt x="323" y="627" on="0"/>
        <pt x="596" y="627" on="1"/>
        <pt x="667" y="627" on="0"/>
        <pt x="667" y="693" on="1"/>
        <pt x="667" y="765" on="0"/>
        <pt x="572" y="834" on="0"/>
        <pt x="434" y="834" on="0"/>
        <pt x="240" y="784" on="0"/>
        <pt x="235" y="784" on="1"/>
        <pt x="136" y="784" on="0"/>
        <pt x="136" y="885" on="1"/>
        <pt x="136" y="952" on="0"/>
        <pt x="340" y="1038" on="0"/>
        <pt x="574" y="1038" on="0"/>
        <pt x="696" y="1000" on="0"/>
        <pt x="794" y="944" on="0"/>
        <pt x="824" y="944" on="0"/>
        <pt x="920" y="1002" on="0"/>
        <pt x="1034" y="1041" on="0"/>
        <pt x="1130" y="1041" on="1"/>
        <pt x="1334" y="1041" on="0"/>
        <pt x="1548" y="817" on="0"/>
        <pt x="1548" y="610" on="1"/>
        <pt x="1548" y="575" on="1"/>
        <pt x="1548" y="494" on="0"/>
        <pt x="1458" y="442" on="0"/>
        <pt x="1031" y="442" on="0"/>
        <pt x="935" y="411" on="0"/>
        <pt x="935" y="368" on="1"/>
        <pt x="935" y="281" on="0"/>
        <pt x="1056" y="191" on="0"/>
        <pt x="1213" y="191" on="0"/>
        <pt x="1410" y="234" on="0"/>
        <pt x="1437" y="234" on="1"/>
        <pt x="1508" y="234" on="0"/>
        <pt x="1508" y="146" on="1"/>
        <pt x="1508" y="86" on="0"/>
        <pt x="1444" y="47" on="1"/>
      </contour>
    </TTGlyph>
    <TTGlyph name="agrave" xMin="65" yMin="2" xMax="967" yMax="1512">
      <contour>
        <pt x="316" y="376" on="1"/>
        <pt x="316" y="364" on="1"/>
        <pt x="317" y="358" on="1"/>
        <pt x="317" y="301" on="0"/>
        <pt x="399" y="231" on="0"/>
        <pt x="476" y="231" on="1"/>
        <pt x="488" y="231" on="1"/>
        <pt x="559" y="231" on="0"/>
        <pt x="687" y="302" on="0"/>
        <pt x="687" y="359" on="1"/>
        <pt x="689" y="371" on="0"/>
        <pt x="689" y="375" on="1"/>
        <pt x="691" y="403" on="1"/>
        <pt x="691" y="420" on="1"/>
        <pt x="691" y="487" on="0"/>
        <pt x="664" y="519" on="0"/>
        <pt x="605" y="519" on="1"/>
        <pt x="533" y="519" on="1"/>
        <pt x="527" y="518" on="1"/>
        <pt x="480" y="515" on="1"/>
        <pt x="474" y="514" on="0"/>
        <pt x="468" y="514" on="1"/>
        <pt x="406" y="514" on="0"/>
        <pt x="316" y="435" on="0"/>
      </contour>
      <contour>
        <pt x="276" y="1441" on="1"/>
        <pt x="276" y="1456" on="1"/>
        <pt x="276" y="1473" on="0"/>
        <pt x="335" y="1512" on="0"/>
        <pt x="367" y="1512" on="1"/>
        <pt x="385" y="1512" on="1"/>
        <pt x="397" y="1510" on="0"/>
        <pt x="403" y="1510" on="1"/>
        <pt x="477" y="1510" on="0"/>
        <pt x="536" y="1444" on="1"/>
        <pt x="697" y="1263" on="0"/>
        <pt x="697" y="1206" on="1"/>
        <pt x="697" y="1184" on="1"/>
        <pt x="697" y="1147" on="0"/>
        <pt x="628" y="1147" on="1"/>
        <pt x="622" y="1148" on="1"/>
        <pt x="572" y="1148" on="0"/>
        <pt x="500" y="1204" on="1"/>
        <pt x="276" y="1378" on="0"/>
      </contour>
      <contour>
        <pt x="684" y="706" on="1"/>
        <pt x="684" y="857" on="0"/>
        <pt x="524" y="857" on="1"/>
        <pt x="434" y="857" on="0"/>
        <pt x="225" y="805" on="0"/>
        <pt x="220" y="805" on="1"/>
        <pt x="130" y="805" on="0"/>
        <pt x="130" y="920" on="1"/>
        <pt x="130" y="977" on="0"/>
        <pt x="345" y="1059" on="0"/>
        <pt x="477" y="1059" on="1"/>
        <pt x="503" y="1059" on="1"/>
        <pt x="630" y="1059" on="0"/>
        <pt x="819" y="981" on="0"/>
        <pt x="913" y="859" on="0"/>
        <pt x="941" y="695" on="0"/>
        <pt x="941" y="367" on="0"/>
        <pt x="948" y="286" on="0"/>
        <pt x="967" y="174" on="0"/>
        <pt x="967" y="129" on="1"/>
        <pt x="967" y="107" on="1"/>
        <pt x="967" y="55" on="0"/>
        <pt x="911" y="17" on="0"/>
        <pt x="789" y="17" on="0"/>
        <pt x="688" y="81" on="0"/>
        <pt x="651" y="81" on="0"/>
        <pt x="560" y="37" on="0"/>
        <pt x="462" y="2" on="0"/>
        <pt x="377" y="2" on="1"/>
        <pt x="231" y="2" on="0"/>
        <pt x="65" y="174" on="0"/>
        <pt x="65" y="297" on="1"/>
        <pt x="65" y="346" on="1"/>
        <pt x="66" y="414" on="0"/>
        <pt x="100" y="472" on="1"/>
        <pt x="205" y="648" on="0"/>
        <pt x="574" y="648" on="1"/>
        <pt x="639" y="648" on="0"/>
        <pt x="684" y="669" on="0"/>
      </contour>
    </TTGlyph>
    <TTGlyph name="ampersand" xMin="136" yMin="-47" xMax="1250" yMax="1344">
      <contour>
        <pt x="574" y="852" on="1"/>
        <pt x="578" y="852" on="1"/>
        <pt x="615" y="852" on="0"/>
        <pt x="707" y="959" on="1"/>
        <pt x="749" y="1008" on="0"/>
        <pt x="749" y="1075" on="1"/>
        <pt x="749" y="1086" on="1"/>
        <pt x="749" y="1128" on="0"/>
        <pt x="686" y="1216" on="0"/>
        <pt x="641" y="1216" on="1"/>
        <pt x="614" y="1216" on="1"/>
        <pt x="562" y="1216" on="0"/>
        <pt x="473" y="1127" on="0"/>
        <pt x="473" y="1062" on="1"/>
        <pt x="473" y="1051" on="1"/>
        <pt x="475" y="1032" on="1"/>
        <pt x="478" y="1008" on="1"/>
        <pt x="478" y="969" on="0"/>
        <pt x="556" y="852" on="0"/>
      </contour>
      <contour>
        <pt x="558" y="130" on="1"/>
        <pt x="586" y="130" on="1"/>
        <pt x="675" y="130" on="0"/>
        <pt x="769" y="190" on="1"/>
        <pt x="805" y="213" on="0"/>
        <pt x="805" y="234" on="1"/>
        <pt x="805" y="238" on="0"/>
        <pt x="593" y="521" on="0"/>
        <pt x="516" y="636" on="0"/>
        <pt x="514" y="636" on="1"/>
        <pt x="470" y="636" on="0"/>
        <pt x="382" y="510" on="1"/>
        <pt x="338" y="447" on="0"/>
        <pt x="338" y="399" on="1"/>
        <pt x="338" y="384" on="1"/>
        <pt x="339" y="376" on="1"/>
        <pt x="339" y="282" on="0"/>
        <pt x="423" y="190" on="1"/>
        <pt x="478" y="130" on="0"/>
      </contour>
      <contour>
        <pt x="515" y="-46" on="1"/>
        <pt x="358" y="-46" on="0"/>
        <pt x="136" y="160" on="0"/>
        <pt x="136" y="500" on="0"/>
        <pt x="275" y="637" on="1"/>
        <pt x="367" y="727" on="0"/>
        <pt x="367" y="767" on="0"/>
        <pt x="276" y="957" on="0"/>
        <pt x="276" y="1036" on="1"/>
        <pt x="276" y="1163" on="0"/>
        <pt x="467" y="1344" on="0"/>
        <pt x="593" y="1344" on="1"/>
        <pt x="621" y="1344" on="1"/>
        <pt x="755" y="1344" on="0"/>
        <pt x="934" y="1188" on="0"/>
        <pt x="934" y="913" on="0"/>
        <pt x="798" y="784" on="1"/>
        <pt x="724" y="714" on="0"/>
        <pt x="724" y="693" on="1"/>
        <pt x="724" y="651" on="0"/>
        <pt x="910" y="449" on="0"/>
        <pt x="935" y="449" on="1"/>
        <pt x="973" y="449" on="0"/>
        <pt x="1059" y="653" on="0"/>
        <pt x="1117" y="653" on="1"/>
        <pt x="1208" y="653" on="0"/>
        <pt x="1208" y="590" on="1"/>
        <pt x="1208" y="541" on="0"/>
        <pt x="1113" y="299" on="0"/>
        <pt x="1113" y="274" on="1"/>
        <pt x="1113" y="221" on="0"/>
        <pt x="1250" y="63" on="0"/>
        <pt x="1250" y="39" on="1"/>
        <pt x="1250" y="-22" on="0"/>
        <pt x="1123" y="-22" on="0"/>
        <pt x="1069" y="7" on="1"/>
        <pt x="968" y="61" on="1"/>
        <pt x="938" y="61" on="0"/>
        <pt x="808" y="-1" on="0"/>
        <pt x="785" y="-9" on="1"/>
        <pt x="675" y="-47" on="0"/>
        <pt x="571" y="-47" on="1"/>
        <pt x="543" y="-46" on="1"/>
      </contour>
    </TTGlyph>
    <TTGlyph name="aring" xMin="56" yMin="19" xMax="965" yMax="1613">
      <contour>
        <pt x="421" y="1419" on="1"/>
        <pt x="421" y="1392" on="1"/>
        <pt x="421" y="1366" on="0"/>
        <pt x="465" y="1311" on="0"/>
        <pt x="489" y="1311" on="1"/>
        <pt x="495" y="1309" on="0"/>
        <pt x="499" y="1309" on="1"/>
        <pt x="515" y="1307" on="1"/>
        <pt x="529" y="1307" on="1"/>
        <pt x="566" y="1307" on="0"/>
        <pt x="615" y="1356" on="0"/>
        <pt x="615" y="1385" on="1"/>
        <pt x="617" y="1401" on="1"/>
        <pt x="617" y="1411" on="1"/>
        <pt x="613" y="1437" on="1"/>
        <pt x="613" y="1459" on="0"/>
        <pt x="562" y="1500" on="0"/>
        <pt x="545" y="1500" on="1"/>
        <pt x="526" y="1503" on="1"/>
        <pt x="505" y="1503" on="1"/>
        <pt x="483" y="1499" on="1"/>
        <pt x="463" y="1499" on="0"/>
        <pt x="421" y="1446" on="0"/>
      </contour>
      <contour>
        <pt x="436" y="233" on="1"/>
        <pt x="479" y="233" on="1"/>
        <pt x="557" y="233" on="0"/>
        <pt x="680" y="319" on="0"/>
        <pt x="680" y="358" on="1"/>
        <pt x="681" y="363" on="1"/>
        <pt x="682" y="369" on="1"/>
        <pt x="686" y="423" on="1"/>
        <pt x="686" y="473" on="1"/>
        <pt x="686" y="514" on="0"/>
        <pt x="646" y="514" on="1"/>
        <pt x="587" y="514" on="1"/>
        <pt x="581" y="513" on="1"/>
        <pt x="557" y="512" on="1"/>
        <pt x="546" y="512" on="1"/>
        <pt x="516" y="509" on="1"/>
        <pt x="492" y="507" on="1"/>
        <pt x="474" y="504" on="0"/>
        <pt x="469" y="504" on="1"/>
        <pt x="399" y="504" on="0"/>
        <pt x="312" y="417" on="0"/>
        <pt x="312" y="367" on="1"/>
        <pt x="312" y="337" on="1"/>
        <pt x="312" y="297" on="0"/>
        <pt x="376" y="233" on="0"/>
      </contour>
      <contour>
        <pt x="547" y="1613" on="1"/>
        <pt x="640" y="1613" on="0"/>
        <pt x="754" y="1474" on="0"/>
        <pt x="754" y="1397" on="1"/>
        <pt x="754" y="1374" on="1"/>
        <pt x="754" y="1286" on="0"/>
        <pt x="636" y="1168" on="0"/>
        <pt x="556" y="1168" on="1"/>
        <pt x="526" y="1168" on="1"/>
        <pt x="435" y="1168" on="0"/>
        <pt x="292" y="1298" on="0"/>
        <pt x="292" y="1394" on="1"/>
        <pt x="292" y="1424" on="1"/>
        <pt x="292" y="1499" on="0"/>
        <pt x="417" y="1611" on="0"/>
        <pt x="492" y="1611" on="1"/>
        <pt x="508" y="1613" on="1"/>
      </contour>
      <contour>
        <pt x="965" y="120" on="1"/>
        <pt x="965" y="34" on="0"/>
        <pt x="857" y="34" on="1"/>
        <pt x="794" y="34" on="0"/>
        <pt x="668" y="97" on="0"/>
        <pt x="656" y="97" on="0"/>
        <pt x="463" y="19" on="0"/>
        <pt x="391" y="19" on="1"/>
        <pt x="343" y="19" on="1"/>
        <pt x="221" y="19" on="0"/>
        <pt x="56" y="190" on="0"/>
        <pt x="56" y="314" on="1"/>
        <pt x="56" y="338" on="1"/>
        <pt x="56" y="659" on="0"/>
        <pt x="573" y="659" on="1"/>
        <pt x="636" y="659" on="0"/>
        <pt x="677" y="681" on="0"/>
        <pt x="677" y="797" on="0"/>
        <pt x="589" y="868" on="0"/>
        <pt x="440" y="868" on="0"/>
        <pt x="216" y="817" on="0"/>
        <pt x="209" y="817" on="1"/>
        <pt x="169" y="817" on="0"/>
        <pt x="121" y="877" on="0"/>
        <pt x="121" y="989" on="0"/>
        <pt x="335" y="1070" on="0"/>
        <pt x="471" y="1070" on="1"/>
        <pt x="497" y="1070" on="1"/>
        <pt x="613" y="1070" on="0"/>
        <pt x="711" y="1035" on="1"/>
        <pt x="894" y="970" on="0"/>
        <pt x="925" y="784" on="1"/>
        <pt x="937" y="715" on="0"/>
        <pt x="937" y="394" on="0"/>
        <pt x="943" y="299" on="0"/>
        <pt x="965" y="186" on="0"/>
        <pt x="965" y="142" on="1"/>
      </contour>
    </TTGlyph>
    <TTGlyph name="asciicircum" xMin="123" yMin="753" xMax="907" yMax="1358">
      <contour>
        <pt x="220" y="753" on="1"/>
        <pt x="194" y="753" on="1"/>
        <pt x="123" y="753" on="0"/>
        <pt x="123" y="782" on="1"/>
        <pt x="123" y="801" on="0"/>
        <pt x="152" y="857" on="1"/>
        <pt x="290" y="1123" on="0"/>
        <pt x="409" y="1297" on="1"/>
        <pt x="451" y="1358" on="0"/>
        <pt x="517" y="1358" on="1"/>
        <pt x="530" y="1358" on="1"/>
        <pt x="590" y="1358" on="0"/>
        <pt x="649" y="1271" on="1"/>
        <pt x="775" y="1085" on="0"/>
        <pt x="877" y="874" on="1"/>
        <pt x="907" y="811" on="0"/>
        <pt x="907" y="799" on="1"/>
        <pt x="907" y="789" on="1"/>
        <pt x="907" y="758" on="0"/>
        <pt x="810" y="758" on="1"/>
        <pt x="753" y="758" on="0"/>
        <pt x="708" y="817" on="1"/>
        <pt x="664" y="877" on="0"/>
        <pt x="520" y="1139" on="0"/>
        <pt x="513" y="1139" on="0"/>
        <pt x="381" y="893" on="0"/>
        <pt x="275" y="753" on="0"/>
      </contour>
    </TTGlyph>
    <TTGlyph name="asciitilde" xMin="117" yMin="534" xMax="961" yMax="842">
      <contour>
        <pt x="327" y="842" on="1"/>
        <pt x="359" y="842" on="1"/>
        <pt x="418" y="842" on="0"/>
        <pt x="652" y="725" on="0"/>
        <pt x="741" y="725" on="0"/>
        <pt x="874" y="811" on="0"/>
        <pt x="901" y="811" on="1"/>
        <pt x="961" y="811" on="0"/>
        <pt x="961" y="660" on="0"/>
        <pt x="827" y="534" on="0"/>
        <pt x="740" y="534" on="1"/>
        <pt x="729" y="535" on="1"/>
        <pt x="719" y="535" on="1"/>
        <pt x="669" y="535" on="0"/>
        <pt x="423" y="652" on="0"/>
        <pt x="332" y="652" on="0"/>
        <pt x="214" y="564" on="0"/>
        <pt x="177" y="564" on="1"/>
        <pt x="117" y="564" on="0"/>
        <pt x="117" y="632" on="1"/>
        <pt x="117" y="643" on="1"/>
        <pt x="117" y="715" on="0"/>
        <pt x="252" y="842" on="0"/>
      </contour>
    </TTGlyph>
    <TTGlyph name="asterisk" xMin="156" yMin="728" xMax="804" yMax="1360">
      <contour>
        <pt x="705" y="912" on="1"/>
        <pt x="728" y="796" on="1"/>
        <pt x="728" y="781" on="0"/>
        <pt x="706" y="769" on="1"/>
        <pt x="645" y="737" on="0"/>
        <pt x="585" y="737" on="1"/>
        <pt x="573" y="737" on="0"/>
        <pt x="480" y="807" on="0"/>
        <pt x="474" y="807" on="0"/>
        <pt x="384" y="728" on="0"/>
        <pt x="372" y="728" on="1"/>
        <pt x="364" y="728" on="1"/>
        <pt x="333" y="728" on="0"/>
        <pt x="253" y="772" on="1"/>
        <pt x="227" y="786" on="0"/>
        <pt x="227" y="804" on="1"/>
        <pt x="247" y="874" on="0"/>
        <pt x="247" y="876" on="1"/>
        <pt x="241" y="922" on="1"/>
        <pt x="248" y="949" on="1"/>
        <pt x="248" y="955" on="0"/>
        <pt x="220" y="981" on="0"/>
        <pt x="207" y="1029" on="0"/>
        <pt x="156" y="1070" on="0"/>
        <pt x="156" y="1090" on="1"/>
        <pt x="156" y="1110" on="1"/>
        <pt x="156" y="1148" on="0"/>
        <pt x="184" y="1170" on="1"/>
        <pt x="238" y="1212" on="0"/>
        <pt x="249" y="1212" on="1"/>
        <pt x="337" y="1195" on="1"/>
        <pt x="372" y="1195" on="0"/>
        <pt x="398" y="1341" on="0"/>
        <pt x="405" y="1348" on="0"/>
        <pt x="454" y="1348" on="1"/>
        <pt x="535" y="1360" on="1"/>
        <pt x="556" y="1360" on="0"/>
        <pt x="580" y="1189" on="0"/>
        <pt x="616" y="1189" on="1"/>
        <pt x="701" y="1211" on="1"/>
        <pt x="724" y="1211" on="0"/>
        <pt x="776" y="1172" on="1"/>
        <pt x="804" y="1151" on="0"/>
        <pt x="804" y="1082" on="0"/>
        <pt x="782" y="1057" on="0"/>
        <pt x="735" y="1021" on="0"/>
        <pt x="732" y="1017" on="1"/>
        <pt x="721" y="990" on="0"/>
        <pt x="689" y="962" on="0"/>
        <pt x="689" y="957" on="1"/>
        <pt x="692" y="950" on="1"/>
        <pt x="705" y="933" on="0"/>
      </contour>
    </TTGlyph>
    <TTGlyph name="at" xMin="113" yMin="-217" xMax="1557" yMax="1318">
      <contour>
        <pt x="1000" y="699" on="1"/>
        <pt x="1000" y="740" on="0"/>
        <pt x="900" y="740" on="1"/>
        <pt x="888" y="741" on="1"/>
        <pt x="881" y="741" on="1"/>
        <pt x="792" y="741" on="0"/>
        <pt x="676" y="581" on="0"/>
        <pt x="676" y="474" on="1"/>
        <pt x="676" y="451" on="1"/>
        <pt x="676" y="374" on="0"/>
        <pt x="746" y="283" on="0"/>
        <pt x="777" y="283" on="1"/>
        <pt x="793" y="283" on="1"/>
        <pt x="861" y="283" on="0"/>
        <pt x="919" y="383" on="1"/>
        <pt x="997" y="517" on="0"/>
        <pt x="997" y="649" on="1"/>
        <pt x="1000" y="678" on="1"/>
      </contour>
      <contour>
        <pt x="808" y="-217" on="1"/>
        <pt x="508" y="-217" on="0"/>
        <pt x="312" y="-39" on="1"/>
        <pt x="213" y="51" on="0"/>
        <pt x="113" y="319" on="0"/>
        <pt x="113" y="461" on="1"/>
        <pt x="113" y="520" on="1"/>
        <pt x="113" y="523" on="0"/>
        <pt x="113" y="526" on="1"/>
        <pt x="113" y="699" on="0"/>
        <pt x="170" y="844" on="1"/>
        <pt x="285" y="1138" on="0"/>
        <pt x="528" y="1249" on="1"/>
        <pt x="680" y="1318" on="0"/>
        <pt x="856" y="1318" on="1"/>
        <pt x="913" y="1318" on="1"/>
        <pt x="1042" y="1318" on="0"/>
        <pt x="1164" y="1268" on="1"/>
        <pt x="1460" y="1148" on="0"/>
        <pt x="1533" y="882" on="1"/>
        <pt x="1557" y="793" on="0"/>
        <pt x="1557" y="715" on="1"/>
        <pt x="1557" y="658" on="1"/>
        <pt x="1557" y="553" on="0"/>
        <pt x="1482" y="366" on="0"/>
        <pt x="1385" y="262" on="0"/>
        <pt x="1223" y="195" on="0"/>
        <pt x="1146" y="195" on="1"/>
        <pt x="1025" y="215" on="1"/>
        <pt x="973" y="215" on="0"/>
        <pt x="824" y="191" on="0"/>
        <pt x="803" y="191" on="1"/>
        <pt x="711" y="191" on="0"/>
        <pt x="578" y="331" on="0"/>
        <pt x="578" y="454" on="1"/>
        <pt x="578" y="518" on="0"/>
        <pt x="650" y="675" on="0"/>
        <pt x="698" y="807" on="0"/>
        <pt x="733" y="858" on="0"/>
        <pt x="775" y="872" on="1"/>
        <pt x="898" y="913" on="0"/>
        <pt x="1035" y="913" on="0"/>
        <pt x="1073" y="843" on="1"/>
        <pt x="1094" y="804" on="0"/>
        <pt x="1164" y="505" on="0"/>
        <pt x="1169" y="495" on="1"/>
        <pt x="1188" y="458" on="0"/>
        <pt x="1227" y="458" on="1"/>
        <pt x="1244" y="458" on="0"/>
        <pt x="1297" y="528" on="0"/>
        <pt x="1297" y="610" on="1"/>
        <pt x="1297" y="792" on="0"/>
        <pt x="1181" y="921" on="1"/>
        <pt x="1064" y="1051" on="0"/>
        <pt x="886" y="1051" on="1"/>
        <pt x="782" y="1050" on="0"/>
        <pt x="687" y="1004" on="1"/>
        <pt x="494" y="911" on="0"/>
        <pt x="421" y="708" on="1"/>
        <pt x="387" y="613" on="0"/>
        <pt x="387" y="376" on="0"/>
        <pt x="442" y="257" on="1"/>
        <pt x="496" y="138" on="0"/>
        <pt x="568" y="74" on="1"/>
        <pt x="722" y="-62" on="0"/>
        <pt x="970" y="-62" on="1"/>
        <pt x="1015" y="-59" on="1"/>
        <pt x="1080" y="-53" on="0"/>
        <pt x="1097" y="-53" on="1"/>
        <pt x="1179" y="-53" on="0"/>
        <pt x="1179" y="-156" on="0"/>
        <pt x="1035" y="-194" on="1"/>
        <pt x="950" y="-217" on="0"/>
      </contour>
    </TTGlyph>
    <TTGlyph name="atilde" xMin="63" yMin="-4" xMax="966" yMax="1444">
      <contour>
        <pt x="508" y="228" on="1"/>
        <pt x="580" y="228" on="0"/>
        <pt x="660" y="290" on="1"/>
        <pt x="698" y="320" on="0"/>
        <pt x="698" y="397" on="1"/>
        <pt x="698" y="442" on="1"/>
        <pt x="698" y="493" on="0"/>
        <pt x="663" y="508" on="0"/>
        <pt x="570" y="508" on="1"/>
        <pt x="558" y="508" on="1"/>
        <pt x="540" y="509" on="1"/>
        <pt x="504" y="509" on="1"/>
        <pt x="428" y="509" on="0"/>
        <pt x="356" y="461" on="1"/>
        <pt x="311" y="431" on="0"/>
        <pt x="311" y="370" on="1"/>
        <pt x="311" y="339" on="1"/>
        <pt x="311" y="295" on="0"/>
        <pt x="386" y="231" on="0"/>
        <pt x="447" y="231" on="1"/>
        <pt x="466" y="229" on="1"/>
        <pt x="478" y="229" on="1"/>
        <pt x="490" y="228" on="1"/>
      </contour>
      <contour>
        <pt x="879" y="1343" on="1"/>
        <pt x="879" y="1325" on="1"/>
        <pt x="879" y="1252" on="0"/>
        <pt x="770" y="1159" on="0"/>
        <pt x="706" y="1159" on="1"/>
        <pt x="689" y="1159" on="1"/>
        <pt x="656" y="1159" on="0"/>
        <pt x="410" y="1260" on="0"/>
        <pt x="363" y="1260" on="0"/>
        <pt x="271" y="1201" on="0"/>
        <pt x="229" y="1201" on="1"/>
        <pt x="172" y="1201" on="0"/>
        <pt x="172" y="1263" on="1"/>
        <pt x="172" y="1280" on="1"/>
        <pt x="172" y="1348" on="0"/>
        <pt x="285" y="1444" on="0"/>
        <pt x="350" y="1444" on="1"/>
        <pt x="358" y="1444" on="1"/>
        <pt x="367" y="1443" on="1"/>
        <pt x="418" y="1443" on="0"/>
        <pt x="644" y="1355" on="0"/>
        <pt x="699" y="1355" on="0"/>
        <pt x="783" y="1409" on="0"/>
        <pt x="818" y="1409" on="1"/>
        <pt x="879" y="1409" on="0"/>
      </contour>
      <contour>
        <pt x="579" y="638" on="1"/>
        <pt x="648" y="638" on="0"/>
        <pt x="682" y="659" on="0"/>
        <pt x="682" y="775" on="0"/>
        <pt x="593" y="847" on="0"/>
        <pt x="445" y="847" on="0"/>
        <pt x="225" y="797" on="0"/>
        <pt x="175" y="797" on="0"/>
        <pt x="127" y="855" on="0"/>
        <pt x="127" y="913" on="1"/>
        <pt x="127" y="966" on="0"/>
        <pt x="336" y="1047" on="0"/>
        <pt x="452" y="1047" on="1"/>
        <pt x="528" y="1047" on="1"/>
        <pt x="622" y="1046" on="0"/>
        <pt x="718" y="1010" on="1"/>
        <pt x="895" y="942" on="0"/>
        <pt x="927" y="759" on="1"/>
        <pt x="939" y="688" on="0"/>
        <pt x="939" y="371" on="0"/>
        <pt x="945" y="287" on="0"/>
        <pt x="966" y="162" on="0"/>
        <pt x="966" y="120" on="1"/>
        <pt x="966" y="97" on="1"/>
        <pt x="966" y="48" on="0"/>
        <pt x="903" y="12" on="0"/>
        <pt x="786" y="12" on="0"/>
        <pt x="690" y="73" on="0"/>
        <pt x="666" y="73" on="1"/>
        <pt x="642" y="72" on="0"/>
        <pt x="600" y="52" on="1"/>
        <pt x="487" y="-4" on="0"/>
        <pt x="224" y="-4" on="0"/>
        <pt x="63" y="173" on="0"/>
        <pt x="63" y="318" on="1"/>
        <pt x="63" y="638" on="0"/>
      </contour>
    </TTGlyph>
    <TTGlyph name="b" xMin="130" yMin="-4" xMax="1050" yMax="1486">
      <contour>
        <pt x="551" y="177" on="1"/>
        <pt x="591" y="177" on="1"/>
        <pt x="696" y="177" on="0"/>
        <pt x="759" y="268" on="1"/>
        <pt x="805" y="334" on="0"/>
        <pt x="805" y="474" on="1"/>
        <pt x="805" y="516" on="1"/>
        <pt x="804" y="527" on="1"/>
        <pt x="802" y="568" on="1"/>
        <pt x="802" y="568" on="0"/>
        <pt x="802" y="589" on="1"/>
        <pt x="800" y="609" on="0"/>
        <pt x="800" y="618" on="1"/>
        <pt x="800" y="712" on="0"/>
        <pt x="694" y="849" on="0"/>
        <pt x="610" y="849" on="1"/>
        <pt x="571" y="849" on="1"/>
        <pt x="461" y="849" on="0"/>
        <pt x="408" y="766" on="1"/>
        <pt x="373" y="712" on="0"/>
        <pt x="373" y="558" on="1"/>
        <pt x="373" y="460" on="1"/>
        <pt x="374" y="450" on="1"/>
        <pt x="377" y="393" on="1"/>
        <pt x="378" y="383" on="0"/>
        <pt x="378" y="374" on="1"/>
        <pt x="378" y="283" on="0"/>
        <pt x="468" y="177" on="0"/>
      </contour>
      <contour>
        <pt x="645" y="-4" on="1"/>
        <pt x="621" y="-4" on="1"/>
        <pt x="554" y="-4" on="0"/>
        <pt x="380" y="54" on="0"/>
        <pt x="375" y="54" on="0"/>
        <pt x="314" y="16" on="0"/>
        <pt x="262" y="16" on="1"/>
        <pt x="169" y="16" on="0"/>
        <pt x="130" y="104" on="0"/>
        <pt x="130" y="290" on="1"/>
        <pt x="130" y="337" on="1"/>
        <pt x="131" y="361" on="1"/>
        <pt x="131" y="502" on="1"/>
        <pt x="132" y="572" on="1"/>
        <pt x="132" y="631" on="0"/>
        <pt x="132" y="690" on="1"/>
        <pt x="133" y="737" on="1"/>
        <pt x="133" y="737" on="0"/>
        <pt x="133" y="1082" on="1"/>
        <pt x="133" y="1392" on="0"/>
        <pt x="152" y="1486" on="0"/>
        <pt x="239" y="1486" on="1"/>
        <pt x="262" y="1486" on="1"/>
        <pt x="348" y="1486" on="0"/>
        <pt x="396" y="1401" on="0"/>
        <pt x="396" y="1002" on="0"/>
        <pt x="444" y="1002" on="1"/>
        <pt x="457" y="1002" on="0"/>
        <pt x="541" y="1030" on="0"/>
        <pt x="605" y="1046" on="0"/>
        <pt x="772" y="1046" on="0"/>
        <pt x="912" y="967" on="0"/>
        <pt x="955" y="901" on="1"/>
        <pt x="1050" y="756" on="0"/>
        <pt x="1050" y="548" on="1"/>
        <pt x="1050" y="498" on="1"/>
        <pt x="1050" y="145" on="0"/>
        <pt x="821" y="36" on="1"/>
        <pt x="737" y="-4" on="0"/>
      </contour>
    </TTGlyph>
    <TTGlyph name="backslash" xMin="41" yMin="-138" xMax="836" yMax="1475">
      <contour>
        <pt x="836" y="-79" on="1"/>
        <pt x="836" y="-94" on="1"/>
        <pt x="836" y="-138" on="0"/>
        <pt x="738" y="-138" on="1"/>
        <pt x="720" y="-138" on="1"/>
        <pt x="670" y="-138" on="0"/>
        <pt x="630" y="-90" on="0"/>
        <pt x="580" y="25" on="1"/>
        <pt x="279" y="708" on="0"/>
        <pt x="91" y="1271" on="1"/>
        <pt x="41" y="1421" on="0"/>
        <pt x="41" y="1430" on="1"/>
        <pt x="41" y="1475" on="0"/>
        <pt x="140" y="1475" on="1"/>
        <pt x="158" y="1475" on="1"/>
        <pt x="160" y="1475" on="0"/>
        <pt x="162" y="1475" on="1"/>
        <pt x="208" y="1475" on="0"/>
        <pt x="226" y="1452" on="1"/>
        <pt x="245" y="1428" on="0"/>
        <pt x="296" y="1312" on="1"/>
        <pt x="549" y="739" on="0"/>
        <pt x="786" y="64" on="1"/>
        <pt x="836" y="-78" on="0"/>
      </contour>
    </TTGlyph>
    <TTGlyph name="bar" xMin="203" yMin="-292" xMax="418" yMax="1524">
      <contour>
        <pt x="217" y="1524" on="0"/>
        <pt x="394" y="1524" on="0"/>
        <pt x="418" y="1480" on="0"/>
        <pt x="418" y="1388" on="1"/>
        <pt x="418" y="-168" on="1"/>
        <pt x="418" y="-259" on="0"/>
        <pt x="385" y="-292" on="0"/>
        <pt x="227" y="-292" on="0"/>
        <pt x="203" y="-245" on="0"/>
        <pt x="203" y="-137" on="1"/>
        <pt x="203" y="-16" on="1"/>
        <pt x="204" y="4" on="1"/>
        <pt x="204" y="632" on="1"/>
        <pt x="204" y="1448" on="0"/>
        <pt x="209" y="1478" on="1"/>
      </contour>
    </TTGlyph>
    <TTGlyph name="braceleft" xMin="89" yMin="-288" xMax="684" yMax="1525">
      <contour>
        <pt x="89" y="560" on="0"/>
        <pt x="89" y="677" on="0"/>
        <pt x="115" y="699" on="1"/>
        <pt x="174" y="731" on="1"/>
        <pt x="217" y="758" on="0"/>
        <pt x="254" y="831" on="0"/>
        <pt x="254" y="959" on="1"/>
        <pt x="252" y="1009" on="1"/>
        <pt x="251" y="1083" on="1"/>
        <pt x="251" y="1311" on="0"/>
        <pt x="321" y="1407" on="1"/>
        <pt x="406" y="1525" on="0"/>
        <pt x="587" y="1525" on="1"/>
        <pt x="612" y="1525" on="1"/>
        <pt x="684" y="1525" on="0"/>
        <pt x="684" y="1471" on="1"/>
        <pt x="684" y="1450" on="1"/>
        <pt x="684" y="1402" on="0"/>
        <pt x="659" y="1372" on="1"/>
        <pt x="655" y="1367" on="0"/>
        <pt x="571" y="1324" on="1"/>
        <pt x="522" y="1299" on="0"/>
        <pt x="476" y="1194" on="0"/>
        <pt x="476" y="820" on="0"/>
        <pt x="424" y="695" on="0"/>
        <pt x="367" y="647" on="1"/>
        <pt x="346" y="629" on="0"/>
        <pt x="346" y="618" on="0"/>
        <pt x="371" y="598" on="1"/>
        <pt x="435" y="547" on="0"/>
        <pt x="473" y="439" on="0"/>
        <pt x="473" y="23" on="0"/>
        <pt x="525" y="-70" on="0"/>
        <pt x="562" y="-90" on="1"/>
        <pt x="600" y="-106" on="1"/>
        <pt x="639" y="-122" on="0"/>
        <pt x="677" y="-165" on="0"/>
        <pt x="677" y="-247" on="0"/>
        <pt x="649" y="-288" on="0"/>
        <pt x="503" y="-288" on="0"/>
        <pt x="434" y="-263" on="1"/>
        <pt x="298" y="-214" on="0"/>
        <pt x="263" y="-66" on="1"/>
        <pt x="247" y="2" on="0"/>
        <pt x="247" y="152" on="1"/>
        <pt x="250" y="325" on="1"/>
        <pt x="250" y="426" on="0"/>
        <pt x="205" y="501" on="0"/>
      </contour>
    </TTGlyph>
    <TTGlyph name="braceright" xMin="100" yMin="-287" xMax="679" yMax="1526">
      <contour>
        <pt x="303" y="833" on="0"/>
        <pt x="303" y="1211" on="0"/>
        <pt x="251" y="1312" on="0"/>
        <pt x="101" y="1371" on="0"/>
        <pt x="101" y="1497" on="0"/>
        <pt x="140" y="1526" on="0"/>
        <pt x="189" y="1526" on="1"/>
        <pt x="212" y="1526" on="1"/>
        <pt x="294" y="1526" on="0"/>
        <pt x="427" y="1454" on="0"/>
        <pt x="463" y="1396" on="1"/>
        <pt x="521" y="1302" on="0"/>
        <pt x="521" y="998" on="1"/>
        <pt x="521" y="842" on="0"/>
        <pt x="555" y="757" on="0"/>
        <pt x="631" y="718" on="1"/>
        <pt x="660" y="703" on="0"/>
        <pt x="679" y="678" on="0"/>
        <pt x="679" y="567" on="0"/>
        <pt x="631" y="538" on="1"/>
        <pt x="556" y="492" on="0"/>
        <pt x="523" y="414" on="0"/>
        <pt x="523" y="49" on="0"/>
        <pt x="510" y="-27" on="1"/>
        <pt x="496" y="-103" on="0"/>
        <pt x="450" y="-167" on="1"/>
        <pt x="363" y="-287" on="0"/>
        <pt x="172" y="-287" on="1"/>
        <pt x="149" y="-287" on="1"/>
        <pt x="100" y="-287" on="0"/>
        <pt x="100" y="-218" on="1"/>
        <pt x="100" y="-197" on="1"/>
        <pt x="100" y="-140" on="0"/>
        <pt x="254" y="-69" on="0"/>
        <pt x="300" y="38" on="0"/>
        <pt x="300" y="420" on="0"/>
        <pt x="348" y="549" on="0"/>
        <pt x="432" y="619" on="0"/>
        <pt x="432" y="629" on="1"/>
        <pt x="401" y="655" on="1"/>
        <pt x="337" y="707" on="0"/>
      </contour>
    </TTGlyph>
</ttFont>
